<?xml version="1.0" encoding="utf-8"?><svg viewBox="0 0 50 50" xmlns="http://www.w3.org/2000/svg" xmlns:xlink="http://www.w3.org/1999/xlink"><style>:root>svg{display:none}:root>svg:target{display:block}</style><svg viewBox="0 0 43 16" id="arrow-slider" xmlns="http://www.w3.org/2000/svg"><path d="M42.707 8.707a1 1 0 000-1.414L36.343.929a1 1 0 10-1.414 1.414L40.586 8l-5.657 5.657a1 1 0 001.414 1.414l6.364-6.364zM0 9h42V7H0v2z"/></svg><svg viewBox="0 0 50 50" id="linkedin" xmlns="http://www.w3.org/2000/svg"><path d="M0 0v50h50V0H0zm15.353 41.248c0 .637-.516 1.153-1.153 1.153H9.294a1.153 1.153 0 01-1.153-1.153V20.317c0-.637.516-1.153 1.153-1.153H14.2c.637 0 1.153.516 1.153 1.153v20.931zM11.74 15.962c-2.228.046-4.186-1.816-4.186-4.19 0-2.302 1.897-4.18 4.214-4.178 2.29.002 4.18 1.893 4.174 4.195-.005 2.41-2.005 4.226-4.202 4.173zm30.707 25.966a.478.478 0 01-.478.478l-6.27-.002a.479.479 0 01-.48-.478V29c0-1.117-.452-2.13-1.184-2.861a4.033 4.033 0 00-2.908-1.185c-2.225.025-4 1.872-4 4.097v12.872a.479.479 0 01-.478.479l-6.255-.002a.479.479 0 01-.479-.478v-22.28c0-.265.215-.48.48-.48h6.12c.265 0 .48.215.48.48v2.569l.065.008a7.053 7.053 0 016.184-3.65H34.5a7.945 7.945 0 017.946 7.946v15.412z"/></svg><svg viewBox="0 0 50 50" id="message" xmlns="http://www.w3.org/2000/svg"><path fill-rule="evenodd" clip-rule="evenodd" d="M50 0H0v50h50V0zM7 23.46C7 14.369 14.96 7 24.778 7c9.818 0 17.778 7.371 17.778 16.462s-7.96 16.46-17.778 16.46c-1.774 0-3.485-.242-5.1-.689l-6.054 3.323v-6.278C9.584 33.26 7 28.64 7 23.46zm15.018.878l4.526 4.829 9.718-10.316-8.722 4.829-4.638-4.829-9.718 10.316 8.834-4.83z"/></svg><svg viewBox="0 0 50 50" id="skype" xmlns="http://www.w3.org/2000/svg"><g clip-path="url(#dclip0)"><path d="M0 0v50h50V0H0zm33.661 42.163a9.22 9.22 0 01-4.672-1.265c-.998.194-2.03.297-3.084.297-8.867 0-16.055-7.189-16.055-16.056 0-1.055.102-2.085.297-3.083A9.267 9.267 0 0122.822 9.38a16.134 16.134 0 013.083-.297c8.867 0 16.055 7.188 16.055 16.055 0 1.055-.103 2.086-.297 3.084a9.267 9.267 0 01-8.002 13.94z"/><path d="M27.142 22.67c-5.924-1.151-6.308-2.962-4.882-4.223 1.426-1.262 5.666-1.829 6.857.384 1.152 2.14 1.975 3.017 3.566 2.633 1.517-.366 1.737-2.469 1.097-3.73-.516-1.018-2.853-3.621-7.46-3.621-4.608 0-9.436 1.7-9.436 5.925 0 4.224 4.389 6.089 8.613 6.692 4.224.604 5.211 2.414 4.663 3.73-.55 1.317-2.36 2.579-5.102 2.304-2.743-.274-4.009-2.57-4.389-3.73-.366-1.115-1.646-1.262-2.249-1.207-.603.055-2.523.823-1.646 3.511.878 2.688 3.73 4.828 9.436 4.828 5.705 0 9.051-3.511 9.051-6.858 0-3.346-2.194-5.485-8.119-6.637z"/></g><defs><clipPath id="dclip0"><path d="M0 0h50v50H0z"/></clipPath></defs></svg><svg viewBox="0 0 50 50" id="telegram" xmlns="http://www.w3.org/2000/svg"><path d="M34.696 16.446l-18.34 11.375a.834.834 0 00-.357.956l2.46 7.928c.052.166.295.143.314-.03l.598-5.315a.834.834 0 01.277-.532l15.53-13.734c.372-.329-.06-.91-.482-.648z"/><path d="M0 0v50h50V0H0zm41.678 12.992L35.97 40.285a1.799 1.799 0 01-2.825 1.081l-8.619-6.327-4.393 4.486a1.46 1.46 0 01-2.434-.583l-3.17-10.061-8.497-2.509c-1.115-.33-1.18-1.883-.097-2.305l33.435-13.03c1.273-.496 2.588.618 2.308 1.955z"/></svg><svg viewBox="0 0 50 50" id="viber" xmlns="http://www.w3.org/2000/svg"><path d="M32.484 11.562a39.886 39.886 0 00-14.969 0c-2.172.484-4.905 3.103-5.44 5.209a28.63 28.63 0 000 12.284c.535 2.106 3.268 4.725 5.44 5.209h.002a.206.206 0 01.167.201v5.971c0 .299.365.446.572.23l2.836-2.911 2.667-2.737a.203.203 0 01.15-.062c2.864.08 5.73-.152 8.575-.692 2.172-.484 4.906-3.103 5.44-5.21.89-4.075.89-8.207 0-12.283-.534-2.107-3.267-4.725-5.44-5.21zm.075 17.796c-.434.923-1.066 1.69-1.978 2.18-.258.139-.565.183-.855.273-.334-.102-.653-.17-.948-.293-3.063-1.27-5.882-2.91-8.115-5.423-1.27-1.429-2.263-3.042-3.103-4.75-.398-.809-.734-1.65-1.076-2.486-.313-.763.147-1.55.631-2.125.454-.539 1.039-.951 1.671-1.255.494-.237.981-.1 1.342.318.78.905 1.496 1.857 2.076 2.906.357.645.26 1.434-.387 1.873-.157.107-.3.232-.447.353-.128.106-.249.212-.337.355-.16.262-.169.57-.065.856.797 2.19 2.141 3.894 4.346 4.811.353.147.707.318 1.114.27.68-.079.9-.826 1.378-1.216.466-.381 1.062-.386 1.564-.068.503.318.99.66 1.474 1.004.475.339.948.67 1.386 1.056.422.37.567.858.33 1.361zm-3.954-7.138a.617.617 0 01-.043-.003c-.307-.01-.473-.191-.506-.484-.024-.215-.043-.432-.094-.64-.101-.41-.32-.791-.665-1.043a1.731 1.731 0 00-.54-.26c-.247-.072-.502-.052-.747-.113-.267-.065-.414-.28-.372-.53a.482.482 0 01.507-.387c1.554.112 2.664.915 2.822 2.743.011.13.025.266-.004.39a.399.399 0 01-.358.327zm-.966-4.183a5.465 5.465 0 00-1.514-.464c-.229-.038-.46-.061-.689-.093-.278-.039-.426-.216-.413-.49.012-.257.2-.441.48-.425.919.052 1.807.25 2.624.683 1.662.88 2.612 2.27 2.889 4.125.013.084.033.168.04.252.015.208.025.417.04.691-.006.05-.01.168-.039.279-.106.402-.716.452-.856.046a1.21 1.21 0 01-.048-.387c-.002-.848-.186-1.696-.614-2.434a4.532 4.532 0 00-1.9-1.783zm5.136 5.734c-.321.004-.466-.265-.486-.553-.042-.57-.07-1.142-.149-1.708-.415-2.984-2.794-5.453-5.765-5.983-.447-.08-.904-.1-1.357-.148-.286-.03-.661-.047-.725-.403-.053-.299.199-.536.483-.551.077-.005.155-.001.233 0 3.847.107.234.008.01 0 4.001.116 7.287 2.774 7.991 6.73.12.676.163 1.366.217 2.05.022.289-.141.562-.452.566z"/><path d="M0 0v50h50V0H0zm40.813 29.708l-.01.04c-.798 3.229-4.4 6.694-7.706 7.414l-.037.008c-2.674.51-5.368.765-8.06.765-.792 0-1.585-.025-2.377-.07l-3.652 3.797c-.904.941-2.494.3-2.494-1.004v-3.605c-3.183-.908-6.516-4.214-7.281-7.305l-.009-.04a31.55 31.55 0 010-13.591l.009-.04c.8-3.228 4.4-6.693 7.706-7.414l.038-.008a42.824 42.824 0 0116.12 0l.037.008c3.307.72 6.907 4.186 7.706 7.415l.01.039a31.55 31.55 0 010 13.591z"/></svg><svg viewBox="0 0 50 50" id="whatsapp" xmlns="http://www.w3.org/2000/svg"><path d="M25.023 10.458c-7.996 0-14.501 6.505-14.501 14.5 0 2.787.792 5.492 2.29 7.824l.36.561-1.41 5.01 5.182-1.335.534.326a14.47 14.47 0 007.544 2.115c7.996 0 14.501-6.505 14.501-14.5 0-7.996-6.505-14.5-14.5-14.5zm8.891 18.957l-.18.845a3.658 3.658 0 01-1.592 2.323c-1.037.663-2.382.989-4.09.506-5.303-1.5-8.302-5.01-9.911-7.205-1.61-2.194-2.231-4.389-1.829-6.18.27-1.202 1.148-2.125 1.698-2.602a1.37 1.37 0 01.974-.333l1.133.062c.223.012.42.15.508.355l1.65 3.862a.587.587 0 01-.095.615l-1.437 1.662a.434.434 0 00-.055.485c1.893 3.645 5.341 5.09 6.37 5.451a.43.43 0 00.484-.144l1.504-1.948a.587.587 0 01.71-.175l3.83 1.765c.25.115.386.388.328.656z"/><path d="M0 0v50h50V0H0zm25.023 42.421c-3 0-5.939-.768-8.538-2.226l-8.97 2.31 2.449-8.7A17.409 17.409 0 017.56 24.96c0-9.63 7.833-17.463 17.463-17.463 9.629 0 17.462 7.833 17.462 17.463 0 9.629-7.833 17.462-17.462 17.462z"/></svg></svg>