<svg width="364" height="97" viewBox="0 0 364 97" fill="none" xmlns="http://www.w3.org/2000/svg">
<path d="M1.78203 2.99999V1.99999H0.782032V2.99999H1.78203ZM1.78203 94H0.782032V95H1.78203V94ZM35.322 45.51L34.8971 44.6048L32.7872 45.5951L34.9588 46.4417L35.322 45.51ZM16.082 81H15.082V82H16.082V81ZM16.082 53.05V52.05H15.082V53.05H16.082ZM16.082 40.05H15.082V41.05H16.082V40.05ZM16.082 16V15H15.082V16H16.082ZM23.362 1.99999H1.78203V3.99999H23.362V1.99999ZM0.782032 2.99999V94H2.78203V2.99999H0.782032ZM1.78203 95H24.272V93H1.78203V95ZM24.272 95C31.5897 95 37.3099 93.0689 41.1966 89.1821C45.0834 85.2954 46.982 79.6078 46.982 72.42H44.982C44.982 79.2722 43.1757 84.3746 39.7824 87.7679C36.3892 91.1611 31.2544 93 24.272 93V95ZM46.982 72.42V65.01H44.982V72.42H46.982ZM46.982 65.01C46.982 60.1083 46.2222 55.8053 44.4165 52.3143C42.597 48.7966 39.7438 46.1604 35.6852 44.5783L34.9588 46.4417C38.5703 47.8496 41.0471 50.1534 42.6401 53.2332C44.2469 56.3397 44.982 60.2916 44.982 65.01H46.982ZM35.7469 46.4152C39.1302 44.8272 41.6066 42.4256 43.2212 39.179C44.8245 35.9552 45.552 31.952 45.552 27.18H43.552C43.552 31.768 42.8496 35.4348 41.4304 38.2884C40.0225 41.1194 37.8839 43.2028 34.8971 44.6048L35.7469 46.4152ZM45.552 27.18V23.93H43.552V27.18H45.552ZM45.552 23.93C45.552 16.7798 43.9319 11.2382 40.225 7.49622C36.5164 3.75264 30.9074 1.99999 23.362 1.99999V3.99999C30.6367 3.99999 35.6227 5.69235 38.8041 8.90377C41.9871 12.1168 43.552 17.0402 43.552 23.93H45.552ZM22.452 54.05C25.603 54.05 27.5438 54.6859 28.7524 56.0653C29.9963 57.4849 30.682 59.9288 30.682 64.1H32.682C32.682 59.8212 32.0028 56.7401 30.2567 54.7472C28.4752 52.7141 25.8011 52.05 22.452 52.05V54.05ZM30.682 64.1V72.03H32.682V64.1H30.682ZM30.682 72.03C30.682 75.3185 30.0428 77.2582 29.0358 78.3829C28.0549 79.4784 26.5417 80 24.272 80V82C26.8124 82 29.0041 81.4166 30.5258 79.717C32.0213 78.0468 32.682 75.5015 32.682 72.03H30.682ZM24.272 80H16.082V82H24.272V80ZM17.082 81V53.05H15.082V81H17.082ZM16.082 54.05H22.452V52.05H16.082V54.05ZM22.972 17C25.3149 17 26.7883 17.6516 27.7235 18.8559C28.7044 20.119 29.252 22.1844 29.252 25.36H31.252C31.252 22.0356 30.6946 19.421 29.3031 17.6291C27.8658 15.7784 25.6992 15 22.972 15V17ZM29.252 25.36V30.43H31.252V25.36H29.252ZM29.252 30.43C29.252 33.946 28.4643 36.039 27.2498 37.2668C26.0399 38.49 24.2127 39.05 21.672 39.05V41.05C24.4614 41.05 26.9242 40.44 28.6717 38.6732C30.4148 36.911 31.252 34.194 31.252 30.43H29.252ZM21.672 39.05H16.082V41.05H21.672V39.05ZM17.082 40.05V16H15.082V40.05H17.082ZM16.082 17H22.972V15H16.082V17ZM68.8945 16V15H67.8945V16H68.8945ZM93.5945 16V17H94.5945V16H93.5945ZM93.5945 2.99999H94.5945V1.99999H93.5945V2.99999ZM54.5945 2.99999V1.99999H53.5945V2.99999H54.5945ZM54.5945 94H53.5945V95H54.5945V94ZM93.5945 94V95H94.5945V94H93.5945ZM93.5945 81H94.5945V80H93.5945V81ZM68.8945 81H67.8945V82H68.8945V81ZM68.8945 54.35V53.35H67.8945V54.35H68.8945ZM88.5245 54.35V55.35H89.5245V54.35H88.5245ZM88.5245 41.35H89.5245V40.35H88.5245V41.35ZM68.8945 41.35H67.8945V42.35H68.8945V41.35ZM68.8945 17H93.5945V15H68.8945V17ZM94.5945 16V2.99999H92.5945V16H94.5945ZM93.5945 1.99999H54.5945V3.99999H93.5945V1.99999ZM53.5945 2.99999V94H55.5945V2.99999H53.5945ZM54.5945 95H93.5945V93H54.5945V95ZM94.5945 94V81H92.5945V94H94.5945ZM93.5945 80H68.8945V82H93.5945V80ZM69.8945 81V54.35H67.8945V81H69.8945ZM68.8945 55.35H88.5245V53.35H68.8945V55.35ZM89.5245 54.35V41.35H87.5245V54.35H89.5245ZM88.5245 40.35H68.8945V42.35H88.5245V40.35ZM69.8945 41.35V16H67.8945V41.35H69.8945ZM133.006 94L132.04 94.2609L132.24 95H133.006V94ZM147.696 94V95H148.696V94H147.696ZM147.696 2.99999H148.696V1.99999H147.696V2.99999ZM134.956 2.99999V1.99999H133.956V2.99999H134.956ZM134.956 57.47L133.99 57.7304L135.956 57.47H134.956ZM120.266 2.99999L121.231 2.73961L121.032 1.99999H120.266V2.99999ZM102.326 2.99999V1.99999H101.326V2.99999H102.326ZM102.326 94H101.326V95H102.326V94ZM115.196 94V95H116.196V94H115.196ZM115.196 28.09L116.161 27.8291L114.196 28.09H115.196ZM133.006 95H147.696V93H133.006V95ZM148.696 94V2.99999H146.696V94H148.696ZM147.696 1.99999H134.956V3.99999H147.696V1.99999ZM133.956 2.99999V57.47H135.956V2.99999H133.956ZM135.921 57.2096L121.231 2.73961L119.3 3.26038L133.99 57.7304L135.921 57.2096ZM120.266 1.99999H102.326V3.99999H120.266V1.99999ZM101.326 2.99999V94H103.326V2.99999H101.326ZM102.326 95H115.196V93H102.326V95ZM116.196 94V28.09H114.196V94H116.196ZM114.23 28.3509L132.04 94.2609L133.971 93.7391L116.161 27.8291L114.23 28.3509ZM172.234 16V15H171.234V16H172.234ZM196.934 16V17H197.934V16H196.934ZM196.934 2.99999H197.934V1.99999H196.934V2.99999ZM157.934 2.99999V1.99999H156.934V2.99999H157.934ZM157.934 94H156.934V95H157.934V94ZM196.934 94V95H197.934V94H196.934ZM196.934 81H197.934V80H196.934V81ZM172.234 81H171.234V82H172.234V81ZM172.234 54.35V53.35H171.234V54.35H172.234ZM191.864 54.35V55.35H192.864V54.35H191.864ZM191.864 41.35H192.864V40.35H191.864V41.35ZM172.234 41.35H171.234V42.35H172.234V41.35ZM172.234 17H196.934V15H172.234V17ZM197.934 16V2.99999H195.934V16H197.934ZM196.934 1.99999H157.934V3.99999H196.934V1.99999ZM156.934 2.99999V94H158.934V2.99999H156.934ZM157.934 95H196.934V93H157.934V95ZM197.934 94V81H195.934V94H197.934ZM196.934 80H172.234V82H196.934V80ZM173.234 81V54.35H171.234V81H173.234ZM172.234 55.35H191.864V53.35H172.234V55.35ZM192.864 54.35V41.35H190.864V54.35H192.864ZM191.864 40.35H172.234V42.35H191.864V40.35ZM173.234 41.35V16H171.234V41.35H173.234ZM220.096 16V15H219.096V16H220.096ZM243.626 16V17H244.626V16H243.626ZM243.626 2.99999H244.626V1.99999H243.626V2.99999ZM205.796 2.99999V1.99999H204.796V2.99999H205.796ZM205.796 94H204.796V95H205.796V94ZM220.096 94V95H221.096V94H220.096ZM220.096 56.43V55.43H219.096V56.43H220.096ZM238.556 56.43V57.43H239.556V56.43H238.556ZM238.556 43.43H239.556V42.43H238.556V43.43ZM220.096 43.43H219.096V44.43H220.096V43.43ZM220.096 17H243.626V15H220.096V17ZM244.626 16V2.99999H242.626V16H244.626ZM243.626 1.99999H205.796V3.99999H243.626V1.99999ZM204.796 2.99999V94H206.796V2.99999H204.796ZM205.796 95H220.096V93H205.796V95ZM221.096 94V56.43H219.096V94H221.096ZM220.096 57.43H238.556V55.43H220.096V57.43ZM239.556 56.43V43.43H237.556V56.43H239.556ZM238.556 42.43H220.096V44.43H238.556V42.43ZM221.096 43.43V16H219.096V43.43H221.096ZM250.483 94H249.483V95H250.483V94ZM264.783 94V95H265.783V94H264.783ZM264.783 2.99999H265.783V1.99999H264.783V2.99999ZM250.483 2.99999V1.99999H249.483V2.99999H250.483ZM250.483 95H264.783V93H250.483V95ZM265.783 94V2.99999H263.783V94H265.783ZM264.783 1.99999H250.483V3.99999H264.783V1.99999ZM249.483 2.99999V94H251.483V2.99999H249.483ZM271.079 16H270.079V17H271.079V16ZM286.029 16H287.029V15H286.029V16ZM286.029 94H285.029V95H286.029V94ZM300.329 94V95H301.329V94H300.329ZM300.329 16V15H299.329V16H300.329ZM315.279 16V17H316.279V16H315.279ZM315.279 2.99999H316.279V1.99999H315.279V2.99999ZM271.079 2.99999V1.99999H270.079V2.99999H271.079ZM271.079 17H286.029V15H271.079V17ZM285.029 16V94H287.029V16H285.029ZM286.029 95H300.329V93H286.029V95ZM301.329 94V16H299.329V94H301.329ZM300.329 17H315.279V15H300.329V17ZM316.279 16V2.99999H314.279V16H316.279ZM315.279 1.99999H271.079V3.99999H315.279V1.99999ZM270.079 2.99999V16H272.079V2.99999H270.079ZM332.887 66.57H333.887V65.57H332.887V66.57ZM319.367 66.57V65.57H318.367V66.57H319.367ZM348.357 27.7H347.357V28.7H348.357V27.7ZM361.877 27.7V28.7H362.877V27.7H361.877ZM318.757 24.84C318.757 38.2867 326.03 45.919 333.053 52.4189C336.59 55.693 339.995 58.6224 342.551 61.9069C345.076 65.1524 346.707 68.6716 346.707 73.07H348.707C348.707 68.1083 346.844 64.1688 344.129 60.6787C341.444 57.2276 337.861 54.1445 334.411 50.9511C327.459 44.516 320.757 37.3933 320.757 24.84H318.757ZM346.707 73.07C346.707 76.1968 346.016 78.1142 344.972 79.251C343.944 80.3696 342.409 80.91 340.297 80.91V82.91C342.735 82.91 344.905 82.2804 346.445 80.604C347.968 78.9458 348.707 76.4432 348.707 73.07H346.707ZM340.297 80.91C338.185 80.91 336.65 80.3696 335.622 79.251C334.578 78.1142 333.887 76.1968 333.887 73.07H331.887C331.887 76.4432 332.626 78.9458 334.149 80.604C335.689 82.2804 337.859 82.91 340.297 82.91V80.91ZM333.887 73.07V66.57H331.887V73.07H333.887ZM332.887 65.57H319.367V67.57H332.887V65.57ZM318.367 66.57V72.16H320.367V66.57H318.367ZM318.367 72.16C318.367 79.5941 320.225 85.591 324.025 89.7357C327.837 93.8948 333.467 96.04 340.687 96.04V94.04C333.867 94.04 328.837 92.0252 325.499 88.3843C322.148 84.729 320.367 79.2859 320.367 72.16H318.367ZM340.687 96.04C347.907 96.04 353.537 93.8948 357.349 89.7357C361.148 85.591 363.007 79.5941 363.007 72.16H361.007C361.007 79.2859 359.225 84.729 355.875 88.3843C352.537 92.0252 347.507 94.04 340.687 94.04V96.04ZM363.007 72.16C363.007 58.7133 355.734 51.081 348.711 44.5811C345.174 41.307 341.769 38.3776 339.213 35.0931C336.688 31.8476 335.057 28.3283 335.057 23.93H333.057C333.057 28.8916 334.919 32.8312 337.635 36.3213C340.32 39.7724 343.903 42.8555 347.353 46.0489C354.305 52.484 361.007 59.6067 361.007 72.16H363.007ZM335.057 23.93C335.057 20.7837 335.691 18.8242 336.687 17.6561C337.652 16.5232 339.111 15.96 341.207 15.96V13.96C338.753 13.96 336.637 14.6318 335.165 16.3588C333.723 18.0508 333.057 20.5763 333.057 23.93H335.057ZM341.207 15.96C343.303 15.96 344.762 16.5232 345.727 17.6561C346.723 18.8242 347.357 20.7837 347.357 23.93H349.357C349.357 20.5763 348.691 18.0508 347.249 16.3588C345.777 14.6318 343.661 13.96 341.207 13.96V15.96ZM347.357 23.93V27.7H349.357V23.93H347.357ZM348.357 28.7H361.877V26.7H348.357V28.7ZM362.877 27.7V24.84H360.877V27.7H362.877ZM362.877 24.84C362.877 17.4101 361.053 11.4147 357.305 7.26933C353.542 3.10712 347.975 0.96 340.817 0.96V2.96C347.569 2.96 352.532 4.97287 355.821 8.61067C359.126 12.2653 360.877 17.7099 360.877 24.84H362.877ZM340.817 0.96C333.659 0.96 328.092 3.10712 324.329 7.26933C320.581 11.4147 318.757 17.4101 318.757 24.84H320.757C320.757 17.7099 322.508 12.2653 325.812 8.61067C329.102 4.97287 334.065 2.96 340.817 2.96V0.96Z" fill="#E2E2E2"/>
</svg>
