<svg width="250" height="104" viewBox="0 0 250 104" fill="none" xmlns="http://www.w3.org/2000/svg">
<path d="M53.95 100.33C112.758 99.8478 112.096 60.8315 153.811 29.9862C180.124 7.67889 216.659 14.704 230.124 45.6642C230.124 45.6642 235.482 62.7147 230.42 71.5272C227.934 75.1083 224.91 78.2682 221.38 80.9174C217.827 83.5825 214.558 86.2732 211.935 89.8064C211.527 90.365 210.948 90.8182 210.407 91.2555C208.462 92.8163 207.659 92.8099 205.734 91.1853C203.894 94.0483 204.218 97.8912 206.348 100.419C207.109 101.338 207.694 101.268 208.538 100.588C211.709 98.0731 214.873 95.5421 218.152 93.177C218.989 92.5546 220.253 92.1875 221.303 92.229C224.531 92.3854 227.25 91.3321 229.745 89.3756C232.664 87.1158 235.533 84.7762 238.617 82.7845C240.655 81.4695 243.048 80.7226 245.544 79.5991C242.084 78.5873 238.729 78.4469 235.227 79.0565C239.251 75.2551 244.007 72.8166 249.154 71.0452C249.183 70.8537 249.202 70.6558 249.218 70.4739C247.518 70.0206 245.815 69.577 243.975 69.095C250.867 54.5661 248.676 40.5893 240.973 27.0083C244.223 41.9043 244.312 56.3758 235.644 69.7493C236.179 68.7375 242.205 56.8897 241.368 41.1606C240.931 32.929 240.206 24.9943 233.199 15.2274C233.623 15.9264 237.14 22.061 236.8 31.6491C232.98 13.3347 223.439 6.8618 222.847 6.47878C227.399 10.4781 229.733 18.9299 229.809 19.2203C225.044 8.0619 213.982 2.48906 213.297 2.15712C219.676 6.97031 221.542 11.1324 221.542 11.1324L221.583 11.1739C201.169 -4.50412 167.445 -4.92862 141.829 18.5788C99.6305 55.4693 118.517 77.6075 69.7997 95.3729C69.7997 95.3729 69.7933 95.3729 69.7869 95.3793C69.4559 95.4655 63.8755 96.8699 62.4653 93.4068C62.4653 93.4068 61.6058 97.7093 56.2833 99.6882C56.1082 99.752 55.9172 99.8222 55.7262 99.8797L53.95 100.33ZM235.593 69.8195C235.599 69.8068 235.599 69.7908 235.606 69.7781V69.8068C235.606 69.8004 235.612 69.8004 235.619 69.794C235.612 69.8164 235.606 69.8227 235.606 69.8227H235.593V69.8195Z" fill="url(#paint0_linear)"/>
<path d="M20.3406 58.8975C20.4902 58.8401 20.6334 58.7762 20.7799 58.7124C20.9995 59.2454 21.2287 59.7753 21.4197 60.3179C23.3806 65.7694 26.5162 70.2921 31.982 72.6381C33.911 73.4712 36.1648 73.5382 38.2595 74.0074C38.8516 74.1319 39.6378 74.2563 39.9402 74.6649C41.6624 77.0076 41.898 79.6472 41.2804 82.5677C38.7847 79.9856 38.7942 79.6536 35.0921 79.5994C30.976 79.5355 28.3275 77.5024 26.0514 74.467C22.5625 69.8293 20.9327 64.5502 20.3406 58.8975Z" fill="url(#paint1_linear)"/>
<path d="M229.659 58.8975C229.51 58.8401 229.367 58.7762 229.22 58.7124C229 59.2454 228.771 59.7753 228.58 60.3179C226.619 65.7694 223.484 70.2921 218.018 72.6381C216.089 73.4712 213.835 73.5382 211.741 74.0074C211.148 74.1319 210.362 74.2563 210.06 74.6649C208.338 77.0076 208.102 79.6472 208.72 82.5677C211.215 79.9856 211.206 79.6536 214.908 79.5994C219.024 79.5355 221.672 77.5024 223.949 74.467C227.437 69.8293 229.067 64.5502 229.659 58.8975Z" fill="url(#paint2_linear)"/>
<path d="M157.742 94.7603C157.742 94.7603 165.799 99.9948 182.018 101.744C198.237 103.493 203.467 101.744 203.467 101.744C203.467 101.744 193.424 104.964 182.018 103.598C170.612 102.232 159.999 97.2243 157.742 94.7603Z" fill="url(#paint3_linear)"/>
<path d="M92.258 94.7603C92.258 94.7603 84.201 99.9948 67.982 101.744C51.763 103.493 46.5328 101.744 46.5328 101.744C46.5328 101.744 56.5762 104.964 67.982 103.598C79.3878 102.232 90.001 97.2243 92.258 94.7603Z" fill="url(#paint4_linear)"/>
<path d="M194.274 99.8798C194.083 99.8223 193.892 99.7521 193.717 99.6883C188.397 97.7094 187.535 93.4068 187.535 93.4068C186.124 96.8699 180.544 95.4623 180.213 95.3794C180.207 95.373 180.2 95.373 180.2 95.373C131.483 77.6076 150.369 55.4726 108.171 18.5789C82.5553 -4.92855 48.8345 -4.50724 28.4167 11.174L28.4581 11.1325C28.4581 11.1325 30.3267 6.97039 36.7029 2.15719C36.0184 2.48914 24.9564 8.06517 20.191 19.2204C20.2674 18.93 22.6008 10.4813 27.1529 6.47886C26.5608 6.86187 17.0204 13.3316 13.2004 31.6492C12.863 22.0611 16.3774 15.9265 16.8008 15.2275C9.7943 24.9911 9.0685 32.9291 8.63239 41.1607C7.79518 56.8898 13.818 68.7408 14.356 69.7494C5.68783 56.3727 5.78014 41.9012 9.0303 27.0084C1.32669 40.5894 -0.863434 54.5661 6.02844 69.0951C4.18848 69.5771 2.48223 70.0207 0.785522 70.4739C0.798256 70.6591 0.820539 70.857 0.849189 71.0453C5.99342 72.8199 10.7493 75.2552 14.7762 79.0566C11.2745 78.4502 7.91933 78.5906 4.45907 79.5992C6.95478 80.7227 9.34864 81.4728 11.386 82.7846C14.4738 84.7763 17.3419 87.1159 20.2579 89.3756C22.7536 91.3322 25.4721 92.3855 28.7 92.2291C29.7505 92.1876 31.0111 92.5546 31.8515 93.177C35.1271 95.5453 38.2913 98.0732 41.4651 100.588C42.3118 101.268 42.8944 101.338 43.6552 100.419C45.7848 97.8881 46.1064 94.0452 44.2696 91.1854C42.3469 92.81 41.5415 92.8164 39.5965 91.2556C39.0553 90.8183 38.476 90.3651 38.0685 89.8065C35.4454 86.2732 32.1762 83.5826 28.6236 80.9174C25.0933 78.2683 22.0692 75.1084 19.583 71.5272C14.5215 62.7147 19.879 45.6643 19.879 45.6643C33.3476 14.7009 69.8793 7.67896 96.1926 29.9863C137.907 60.8284 137.241 99.8478 196.053 100.33C195.407 100.212 194.815 100.055 194.274 99.8798ZM14.391 69.8196C14.391 69.8196 14.3846 69.8132 14.3783 69.7909C14.3846 69.7973 14.391 69.7973 14.391 69.8037V69.7749C14.3974 69.7877 14.3974 69.8037 14.4037 69.8164H14.391V69.8196Z" fill="url(#paint5_linear)"/>
<defs>
<linearGradient id="paint0_linear" x1="115.408" y1="77.4455" x2="61.3478" y2="96.2602" gradientUnits="userSpaceOnUse">
<stop stop-color="#EB5757"/>
<stop offset="1" stop-color="#451028"/>
</linearGradient>
<linearGradient id="paint1_linear" x1="40.4232" y1="62.4309" x2="29.9435" y2="71.4312" gradientUnits="userSpaceOnUse">
<stop stop-color="#CC0808"/>
<stop offset="1" stop-color="#451028"/>
</linearGradient>
<linearGradient id="paint2_linear" x1="223.532" y1="73.6521" x2="200.549" y2="58.2739" gradientUnits="userSpaceOnUse">
<stop stop-color="#EB5757"/>
<stop offset="1" stop-color="#451028"/>
</linearGradient>
<linearGradient id="paint3_linear" x1="174.122" y1="93.6531" x2="154.146" y2="79.3266" gradientUnits="userSpaceOnUse">
<stop stop-color="#EB5757"/>
<stop offset="1" stop-color="#451028"/>
</linearGradient>
<linearGradient id="paint4_linear" x1="85.8483" y1="121.818" x2="75.4374" y2="106.984" gradientUnits="userSpaceOnUse">
<stop stop-color="#CC0808"/>
<stop offset="1" stop-color="#451028"/>
</linearGradient>
<linearGradient id="paint5_linear" x1="152.555" y1="58.7991" x2="49.9219" y2="50.3063" gradientUnits="userSpaceOnUse">
<stop stop-color="#EB5757"/>
<stop offset="1" stop-color="#451028"/>
</linearGradient>
</defs>
</svg>
