<svg width="90" height="37" viewBox="0 0 90 37" fill="none" xmlns="http://www.w3.org/2000/svg">
<path d="M69.8144 36.1359C69.746 36.1154 69.6776 36.0902 69.6149 36.0674C67.7095 35.3591 67.4004 33.8193 67.4004 33.8193C66.8953 35.0587 64.8964 34.555 64.7778 34.5252C64.7755 34.523 64.7732 34.523 64.7732 34.523C47.3222 28.1648 54.0875 20.2428 38.9718 7.03876C29.7959 -1.37442 17.7168 -1.22364 10.403 4.38858L10.4178 4.37373C10.4178 4.37373 11.0872 2.88414 13.3712 1.16153C13.126 1.28033 9.16348 3.27596 7.45647 7.26837C7.48383 7.16442 8.31967 4.1407 9.95028 2.70823C9.73819 2.84531 6.32073 5.16079 4.95239 11.7166C4.83151 8.28503 6.0904 6.08949 6.24206 5.83932C3.73227 9.33368 3.47229 12.1746 3.31607 15.1207C3.01617 20.75 5.1736 24.9915 5.36631 25.3524C2.2613 20.565 2.29437 15.3857 3.4586 10.0556C0.699098 14.9162 -0.085422 19.9184 2.38331 25.1183C1.72422 25.2907 1.11302 25.4495 0.505249 25.6117C0.50981 25.678 0.517792 25.7488 0.528055 25.8162C2.37077 26.4513 4.07436 27.3229 5.51683 28.6834C4.26251 28.4664 3.06064 28.5167 1.82115 28.8776C2.71513 29.2797 3.57263 29.5482 4.30242 30.0177C5.4085 30.7305 6.43591 31.5678 7.48041 32.3765C8.3744 33.0768 9.34821 33.4538 10.5045 33.3978C10.8808 33.3829 11.3323 33.5143 11.6334 33.737C12.8067 34.5847 13.9402 35.4894 15.077 36.3895C15.3804 36.6328 15.589 36.658 15.8616 36.329C16.6244 35.4231 16.7396 34.0478 16.0816 33.0242C15.3929 33.6057 15.1044 33.608 14.4077 33.0494C14.2138 32.8929 14.0063 32.7307 13.8603 32.5308C12.9207 31.2662 11.7497 30.3032 10.4771 29.3494C9.21251 28.4013 8.12924 27.2704 7.23867 25.9887C5.42561 22.8348 7.34472 16.7325 7.34472 16.7325C12.1693 5.65084 25.2553 3.13774 34.6809 11.1214C49.6233 22.1596 49.385 36.1245 70.4519 36.297C70.2204 36.2547 70.0083 36.1987 69.8144 36.1359ZM5.37886 25.3776C5.37886 25.3776 5.37657 25.3753 5.37429 25.3673C5.37657 25.3696 5.37886 25.3696 5.37886 25.3718V25.3616C5.38114 25.3661 5.38113 25.3718 5.38342 25.3764H5.37886V25.3776Z" fill="url(#paint0_linear)"/>
<path d="M19.5493 36.297C40.615 36.1245 40.3778 22.1608 55.3202 11.1214C64.7459 3.13776 77.833 5.65201 82.6564 16.7325C82.6564 16.7325 84.5755 22.8348 82.7625 25.9887C81.8719 27.2704 80.7886 28.4013 79.524 29.3494C78.2515 30.3033 77.0804 31.2662 76.1408 32.5308C75.9948 32.7307 75.7873 32.8929 75.5935 33.0494C74.8967 33.608 74.6094 33.6057 73.9195 33.0243C73.2604 34.0489 73.3767 35.4243 74.1396 36.329C74.4121 36.658 74.6219 36.6329 74.9241 36.3895C76.0598 35.4894 77.1933 34.5835 78.3678 33.7371C78.6677 33.5143 79.1204 33.383 79.4967 33.3978C80.6529 33.4538 81.6267 33.0768 82.5207 32.3766C83.5664 31.5678 84.5938 30.7305 85.6987 30.0177C86.4285 29.5471 87.286 29.2797 88.18 28.8776C86.9405 28.5155 85.7386 28.4653 84.4843 28.6835C85.9256 27.323 87.6292 26.4502 89.4731 25.8162C89.4834 25.7477 89.4902 25.6769 89.4959 25.6118C88.887 25.4495 88.2769 25.2908 87.6178 25.1183C90.0866 19.9184 89.302 14.9162 86.5425 10.0557C87.7068 15.3869 87.7387 20.5661 84.6337 25.3525C84.8253 24.9903 86.9838 20.75 86.6839 15.1207C86.5277 12.1747 86.2677 9.33485 83.7579 5.83935C83.9096 6.08952 85.1696 8.28506 85.0476 11.7166C83.6793 5.16196 80.2618 2.84533 80.0497 2.70825C81.6803 4.13958 82.5162 7.16444 82.5435 7.26839C80.8365 3.27484 76.874 1.28035 76.6288 1.16155C78.914 2.88417 79.5822 4.37375 79.5822 4.37375L79.597 4.3886C72.2843 -1.22247 60.2041 -1.3744 51.0281 7.03878C35.9124 20.2417 42.6778 28.1648 25.2268 34.523C25.2268 34.523 25.2245 34.523 25.2222 34.5253C25.1036 34.5561 23.1047 35.0587 22.5995 33.8193C22.5995 33.8193 22.2917 35.3592 20.3851 36.0674C20.3224 36.0903 20.254 36.1154 20.1855 36.136L19.5493 36.297ZM84.6154 25.3776C84.6177 25.373 84.6177 25.3673 84.62 25.3627V25.373C84.62 25.3707 84.6223 25.3707 84.6246 25.3684C84.6223 25.3764 84.62 25.3787 84.62 25.3787H84.6154V25.3776Z" fill="url(#paint1_linear)"/>
<defs>
<linearGradient id="paint0_linear" x1="54.8704" y1="21.4334" x2="18.1068" y2="18.3885" gradientUnits="userSpaceOnUse">
<stop stop-color="#EB5757"/>
<stop offset="1" stop-color="#451028"/>
</linearGradient>
<linearGradient id="paint1_linear" x1="41.564" y1="28.1069" x2="22.2029" y2="34.8511" gradientUnits="userSpaceOnUse">
<stop stop-color="#EB5757"/>
<stop offset="1" stop-color="#451028"/>
</linearGradient>
</defs>
</svg>
