<svg width="344" height="210" viewBox="0 0 344 210" fill="none" xmlns="http://www.w3.org/2000/svg">
<path d="M16.33 23.93C16.33 20.8042 17.0206 18.8477 18.0729 17.6755C19.1058 16.525 20.6422 15.96 22.74 15.96V13.96C20.2878 13.96 18.1192 14.63 16.5846 16.3395C15.0694 18.0272 14.33 20.5558 14.33 23.93H16.33ZM22.74 15.96C24.8378 15.96 26.3742 16.525 27.4071 17.6755C28.4594 18.8477 29.15 20.8042 29.15 23.93H31.15C31.15 20.5558 30.4106 18.0272 28.8954 16.3395C27.3608 14.63 25.1922 13.96 22.74 13.96V15.96ZM29.15 23.93V73.07H31.15V23.93H29.15ZM29.15 73.07C29.15 76.1958 28.4594 78.1523 27.4071 79.3245C26.3742 80.475 24.8378 81.04 22.74 81.04V83.04C25.1922 83.04 27.3608 82.37 28.8954 80.6605C30.4106 78.9727 31.15 76.4442 31.15 73.07H29.15ZM22.74 81.04C20.6422 81.04 19.1058 80.475 18.0729 79.3245C17.0206 78.1523 16.33 76.1958 16.33 73.07H14.33C14.33 76.4442 15.0694 78.9727 16.5846 80.6605C18.1192 82.37 20.2878 83.04 22.74 83.04V81.04ZM16.33 73.07V23.93H14.33V73.07H16.33ZM0.0300002 72.16C0.0300002 79.6069 1.9926 85.6046 5.89198 89.7456C9.80013 93.8958 15.5208 96.04 22.74 96.04V94.04C15.9192 94.04 10.7849 92.0242 7.34802 88.3744C3.9024 84.7154 2.03 79.2731 2.03 72.16H0.0300002ZM22.74 96.04C29.9592 96.04 35.6799 93.8958 39.588 89.7456C43.4874 85.6046 45.45 79.6069 45.45 72.16H43.45C43.45 79.2731 41.5776 84.7154 38.132 88.3744C34.6951 92.0242 29.5608 94.04 22.74 94.04V96.04ZM45.45 72.16V24.84H43.45V72.16H45.45ZM45.45 24.84C45.45 17.3931 43.4874 11.3954 39.588 7.25444C35.6799 3.1042 29.9592 0.96 22.74 0.96V2.96C29.5608 2.96 34.6951 4.9758 38.132 8.62555C41.5776 12.2846 43.45 17.7269 43.45 24.84H45.45ZM22.74 0.96C15.5208 0.96 9.80013 3.1042 5.89198 7.25444C1.9926 11.3954 0.0300002 17.3931 0.0300002 24.84H2.03C2.03 17.7269 3.9024 12.2846 7.34802 8.62555C10.7849 4.9758 15.9192 2.96 22.74 2.96V0.96ZM0.0300002 24.84V72.16H2.03V24.84H0.0300002ZM53.093 2.99999V1.99999H52.093V2.99999H53.093ZM95.733 2.99999H96.733V1.99999H95.733V2.99999ZM82.213 2.99999V1.99999H81.213V2.99999H82.213ZM67.393 2.99999H68.393V1.99999H67.393V2.99999ZM52.093 2.99999V72.29H54.093V2.99999H52.093ZM52.093 72.29C52.093 79.7241 53.9515 85.721 57.7508 89.8657C61.5633 94.0248 67.1928 96.17 74.413 96.17V94.17C67.5931 94.17 62.5626 92.1552 59.2251 88.5143C55.8745 84.859 54.093 79.4159 54.093 72.29H52.093ZM74.413 96.17C81.6331 96.17 87.2626 94.0248 91.0751 89.8657C94.8745 85.721 96.733 79.7241 96.733 72.29H94.733C94.733 79.4159 92.9515 84.859 89.6008 88.5143C86.2633 92.1552 81.2328 94.17 74.413 94.17V96.17ZM96.733 72.29V2.99999H94.733V72.29H96.733ZM95.733 1.99999H82.213V3.99999H95.733V1.99999ZM81.213 2.99999V73.2H83.213V2.99999H81.213ZM81.213 73.2C81.213 76.3268 80.5221 78.2442 79.4778 79.381C78.4502 80.4996 76.915 81.04 74.803 81.04V83.04C77.2409 83.04 79.4107 82.4104 80.9507 80.734C82.4739 79.0758 83.213 76.5732 83.213 73.2H81.213ZM74.803 81.04C72.6909 81.04 71.1557 80.4996 70.1282 79.381C69.0839 78.2442 68.393 76.3268 68.393 73.2H66.393C66.393 76.5732 67.1321 79.0758 68.6553 80.734C70.1952 82.4104 72.365 83.04 74.803 83.04V81.04ZM68.393 73.2V2.99999H66.393V73.2H68.393ZM67.393 1.99999H53.093V3.99999H67.393V1.99999ZM150 94V95H151.509L150.921 93.6104L150 94ZM138.95 49.54L138.525 48.6348L136.484 49.5928L138.564 50.4626L138.95 49.54ZM105.54 2.99999V1.99999H104.54V2.99999H105.54ZM105.54 94H104.54V95H105.54V94ZM119.84 94V95H120.84V94H119.84ZM119.84 56.95V55.95H118.84V56.95H119.84ZM135.44 94L134.491 94.3162L134.719 95H135.44V94ZM119.84 43.95H118.84V44.95H119.84V43.95ZM119.84 16V15H118.84V16H119.84ZM150.921 93.6104C149.578 90.4359 149.44 87.371 149.44 82.95H147.44C147.44 87.369 147.562 90.8041 149.079 94.3896L150.921 93.6104ZM149.44 82.95V68.91H147.44V82.95H149.44ZM149.44 68.91C149.44 59.3107 147.069 51.8515 139.336 48.6174L138.564 50.4626C145.13 53.2085 147.44 59.5293 147.44 68.91H149.44ZM139.375 50.4452C146.227 47.2286 149.31 40.6572 149.31 31.08H147.31C147.31 40.2228 144.412 45.8714 138.525 48.6348L139.375 50.4452ZM149.31 31.08V23.93H147.31V31.08H149.31ZM149.31 23.93C149.31 16.7798 147.69 11.2382 143.983 7.49622C140.274 3.75264 134.665 1.99999 127.12 1.99999V3.99999C134.394 3.99999 139.381 5.69235 142.562 8.90377C145.745 12.1168 147.31 17.0402 147.31 23.93H149.31ZM127.12 1.99999H105.54V3.99999H127.12V1.99999ZM104.54 2.99999V94H106.54V2.99999H104.54ZM105.54 95H119.84V93H105.54V95ZM120.84 94V56.95H118.84V94H120.84ZM119.84 57.95H124.78V55.95H119.84V57.95ZM124.78 57.95C127.884 57.95 129.87 58.6932 131.129 60.2058C132.427 61.7669 133.14 64.3634 133.14 68.52H135.14C135.14 64.2266 134.423 61.0381 132.666 58.9267C130.869 56.7668 128.175 55.95 124.78 55.95V57.95ZM133.14 68.52V82.82H135.14V68.52H133.14ZM133.14 82.82C133.14 86.5398 133.27 88.8064 133.508 90.4541C133.749 92.1262 134.1 93.1422 134.491 94.3162L136.389 93.6838C136 92.5178 135.701 91.6488 135.487 90.1684C135.27 88.6636 135.14 86.5102 135.14 82.82H133.14ZM135.44 95H150V93H135.44V95ZM126.73 17C129.073 17 130.546 17.6516 131.481 18.8559C132.462 20.119 133.01 22.1844 133.01 25.36H135.01C135.01 22.0356 134.452 19.421 133.061 17.6291C131.624 15.7784 129.457 15 126.73 15V17ZM133.01 25.36V34.33H135.01V25.36H133.01ZM133.01 34.33C133.01 37.846 132.222 39.939 131.008 41.1668C129.798 42.39 127.97 42.95 125.43 42.95V44.95C128.219 44.95 130.682 44.34 132.43 42.5732C134.173 40.811 135.01 38.094 135.01 34.33H133.01ZM125.43 42.95H119.84V44.95H125.43V42.95ZM120.84 43.95V16H118.84V43.95H120.84ZM119.84 17H126.73V15H119.84V17ZM2.2 116V115H1.2V116H2.2ZM2.2 207H1.2V208H2.2V207ZM16.5 207V208H17.5V207H16.5ZM16.5 172.81V171.81H15.5V172.81H16.5ZM16.5 159.81H15.5V160.81H16.5V159.81ZM16.5 129V128H15.5V129H16.5ZM23.26 115H2.2V117H23.26V115ZM1.2 116V207H3.2V116H1.2ZM2.2 208H16.5V206H2.2V208ZM17.5 207V172.81H15.5V207H17.5ZM16.5 173.81H23.26V171.81H16.5V173.81ZM23.26 173.81C30.5918 173.81 36.2259 171.773 40.0142 167.707C43.7906 163.653 45.58 157.745 45.58 150.32H43.58C43.58 157.455 41.8594 162.792 38.5508 166.343C35.2541 169.882 30.2282 171.81 23.26 171.81V173.81ZM45.58 150.32V138.49H43.58V150.32H45.58ZM45.58 138.49C45.58 131.065 43.7906 125.157 40.0142 121.103C36.2259 117.037 30.5918 115 23.26 115V117C30.2282 117 35.2541 118.928 38.5508 122.467C41.8594 126.018 43.58 131.355 43.58 138.49H45.58ZM23.26 130C25.4006 130 26.8142 130.489 27.7293 131.517C28.6722 132.577 29.28 134.419 29.28 137.58H31.28C31.28 134.241 30.6528 131.793 29.2232 130.188C27.7658 128.55 25.6694 128 23.26 128V130ZM29.28 137.58V151.23H31.28V137.58H29.28ZM29.28 151.23C29.28 154.391 28.6722 156.233 27.7293 157.293C26.8142 158.32 25.4006 158.81 23.26 158.81V160.81C25.6694 160.81 27.7658 160.26 29.2232 158.622C30.6528 157.017 31.28 154.569 31.28 151.23H29.28ZM23.26 158.81H16.5V160.81H23.26V158.81ZM17.5 159.81V129H15.5V159.81H17.5ZM16.5 130H23.26V128H16.5V130ZM95.6639 207V208H97.1728L96.5849 206.61L95.6639 207ZM84.6139 162.54L84.189 161.635L82.1481 162.593L84.2281 163.463L84.6139 162.54ZM51.2039 116V115H50.2039V116H51.2039ZM51.2039 207H50.2039V208H51.2039V207ZM65.5039 207V208H66.5039V207H65.5039ZM65.5039 169.95V168.95H64.5039V169.95H65.5039ZM81.1039 207L80.1552 207.316L80.3831 208H81.1039V207ZM65.5039 156.95H64.5039V157.95H65.5039V156.95ZM65.5039 129V128H64.5039V129H65.5039ZM96.5849 206.61C95.2418 203.436 95.1039 200.371 95.1039 195.95H93.1039C93.1039 200.369 93.226 203.804 94.7429 207.39L96.5849 206.61ZM95.1039 195.95V181.91H93.1039V195.95H95.1039ZM95.1039 181.91C95.1039 172.311 92.7333 164.851 84.9997 161.617L84.2281 163.463C90.7945 166.209 93.1039 172.529 93.1039 181.91H95.1039ZM85.0388 163.445C91.8915 160.229 94.9739 153.657 94.9739 144.08H92.9739C92.9739 153.223 90.0763 158.871 84.189 161.635L85.0388 163.445ZM94.9739 144.08V136.93H92.9739V144.08H94.9739ZM94.9739 136.93C94.9739 129.78 93.3538 124.238 89.6468 120.496C85.9382 116.753 80.3293 115 72.7839 115V117C80.0585 117 85.0446 118.692 88.226 121.904C91.409 125.117 92.9739 130.04 92.9739 136.93H94.9739ZM72.7839 115H51.2039V117H72.7839V115ZM50.2039 116V207H52.2039V116H50.2039ZM51.2039 208H65.5039V206H51.2039V208ZM66.5039 207V169.95H64.5039V207H66.5039ZM65.5039 170.95H70.4439V168.95H65.5039V170.95ZM70.4439 170.95C73.5484 170.95 75.5344 171.693 76.7926 173.206C78.0912 174.767 78.8039 177.363 78.8039 181.52H80.8039C80.8039 177.227 80.0866 174.038 78.3302 171.927C76.5334 169.767 73.8394 168.95 70.4439 168.95V170.95ZM78.8039 181.52V195.82H80.8039V181.52H78.8039ZM78.8039 195.82C78.8039 199.54 78.9339 201.806 79.1717 203.454C79.413 205.126 79.7639 206.142 80.1552 207.316L82.0526 206.684C81.6639 205.518 81.3648 204.649 81.1512 203.168C80.934 201.664 80.8039 199.51 80.8039 195.82H78.8039ZM81.1039 208H95.6639V206H81.1039V208ZM72.3939 130C74.7368 130 76.2102 130.652 77.1454 131.856C78.1263 133.119 78.6739 135.184 78.6739 138.36H80.6739C80.6739 135.036 80.1165 132.421 78.725 130.629C77.2877 128.778 75.121 128 72.3939 128V130ZM78.6739 138.36V147.33H80.6739V138.36H78.6739ZM78.6739 147.33C78.6739 150.846 77.8862 152.939 76.6717 154.167C75.4618 155.39 73.6346 155.95 71.0939 155.95V157.95C73.8833 157.95 76.3461 157.34 78.0936 155.573C79.8367 153.811 80.6739 151.094 80.6739 147.33H78.6739ZM71.0939 155.95H65.5039V157.95H71.0939V155.95ZM66.5039 156.95V129H64.5039V156.95H66.5039ZM65.5039 130H72.3939V128H65.5039V130ZM117.639 136.93C117.639 133.804 118.329 131.848 119.381 130.676C120.414 129.525 121.951 128.96 124.049 128.96V126.96C121.596 126.96 119.428 127.63 117.893 129.339C116.378 131.027 115.639 133.556 115.639 136.93H117.639ZM124.049 128.96C126.146 128.96 127.683 129.525 128.716 130.676C129.768 131.848 130.459 133.804 130.459 136.93H132.459C132.459 133.556 131.719 131.027 130.204 129.339C128.669 127.63 126.501 126.96 124.049 126.96V128.96ZM130.459 136.93V186.07H132.459V136.93H130.459ZM130.459 186.07C130.459 189.196 129.768 191.152 128.716 192.324C127.683 193.475 126.146 194.04 124.049 194.04V196.04C126.501 196.04 128.669 195.37 130.204 193.661C131.719 191.973 132.459 189.444 132.459 186.07H130.459ZM124.049 194.04C121.951 194.04 120.414 193.475 119.381 192.324C118.329 191.152 117.639 189.196 117.639 186.07H115.639C115.639 189.444 116.378 191.973 117.893 193.661C119.428 195.37 121.596 196.04 124.049 196.04V194.04ZM117.639 186.07V136.93H115.639V186.07H117.639ZM101.339 185.16C101.339 192.607 103.301 198.605 107.201 202.746C111.109 206.896 116.829 209.04 124.049 209.04V207.04C117.228 207.04 112.093 205.024 108.657 201.374C105.211 197.715 103.339 192.273 103.339 185.16H101.339ZM124.049 209.04C131.268 209.04 136.988 206.896 140.897 202.746C144.796 198.605 146.759 192.607 146.759 185.16H144.759C144.759 192.273 142.886 197.715 139.441 201.374C136.004 205.024 130.869 207.04 124.049 207.04V209.04ZM146.759 185.16V137.84H144.759V185.16H146.759ZM146.759 137.84C146.759 130.393 144.796 124.395 140.897 120.254C136.988 116.104 131.268 113.96 124.049 113.96V115.96C130.869 115.96 136.004 117.976 139.441 121.626C142.886 125.285 144.759 130.727 144.759 137.84H146.759ZM124.049 113.96C116.829 113.96 111.109 116.104 107.201 120.254C103.301 124.395 101.339 130.393 101.339 137.84H103.339C103.339 130.727 105.211 125.285 108.657 121.626C112.093 117.976 117.228 115.96 124.049 115.96V113.96ZM101.339 137.84V185.16H103.339V137.84H101.339ZM183.002 173.07V172.07H182.002V173.07H183.002ZM183.002 146.68H182.002V147.68H183.002V146.68ZM196.522 146.68V147.68H197.522V146.68H196.522ZM196.522 173.07H197.522V172.07H196.522V173.07ZM182.002 173.07V186.07H184.002V173.07H182.002ZM182.002 186.07C182.002 189.197 181.311 191.114 180.266 192.251C179.239 193.37 177.704 193.91 175.592 193.91V195.91C178.03 195.91 180.199 195.28 181.739 193.604C183.262 191.946 184.002 189.443 184.002 186.07H182.002ZM175.592 193.91C173.48 193.91 171.944 193.37 170.917 192.251C169.872 191.114 169.182 189.197 169.182 186.07H167.182C167.182 189.443 167.921 191.946 169.444 193.604C170.984 195.28 173.154 195.91 175.592 195.91V193.91ZM169.182 186.07V136.93H167.182V186.07H169.182ZM169.182 136.93C169.182 133.804 169.872 131.848 170.924 130.676C171.957 129.525 173.494 128.96 175.592 128.96V126.96C173.139 126.96 170.971 127.63 169.436 129.339C167.921 131.027 167.182 133.556 167.182 136.93H169.182ZM175.592 128.96C177.689 128.96 179.226 129.525 180.259 130.676C181.311 131.848 182.002 133.804 182.002 136.93H184.002C184.002 133.556 183.262 131.027 181.747 129.339C180.212 127.63 178.044 126.96 175.592 126.96V128.96ZM182.002 136.93V146.68H184.002V136.93H182.002ZM183.002 147.68H196.522V145.68H183.002V147.68ZM197.522 146.68V137.84H195.522V146.68H197.522ZM197.522 137.84C197.522 130.406 195.663 124.409 191.864 120.264C188.051 116.105 182.422 113.96 175.202 113.96V115.96C182.021 115.96 187.052 117.975 190.389 121.616C193.74 125.271 195.522 130.714 195.522 137.84H197.522ZM175.202 113.96C167.981 113.96 162.352 116.105 158.539 120.264C154.74 124.409 152.882 130.406 152.882 137.84H154.882C154.882 130.714 156.663 125.271 160.014 121.616C163.351 117.975 168.382 115.96 175.202 115.96V113.96ZM152.882 137.84V185.16H154.882V137.84H152.882ZM152.882 185.16C152.882 192.594 154.74 198.591 158.539 202.736C162.352 206.895 167.981 209.04 175.202 209.04V207.04C168.382 207.04 163.351 205.025 160.014 201.384C156.663 197.729 154.882 192.286 154.882 185.16H152.882ZM175.202 209.04C182.422 209.04 188.051 206.895 191.864 202.736C195.663 198.591 197.522 192.594 197.522 185.16H195.522C195.522 192.286 193.74 197.729 190.389 201.384C187.052 205.025 182.021 207.04 175.202 207.04V209.04ZM197.522 185.16V173.07H195.522V185.16H197.522ZM196.522 172.07H183.002V174.07H196.522V172.07ZM219.498 129V128H218.498V129H219.498ZM244.198 129V130H245.198V129H244.198ZM244.198 116H245.198V115H244.198V116ZM205.198 116V115H204.198V116H205.198ZM205.198 207H204.198V208H205.198V207ZM244.198 207V208H245.198V207H244.198ZM244.198 194H245.198V193H244.198V194ZM219.498 194H218.498V195H219.498V194ZM219.498 167.35V166.35H218.498V167.35H219.498ZM239.128 167.35V168.35H240.128V167.35H239.128ZM239.128 154.35H240.128V153.35H239.128V154.35ZM219.498 154.35H218.498V155.35H219.498V154.35ZM219.498 130H244.198V128H219.498V130ZM245.198 129V116H243.198V129H245.198ZM244.198 115H205.198V117H244.198V115ZM204.198 116V207H206.198V116H204.198ZM205.198 208H244.198V206H205.198V208ZM245.198 207V194H243.198V207H245.198ZM244.198 193H219.498V195H244.198V193ZM220.498 194V167.35H218.498V194H220.498ZM219.498 168.35H239.128V166.35H219.498V168.35ZM240.128 167.35V154.35H238.128V167.35H240.128ZM239.128 153.35H219.498V155.35H239.128V153.35ZM220.498 154.35V129H218.498V154.35H220.498ZM264.369 179.57H265.369V178.57H264.369V179.57ZM250.849 179.57V178.57H249.849V179.57H250.849ZM279.839 140.7H278.839V141.7H279.839V140.7ZM293.359 140.7V141.7H294.359V140.7H293.359ZM250.239 137.84C250.239 151.287 257.513 158.919 264.535 165.419C268.073 168.693 271.477 171.622 274.033 174.907C276.558 178.152 278.189 181.672 278.189 186.07H280.189C280.189 181.108 278.327 177.169 275.611 173.679C272.926 170.228 269.344 167.144 265.894 163.951C258.941 157.516 252.239 150.393 252.239 137.84H250.239ZM278.189 186.07C278.189 189.197 277.498 191.114 276.454 192.251C275.427 193.37 273.891 193.91 271.779 193.91V195.91C274.217 195.91 276.387 195.28 277.927 193.604C279.45 191.946 280.189 189.443 280.189 186.07H278.189ZM271.779 193.91C269.667 193.91 268.132 193.37 267.105 192.251C266.06 191.114 265.369 189.197 265.369 186.07H263.369C263.369 189.443 264.108 191.946 265.632 193.604C267.172 195.28 269.341 195.91 271.779 195.91V193.91ZM265.369 186.07V179.57H263.369V186.07H265.369ZM264.369 178.57H250.849V180.57H264.369V178.57ZM249.849 179.57V185.16H251.849V179.57H249.849ZM249.849 185.16C249.849 192.594 251.708 198.591 255.507 202.736C259.32 206.895 264.949 209.04 272.169 209.04V207.04C265.35 207.04 260.319 205.025 256.982 201.384C253.631 197.729 251.849 192.286 251.849 185.16H249.849ZM272.169 209.04C279.39 209.04 285.019 206.895 288.832 202.736C292.631 198.591 294.489 192.594 294.489 185.16H292.489C292.489 192.286 290.708 197.729 287.357 201.384C284.02 205.025 278.989 207.04 272.169 207.04V209.04ZM294.489 185.16C294.489 171.713 287.216 164.081 280.194 157.581C276.656 154.307 273.251 151.378 270.696 148.093C268.171 144.848 266.539 141.328 266.539 136.93H264.539C264.539 141.892 266.402 145.831 269.117 149.321C271.802 152.772 275.385 155.856 278.835 159.049C285.788 165.484 292.489 172.607 292.489 185.16H294.489ZM266.539 136.93C266.539 133.784 267.174 131.824 268.169 130.656C269.135 129.523 270.593 128.96 272.689 128.96V126.96C270.235 126.96 268.119 127.632 266.647 129.359C265.205 131.051 264.539 133.576 264.539 136.93H266.539ZM272.689 128.96C274.785 128.96 276.244 129.523 277.21 130.656C278.205 131.824 278.839 133.784 278.839 136.93H280.839C280.839 133.576 280.174 131.051 278.732 129.359C277.26 127.632 275.143 126.96 272.689 126.96V128.96ZM278.839 136.93V140.7H280.839V136.93H278.839ZM279.839 141.7H293.359V139.7H279.839V141.7ZM294.359 140.7V137.84H292.359V140.7H294.359ZM294.359 137.84C294.359 130.41 292.536 124.415 288.787 120.269C285.024 116.107 279.458 113.96 272.299 113.96V115.96C279.051 115.96 284.015 117.973 287.304 121.611C290.608 125.265 292.359 130.71 292.359 137.84H294.359ZM272.299 113.96C265.141 113.96 259.575 116.107 255.811 120.269C252.063 124.415 250.239 130.41 250.239 137.84H252.239C252.239 130.71 253.991 125.265 257.295 121.611C260.584 117.973 265.548 115.96 272.299 115.96V113.96ZM312.992 179.57H313.992V178.57H312.992V179.57ZM299.472 179.57V178.57H298.472V179.57H299.472ZM328.462 140.7H327.462V141.7H328.462V140.7ZM341.982 140.7V141.7H342.982V140.7H341.982ZM298.862 137.84C298.862 151.287 306.136 158.919 313.158 165.419C316.696 168.693 320.101 171.622 322.656 174.907C325.181 178.152 326.812 181.672 326.812 186.07H328.812C328.812 181.108 326.95 177.169 324.234 173.679C321.549 170.228 317.967 167.144 314.517 163.951C307.564 157.516 300.862 150.393 300.862 137.84H298.862ZM326.812 186.07C326.812 189.197 326.122 191.114 325.077 192.251C324.05 193.37 322.514 193.91 320.402 193.91V195.91C322.84 195.91 325.01 195.28 326.55 193.604C328.073 191.946 328.812 189.443 328.812 186.07H326.812ZM320.402 193.91C318.29 193.91 316.755 193.37 315.728 192.251C314.683 191.114 313.992 189.197 313.992 186.07H311.992C311.992 189.443 312.732 191.946 314.255 193.604C315.795 195.28 317.964 195.91 320.402 195.91V193.91ZM313.992 186.07V179.57H311.992V186.07H313.992ZM312.992 178.57H299.472V180.57H312.992V178.57ZM298.472 179.57V185.16H300.472V179.57H298.472ZM298.472 185.16C298.472 192.594 300.331 198.591 304.13 202.736C307.943 206.895 313.572 209.04 320.792 209.04V207.04C313.973 207.04 308.942 205.025 305.605 201.384C302.254 197.729 300.472 192.286 300.472 185.16H298.472ZM320.792 209.04C328.013 209.04 333.642 206.895 337.455 202.736C341.254 198.591 343.112 192.594 343.112 185.16H341.112C341.112 192.286 339.331 197.729 335.98 201.384C332.643 205.025 327.612 207.04 320.792 207.04V209.04ZM343.112 185.16C343.112 171.713 335.839 164.081 328.817 157.581C325.279 154.307 321.874 151.378 319.319 148.093C316.794 144.848 315.162 141.328 315.162 136.93H313.162C313.162 141.892 315.025 145.831 317.74 149.321C320.426 152.772 324.008 155.856 327.458 159.049C334.411 165.484 341.112 172.607 341.112 185.16H343.112ZM315.162 136.93C315.162 133.784 315.797 131.824 316.792 130.656C317.758 129.523 319.217 128.96 321.312 128.96V126.96C318.858 126.96 316.742 127.632 315.27 129.359C313.828 131.051 313.162 133.576 313.162 136.93H315.162ZM321.312 128.96C323.408 128.96 324.867 129.523 325.833 130.656C326.828 131.824 327.462 133.784 327.462 136.93H329.462C329.462 133.576 328.797 131.051 327.355 129.359C325.883 127.632 323.767 126.96 321.312 126.96V128.96ZM327.462 136.93V140.7H329.462V136.93H327.462ZM328.462 141.7H341.982V139.7H328.462V141.7ZM342.982 140.7V137.84H340.982V140.7H342.982ZM342.982 137.84C342.982 130.41 341.159 124.415 337.41 120.269C333.647 116.107 328.081 113.96 320.922 113.96V115.96C327.674 115.96 332.638 117.973 335.927 121.611C339.231 125.265 340.982 130.71 340.982 137.84H342.982ZM320.922 113.96C313.764 113.96 308.198 116.107 304.434 120.269C300.686 124.415 298.862 130.41 298.862 137.84H300.862C300.862 130.71 302.614 125.265 305.918 121.611C309.207 117.973 314.171 115.96 320.922 115.96V113.96Z" fill="#E2E2E2"/>
</svg>
