<svg width="200" height="73" viewBox="0 0 200 73" fill="none" xmlns="http://www.w3.org/2000/svg">
<path d="M7.845 8.745C7.845 7.68209 8.08028 7.04887 8.40894 6.68276C8.72788 6.32749 9.2111 6.14 9.91 6.14V5.14C9.0339 5.14 8.23462 5.38001 7.66481 6.01473C7.10472 6.63863 6.845 7.55791 6.845 8.745H7.845ZM9.91 6.14C10.6089 6.14 11.0921 6.32749 11.4111 6.68276C11.7397 7.04887 11.975 7.68209 11.975 8.745H12.975C12.975 7.55791 12.7153 6.63863 12.1552 6.01473C11.5854 5.38001 10.7861 5.14 9.91 5.14V6.14ZM11.975 8.745V25.755H12.975V8.745H11.975ZM11.975 25.755C11.975 26.8179 11.7397 27.4511 11.4111 27.8172C11.0921 28.1725 10.6089 28.36 9.91 28.36V29.36C10.7861 29.36 11.5854 29.12 12.1552 28.4853C12.7153 27.8614 12.975 26.9421 12.975 25.755H11.975ZM9.91 28.36C9.2111 28.36 8.72788 28.1725 8.40894 27.8172C8.08028 27.4511 7.845 26.8179 7.845 25.755H6.845C6.845 26.9421 7.10472 27.8614 7.66481 28.4853C8.23462 29.12 9.0339 29.36 9.91 29.36V28.36ZM7.845 25.755V8.745H6.845V25.755H7.845ZM1.895 25.44C1.895 28.0434 2.5813 30.1623 3.96599 31.6328C5.35506 33.1079 7.38039 33.86 9.91 33.86V32.86C7.57961 32.86 5.84744 32.1721 4.69401 30.9472C3.5362 29.7177 2.895 27.8766 2.895 25.44H1.895ZM9.91 33.86C12.4396 33.86 14.4649 33.1079 15.854 31.6328C17.2387 30.1623 17.925 28.0434 17.925 25.44H16.925C16.925 27.8766 16.2838 29.7177 15.126 30.9472C13.9726 32.1721 12.2404 32.86 9.91 32.86V33.86ZM17.925 25.44V9.06H16.925V25.44H17.925ZM17.925 9.06C17.925 6.45657 17.2387 4.33769 15.854 2.86722C14.4649 1.3921 12.4396 0.64 9.91 0.64V1.64C12.2404 1.64 13.9726 2.3279 15.126 3.55278C16.2838 4.78231 16.925 6.62343 16.925 9.06H17.925ZM9.91 0.64C7.38039 0.64 5.35506 1.3921 3.96599 2.86722C2.5813 4.33769 1.895 6.45657 1.895 9.06H2.895C2.895 6.62343 3.5362 4.78231 4.69401 3.55278C5.84744 2.3279 7.57961 1.64 9.91 1.64V0.64ZM1.895 9.06V25.44H2.895V9.06H1.895ZM20.4168 1.5V0.999998H19.9168V1.5H20.4168ZM35.1768 1.5H35.6768V0.999998H35.1768V1.5ZM30.4968 1.5V0.999998H29.9968V1.5H30.4968ZM25.3668 1.5H25.8668V0.999998H25.3668V1.5ZM19.9168 1.5V25.485H20.9168V1.5H19.9168ZM19.9168 25.485C19.9168 28.0821 20.566 30.2005 21.9157 31.6729C23.272 33.1524 25.2667 33.905 27.7968 33.905V32.905C25.4669 32.905 23.7716 32.2176 22.6529 30.9971C21.5276 29.7695 20.9168 27.9279 20.9168 25.485H19.9168ZM27.7968 33.905C30.3269 33.905 32.3216 33.1524 33.6779 31.6729C35.0275 30.2005 35.6768 28.0821 35.6768 25.485H34.6768C34.6768 27.9279 34.066 29.7695 32.9407 30.9971C31.822 32.2176 30.1267 32.905 27.7968 32.905V33.905ZM35.6768 25.485V1.5H34.6768V25.485H35.6768ZM35.1768 0.999998H30.4968V2H35.1768V0.999998ZM29.9968 1.5V25.8H30.9968V1.5H29.9968ZM29.9968 25.8C29.9968 26.8634 29.7614 27.4821 29.4367 27.8355C29.1204 28.1798 28.6378 28.36 27.9318 28.36V29.36C28.8008 29.36 29.6007 29.1352 30.1731 28.512C30.7372 27.8979 30.9968 26.9866 30.9968 25.8H29.9968ZM27.9318 28.36C27.2258 28.36 26.7432 28.1798 26.4269 27.8355C26.1022 27.4821 25.8668 26.8634 25.8668 25.8H24.8668C24.8668 26.9866 25.1264 27.8979 25.6905 28.512C26.2629 29.1352 27.0628 29.36 27.9318 29.36V28.36ZM25.8668 25.8V1.5H24.8668V25.8H25.8668ZM25.3668 0.999998H20.4168V2H25.3668V0.999998ZM53.9615 33V33.5H54.7159L54.422 32.8052L53.9615 33ZM50.1365 17.61L49.924 17.1574L48.9036 17.6364L49.9436 18.0713L50.1365 17.61ZM38.5715 1.5V0.999998H38.0715V1.5H38.5715ZM38.5715 33H38.0715V33.5H38.5715V33ZM43.5215 33V33.5H44.0215V33H43.5215ZM43.5215 20.175V19.675H43.0215V20.175H43.5215ZM48.9215 33L48.4471 33.1581L48.5611 33.5H48.9215V33ZM43.5215 15.675H43.0215V16.175H43.5215V15.675ZM43.5215 6V5.5H43.0215V6H43.5215ZM54.422 32.8052C53.9704 31.7379 53.9215 30.7055 53.9215 29.175H52.9215C52.9215 30.7045 52.9625 31.9221 53.501 33.1948L54.422 32.8052ZM53.9215 29.175V24.315H52.9215V29.175H53.9215ZM53.9215 24.315C53.9215 20.9754 53.0962 18.3057 50.3294 17.1487L49.9436 18.0713C52.1268 18.9843 52.9215 21.0846 52.9215 24.315H53.9215ZM50.3489 18.0626C52.7953 16.9143 53.8765 14.5686 53.8765 11.22H52.8765C52.8765 14.3514 51.8877 16.2357 49.924 17.1574L50.3489 18.0626ZM53.8765 11.22V8.745H52.8765V11.22H53.8765ZM53.8765 8.745C53.8765 6.24989 53.3114 4.28408 51.9879 2.94811C50.6637 1.61132 48.6742 0.999998 46.0415 0.999998V2C48.5388 2 50.2168 2.58118 51.2775 3.65189C52.339 4.72342 52.8765 6.38011 52.8765 8.745H53.8765ZM46.0415 0.999998H38.5715V2H46.0415V0.999998ZM38.0715 1.5V33H39.0715V1.5H38.0715ZM38.5715 33.5H43.5215V32.5H38.5715V33.5ZM44.0215 33V20.175H43.0215V33H44.0215ZM43.5215 20.675H45.2315V19.675H43.5215V20.675ZM45.2315 20.675C46.2837 20.675 46.9167 20.9266 47.3108 21.4004C47.7252 21.8984 47.9715 22.7517 47.9715 24.18H48.9715C48.9715 22.6833 48.7228 21.5341 48.0796 20.7609C47.4162 19.9634 46.4292 19.675 45.2315 19.675V20.675ZM47.9715 24.18V29.13H48.9715V24.18H47.9715ZM47.9715 29.13C47.9715 30.4199 48.0165 31.2132 48.1004 31.7945C48.186 32.3881 48.3115 32.7511 48.4471 33.1581L49.3958 32.8419C49.2615 32.4389 49.1619 32.1494 49.0901 31.6517C49.0165 31.1418 48.9715 30.4051 48.9715 29.13H47.9715ZM48.9215 33.5H53.9615V32.5H48.9215V33.5ZM45.9065 6.5C46.6879 6.5 47.1446 6.71582 47.4297 7.08293C47.7377 7.47951 47.9265 8.15221 47.9265 9.24H48.9265C48.9265 8.07779 48.7328 7.13049 48.2195 6.46957C47.6834 5.77918 46.8801 5.5 45.9065 5.5V6.5ZM47.9265 9.24V12.345H48.9265V9.24H47.9265ZM47.9265 12.345C47.9265 13.543 47.6576 14.2195 47.2779 14.6034C46.9004 14.985 46.3168 15.175 45.4565 15.175V16.175C46.4412 16.175 47.3426 15.96 47.9888 15.3066C48.6329 14.6555 48.9265 13.667 48.9265 12.345H47.9265ZM45.4565 15.175H43.5215V16.175H45.4565V15.175ZM44.0215 15.675V6H43.0215V15.675H44.0215ZM43.5215 6.5H45.9065V5.5H43.5215V6.5ZM1.36 45H0.86V45.5H1.36V45ZM6.535 45H7.035V44.5H6.535V45ZM6.535 72H6.035V72.5H6.535V72ZM11.485 72V72.5H11.985V72H11.485ZM11.485 45V44.5H10.985V45H11.485ZM16.66 45V45.5H17.16V45H16.66ZM16.66 40.5H17.16V40H16.66V40.5ZM1.36 40.5V40H0.86V40.5H1.36ZM1.36 45.5H6.535V44.5H1.36V45.5ZM6.035 45V72H7.035V45H6.035ZM6.535 72.5H11.485V71.5H6.535V72.5ZM11.985 72V45H10.985V72H11.985ZM11.485 45.5H16.66V44.5H11.485V45.5ZM17.16 45V40.5H16.16V45H17.16ZM16.66 40H1.36V41H16.66V40ZM0.86 40.5V45H1.86V40.5H0.86ZM23.79 45V44.5H23.29V45H23.79ZM32.34 45V45.5H32.84V45H32.34ZM32.34 40.5H32.84V40H32.34V40.5ZM18.84 40.5V40H18.34V40.5H18.84ZM18.84 72H18.34V72.5H18.84V72ZM32.34 72V72.5H32.84V72H32.34ZM32.34 67.5H32.84V67H32.34V67.5ZM23.79 67.5H23.29V68H23.79V67.5ZM23.79 58.275V57.775H23.29V58.275H23.79ZM30.585 58.275V58.775H31.085V58.275H30.585ZM30.585 53.775H31.085V53.275H30.585V53.775ZM23.79 53.775H23.29V54.275H23.79V53.775ZM23.79 45.5H32.34V44.5H23.79V45.5ZM32.84 45V40.5H31.84V45H32.84ZM32.34 40H18.84V41H32.34V40ZM18.34 40.5V72H19.34V40.5H18.34ZM18.84 72.5H32.34V71.5H18.84V72.5ZM32.84 72V67.5H31.84V72H32.84ZM32.34 67H23.79V68H32.34V67ZM24.29 67.5V58.275H23.29V67.5H24.29ZM23.79 58.775H30.585V57.775H23.79V58.775ZM31.085 58.275V53.775H30.085V58.275H31.085ZM30.585 53.275H23.79V54.275H30.585V53.275ZM24.29 53.775V45H23.29V53.775H24.29ZM45.0824 60.255V59.755H44.5824V60.255H45.0824ZM45.0824 51.12H44.5824V51.62H45.0824V51.12ZM49.7624 51.12V51.62H50.2624V51.12H49.7624ZM49.7624 60.255H50.2624V59.755H49.7624V60.255ZM44.5824 60.255V64.755H45.5824V60.255H44.5824ZM44.5824 64.755C44.5824 65.8184 44.347 66.4371 44.0223 66.7905C43.706 67.1348 43.2234 67.315 42.5174 67.315V68.315C43.3864 68.315 44.1863 68.0902 44.7588 67.467C45.3229 66.8529 45.5824 65.9416 45.5824 64.755H44.5824ZM42.5174 67.315C41.8114 67.315 41.3288 67.1348 41.0125 66.7905C40.6879 66.4371 40.4524 65.8184 40.4524 64.755H39.4524C39.4524 65.9416 39.712 66.8529 40.2761 67.467C40.8485 68.0902 41.6484 68.315 42.5174 68.315V67.315ZM40.4524 64.755V47.745H39.4524V64.755H40.4524ZM40.4524 47.745C40.4524 46.6821 40.6877 46.0489 41.0164 45.6828C41.3353 45.3275 41.8185 45.14 42.5174 45.14V44.14C41.6413 44.14 40.842 44.38 40.2722 45.0147C39.7121 45.6386 39.4524 46.5579 39.4524 47.745H40.4524ZM42.5174 45.14C43.2163 45.14 43.6995 45.3275 44.0185 45.6828C44.3471 46.0489 44.5824 46.6821 44.5824 47.745H45.5824C45.5824 46.5579 45.3227 45.6386 44.7626 45.0147C44.1928 44.38 43.3935 44.14 42.5174 44.14V45.14ZM44.5824 47.745V51.12H45.5824V47.745H44.5824ZM45.0824 51.62H49.7624V50.62H45.0824V51.62ZM50.2624 51.12V48.06H49.2624V51.12H50.2624ZM50.2624 48.06C50.2624 45.4629 49.6132 43.3445 48.2635 41.8721C46.9072 40.3926 44.9125 39.64 42.3824 39.64V40.64C44.7123 40.64 46.4076 41.3274 47.5263 42.5479C48.6517 43.7755 49.2624 45.6171 49.2624 48.06H50.2624ZM42.3824 39.64C39.8523 39.64 37.8576 40.3926 36.5013 41.8721C35.1517 43.3445 34.5024 45.4629 34.5024 48.06H35.5024C35.5024 45.6171 36.1132 43.7755 37.2385 42.5479C38.3572 41.3274 40.0525 40.64 42.3824 40.64V39.64ZM34.5024 48.06V64.44H35.5024V48.06H34.5024ZM34.5024 64.44C34.5024 67.0371 35.1517 69.1555 36.5013 70.6279C37.8576 72.1074 39.8523 72.86 42.3824 72.86V71.86C40.0525 71.86 38.3572 71.1726 37.2385 69.9521C36.1132 68.7245 35.5024 66.8829 35.5024 64.44H34.5024ZM42.3824 72.86C44.9125 72.86 46.9072 72.1074 48.2635 70.6279C49.6132 69.1555 50.2624 67.0371 50.2624 64.44H49.2624C49.2624 66.8829 48.6517 68.7245 47.5263 69.9521C46.4076 71.1726 44.7123 71.86 42.3824 71.86V72.86ZM50.2624 64.44V60.255H49.2624V64.44H50.2624ZM49.7624 59.755H45.0824V60.755H49.7624V59.755ZM57.7158 58.5V58H57.2158V58.5H57.7158ZM63.3408 58.5H63.8408V58H63.3408V58.5ZM63.3408 72H62.8408V72.5H63.3408V72ZM68.3808 72V72.5H68.8808V72H68.3808ZM68.3808 40.5H68.8808V40H68.3808V40.5ZM63.3408 40.5V40H62.8408V40.5H63.3408ZM63.3408 54V54.5H63.8408V54H63.3408ZM57.7158 54H57.2158V54.5H57.7158V54ZM57.7158 40.5H58.2158V40H57.7158V40.5ZM52.7658 40.5V40H52.2658V40.5H52.7658ZM52.7658 72H52.2658V72.5H52.7658V72ZM57.7158 72V72.5H58.2158V72H57.7158ZM57.7158 59H63.3408V58H57.7158V59ZM62.8408 58.5V72H63.8408V58.5H62.8408ZM63.3408 72.5H68.3808V71.5H63.3408V72.5ZM68.8808 72V40.5H67.8808V72H68.8808ZM68.3808 40H63.3408V41H68.3808V40ZM62.8408 40.5V54H63.8408V40.5H62.8408ZM63.3408 53.5H57.7158V54.5H63.3408V53.5ZM58.2158 54V40.5H57.2158V54H58.2158ZM57.7158 40H52.7658V41H57.7158V40ZM52.2658 40.5V72H53.2658V40.5H52.2658ZM52.7658 72.5H57.7158V71.5H52.7658V72.5ZM58.2158 72V58.5H57.2158V72H58.2158ZM82.5449 72L82.0622 72.1304L82.1621 72.5H82.5449V72ZM87.6299 72V72.5H88.1299V72H87.6299ZM87.6299 40.5H88.1299V40H87.6299V40.5ZM83.2199 40.5V40H82.7199V40.5H83.2199ZM83.2199 59.355L82.7372 59.4852L83.7199 59.355H83.2199ZM78.1349 40.5L78.6177 40.3698L78.5179 40H78.1349V40.5ZM71.9249 40.5V40H71.4249V40.5H71.9249ZM71.9249 72H71.4249V72.5H71.9249V72ZM76.3799 72V72.5H76.8799V72H76.3799ZM76.3799 49.185L76.8626 49.0546L75.8799 49.185H76.3799ZM82.5449 72.5H87.6299V71.5H82.5449V72.5ZM88.1299 72V40.5H87.1299V72H88.1299ZM87.6299 40H83.2199V41H87.6299V40ZM82.7199 40.5V59.355H83.7199V40.5H82.7199ZM83.7027 59.2248L78.6177 40.3698L77.6522 40.6302L82.7372 59.4852L83.7027 59.2248ZM78.1349 40H71.9249V41H78.1349V40ZM71.4249 40.5V72H72.4249V40.5H71.4249ZM71.9249 72.5H76.3799V71.5H71.9249V72.5ZM76.8799 72V49.185H75.8799V72H76.8799ZM75.8972 49.3154L82.0622 72.1304L83.0276 71.8696L76.8626 49.0546L75.8972 49.3154ZM96.219 47.745C96.219 46.6821 96.4543 46.0489 96.783 45.6828C97.1019 45.3275 97.5851 45.14 98.284 45.14V44.14C97.4079 44.14 96.6086 44.38 96.0388 45.0147C95.4787 45.6386 95.219 46.5579 95.219 47.745H96.219ZM98.284 45.14C98.9829 45.14 99.4661 45.3275 99.7851 45.6828C100.114 46.0489 100.349 46.6821 100.349 47.745H101.349C101.349 46.5579 101.089 45.6386 100.529 45.0147C99.9594 44.38 99.1601 44.14 98.284 44.14V45.14ZM100.349 47.745V64.755H101.349V47.745H100.349ZM100.349 64.755C100.349 65.8179 100.114 66.4511 99.7851 66.8172C99.4661 67.1725 98.9829 67.36 98.284 67.36V68.36C99.1601 68.36 99.9594 68.12 100.529 67.4853C101.089 66.8614 101.349 65.9421 101.349 64.755H100.349ZM98.284 67.36C97.5851 67.36 97.1019 67.1725 96.783 66.8172C96.4543 66.4511 96.219 65.8179 96.219 64.755H95.219C95.219 65.9421 95.4787 66.8614 96.0388 67.4853C96.6086 68.12 97.4079 68.36 98.284 68.36V67.36ZM96.219 64.755V47.745H95.219V64.755H96.219ZM90.269 64.44C90.269 67.0434 90.9553 69.1623 92.34 70.6328C93.7291 72.1079 95.7544 72.86 98.284 72.86V71.86C95.9536 71.86 94.2215 71.1721 93.068 69.9472C91.9102 68.7177 91.269 66.8766 91.269 64.44H90.269ZM98.284 72.86C100.814 72.86 102.839 72.1079 104.228 70.6328C105.613 69.1623 106.299 67.0434 106.299 64.44H105.299C105.299 66.8766 104.658 68.7177 103.5 69.9472C102.347 71.1721 100.614 71.86 98.284 71.86V72.86ZM106.299 64.44V48.06H105.299V64.44H106.299ZM106.299 48.06C106.299 45.4566 105.613 43.3377 104.228 41.8672C102.839 40.3921 100.814 39.64 98.284 39.64V40.64C100.614 40.64 102.347 41.3279 103.5 42.5528C104.658 43.7823 105.299 45.6234 105.299 48.06H106.299ZM98.284 39.64C95.7544 39.64 93.7291 40.3921 92.34 41.8672C90.9553 43.3377 90.269 45.4566 90.269 48.06H91.269C91.269 45.6234 91.9102 43.7823 93.068 42.5528C94.2215 41.3279 95.9536 40.64 98.284 40.64V39.64ZM90.269 48.06V64.44H91.269V48.06H90.269ZM109.016 72H108.516V72.5H109.016V72ZM122.111 72V72.5H122.611V72H122.111ZM122.111 67.5H122.611V67H122.111V67.5ZM113.966 67.5H113.466V68H113.966V67.5ZM113.966 40.5H114.466V40H113.966V40.5ZM109.016 40.5V40H108.516V40.5H109.016ZM109.016 72.5H122.111V71.5H109.016V72.5ZM122.611 72V67.5H121.611V72H122.611ZM122.111 67H113.966V68H122.111V67ZM114.466 67.5V40.5H113.466V67.5H114.466ZM113.966 40H109.016V41H113.966V40ZM108.516 40.5V72H109.516V40.5H108.516ZM129.31 47.745C129.31 46.6821 129.545 46.0489 129.874 45.6828C130.193 45.3275 130.676 45.14 131.375 45.14V44.14C130.499 44.14 129.699 44.38 129.13 45.0147C128.57 45.6386 128.31 46.5579 128.31 47.745H129.31ZM131.375 45.14C132.074 45.14 132.557 45.3275 132.876 45.6828C133.205 46.0489 133.44 46.6821 133.44 47.745H134.44C134.44 46.5579 134.18 45.6386 133.62 45.0147C133.05 44.38 132.251 44.14 131.375 44.14V45.14ZM133.44 47.745V64.755H134.44V47.745H133.44ZM133.44 64.755C133.44 65.8179 133.205 66.4511 132.876 66.8172C132.557 67.1725 132.074 67.36 131.375 67.36V68.36C132.251 68.36 133.05 68.12 133.62 67.4853C134.18 66.8614 134.44 65.9421 134.44 64.755H133.44ZM131.375 67.36C130.676 67.36 130.193 67.1725 129.874 66.8172C129.545 66.4511 129.31 65.8179 129.31 64.755H128.31C128.31 65.9421 128.57 66.8614 129.13 67.4853C129.699 68.12 130.499 68.36 131.375 68.36V67.36ZM129.31 64.755V47.745H128.31V64.755H129.31ZM123.36 64.44C123.36 67.0434 124.046 69.1623 125.431 70.6328C126.82 72.1079 128.845 72.86 131.375 72.86V71.86C129.044 71.86 127.312 71.1721 126.159 69.9472C125.001 68.7177 124.36 66.8766 124.36 64.44H123.36ZM131.375 72.86C133.904 72.86 135.93 72.1079 137.319 70.6328C138.704 69.1623 139.39 67.0434 139.39 64.44H138.39C138.39 66.8766 137.749 68.7177 136.591 69.9472C135.437 71.1721 133.705 71.86 131.375 71.86V72.86ZM139.39 64.44V48.06H138.39V64.44H139.39ZM139.39 48.06C139.39 45.4566 138.704 43.3377 137.319 41.8672C135.93 40.3921 133.904 39.64 131.375 39.64V40.64C133.705 40.64 135.437 41.3279 136.591 42.5528C137.749 43.7823 138.39 45.6234 138.39 48.06H139.39ZM131.375 39.64C128.845 39.64 126.82 40.3921 125.431 41.8672C124.046 43.3377 123.36 45.4566 123.36 48.06H124.36C124.36 45.6234 125.001 43.7823 126.159 42.5528C127.312 41.3279 129.044 40.64 131.375 40.64V39.64ZM123.36 48.06V64.44H124.36V48.06H123.36ZM149.532 58.95H149.032V59.45H149.532V58.95ZM151.782 58.95H152.282V58.45H151.782V58.95ZM151.782 51.12H151.282V51.62H151.782V51.12ZM156.462 51.12V51.62H156.962V51.12H156.462ZM156.462 54.45H156.962V53.95H156.462V54.45ZM149.532 54.45V53.95H149.032V54.45H149.532ZM149.532 59.45H151.782V58.45H149.532V59.45ZM151.282 58.95V64.755H152.282V58.95H151.282ZM151.282 64.755C151.282 65.8184 151.046 66.4371 150.722 66.7905C150.405 67.1348 149.923 67.315 149.217 67.315V68.315C150.086 68.315 150.886 68.0902 151.458 67.467C152.022 66.8529 152.282 65.9416 152.282 64.755H151.282ZM149.217 67.315C148.511 67.315 148.028 67.1348 147.712 66.7905C147.387 66.4371 147.152 65.8184 147.152 64.755H146.152C146.152 65.9416 146.411 66.8529 146.975 67.467C147.548 68.0902 148.348 68.315 149.217 68.315V67.315ZM147.152 64.755V47.745H146.152V64.755H147.152ZM147.152 47.745C147.152 46.6821 147.387 46.0489 147.716 45.6828C148.035 45.3275 148.518 45.14 149.217 45.14V44.14C148.341 44.14 147.541 44.38 146.971 45.0147C146.411 45.6386 146.152 46.5579 146.152 47.745H147.152ZM149.217 45.14C149.916 45.14 150.399 45.3275 150.718 45.6828C151.046 46.0489 151.282 46.6821 151.282 47.745H152.282C152.282 46.5579 152.022 45.6386 151.462 45.0147C150.892 44.38 150.093 44.14 149.217 44.14V45.14ZM151.282 47.745V51.12H152.282V47.745H151.282ZM151.782 51.62H156.462V50.62H151.782V51.62ZM156.962 51.12V48.06H155.962V51.12H156.962ZM156.962 48.06C156.962 45.4629 156.312 43.3445 154.963 41.8721C153.606 40.3926 151.612 39.64 149.082 39.64V40.64C151.412 40.64 153.107 41.3274 154.226 42.5479C155.351 43.7755 155.962 45.6171 155.962 48.06H156.962ZM149.082 39.64C146.552 39.64 144.557 40.3926 143.201 41.8721C141.851 43.3445 141.202 45.4629 141.202 48.06H142.202C142.202 45.6171 142.812 43.7755 143.938 42.5479C145.056 41.3274 146.752 40.64 149.082 40.64V39.64ZM141.202 48.06V64.44H142.202V48.06H141.202ZM141.202 64.44C141.202 67.0371 141.851 69.1555 143.201 70.6279C144.557 72.1074 146.552 72.86 149.082 72.86V71.86C146.752 71.86 145.056 71.1726 143.938 69.9521C142.812 68.7245 142.202 66.8829 142.202 64.44H141.202ZM149.082 72.86C151.612 72.86 153.606 72.1074 154.963 70.6279C156.312 69.1555 156.962 67.0371 156.962 64.44H155.962C155.962 66.8829 155.351 68.7245 154.226 69.9521C153.107 71.1726 151.412 71.86 149.082 71.86V72.86ZM156.962 64.44V54.45H155.962V64.44H156.962ZM156.462 53.95H149.532V54.95H156.462V53.95ZM149.032 54.45V58.95H150.032V54.45H149.032ZM159.641 72H159.141V72.5H159.641V72ZM164.591 72V72.5H165.091V72H164.591ZM164.591 40.5H165.091V40H164.591V40.5ZM159.641 40.5V40H159.141V40.5H159.641ZM159.641 72.5H164.591V71.5H159.641V72.5ZM165.091 72V40.5H164.091V72H165.091ZM164.591 40H159.641V41H164.591V40ZM159.141 40.5V72H160.141V40.5H159.141ZM173.16 45V44.5H172.66V45H173.16ZM181.71 45V45.5H182.21V45H181.71ZM181.71 40.5H182.21V40H181.71V40.5ZM168.21 40.5V40H167.71V40.5H168.21ZM168.21 72H167.71V72.5H168.21V72ZM181.71 72V72.5H182.21V72H181.71ZM181.71 67.5H182.21V67H181.71V67.5ZM173.16 67.5H172.66V68H173.16V67.5ZM173.16 58.275V57.775H172.66V58.275H173.16ZM179.955 58.275V58.775H180.455V58.275H179.955ZM179.955 53.775H180.455V53.275H179.955V53.775ZM173.16 53.775H172.66V54.275H173.16V53.775ZM173.16 45.5H181.71V44.5H173.16V45.5ZM182.21 45V40.5H181.21V45H182.21ZM181.71 40H168.21V41H181.71V40ZM167.71 40.5V72H168.71V40.5H167.71ZM168.21 72.5H181.71V71.5H168.21V72.5ZM182.21 72V67.5H181.21V72H182.21ZM181.71 67H173.16V68H181.71V67ZM173.66 67.5V58.275H172.66V67.5H173.66ZM173.16 58.775H179.955V57.775H173.16V58.775ZM180.455 58.275V53.775H179.455V58.275H180.455ZM179.955 53.275H173.16V54.275H179.955V53.275ZM173.66 53.775V45H172.66V53.775H173.66ZM188.693 62.505H189.193V62.005H188.693V62.505ZM184.013 62.505V62.005H183.513V62.505H184.013ZM194.048 49.05H193.548V49.55H194.048V49.05ZM198.728 49.05V49.55H199.228V49.05H198.728ZM183.648 48.06C183.648 52.7834 186.209 55.4645 188.645 57.7194C189.877 58.859 191.042 59.8612 191.916 60.9853C192.776 62.09 193.323 63.2758 193.323 64.755H194.323C194.323 62.9942 193.66 61.5982 192.705 60.3712C191.766 59.1638 190.512 58.0847 189.325 56.9856C186.923 54.763 184.648 52.3366 184.648 48.06H183.648ZM193.323 64.755C193.323 65.8184 193.087 66.4371 192.762 66.7905C192.446 67.1348 191.964 67.315 191.258 67.315V68.315C192.127 68.315 192.926 68.0902 193.499 67.467C194.063 66.8529 194.323 65.9416 194.323 64.755H193.323ZM191.258 67.315C190.552 67.315 190.069 67.1348 189.753 66.7905C189.428 66.4371 189.193 65.8184 189.193 64.755H188.193C188.193 65.9416 188.452 66.8529 189.016 67.467C189.589 68.0902 190.389 68.315 191.258 68.315V67.315ZM189.193 64.755V62.505H188.193V64.755H189.193ZM188.693 62.005H184.013V63.005H188.693V62.005ZM183.513 62.505V64.44H184.513V62.505H183.513ZM183.513 64.44C183.513 67.0371 184.162 69.1555 185.511 70.6279C186.868 72.1074 188.862 72.86 191.393 72.86V71.86C189.063 71.86 187.367 71.1726 186.249 69.9521C185.123 68.7245 184.513 66.8829 184.513 64.44H183.513ZM191.393 72.86C193.923 72.86 195.917 72.1074 197.274 70.6279C198.623 69.1555 199.273 67.0371 199.273 64.44H198.273C198.273 66.8829 197.662 68.7245 196.536 69.9521C195.418 71.1726 193.722 71.86 191.393 71.86V72.86ZM199.273 64.44C199.273 59.7166 196.711 57.0355 194.275 54.7806C193.043 53.641 191.878 52.6388 191.004 51.5147C190.144 50.41 189.598 49.2242 189.598 47.745H188.598C188.598 49.5058 189.26 50.9018 190.215 52.1288C191.154 53.3362 192.408 54.4153 193.595 55.5144C195.997 57.737 198.273 60.1634 198.273 64.44H199.273ZM189.598 47.745C189.598 46.6718 189.815 46.0371 190.125 45.6731C190.42 45.3266 190.875 45.14 191.573 45.14V44.14C190.695 44.14 189.912 44.3809 189.364 45.0244C188.83 45.6504 188.598 46.5681 188.598 47.745H189.598ZM191.573 45.14C192.27 45.14 192.725 45.3266 193.02 45.6731C193.33 46.0371 193.548 46.6718 193.548 47.745H194.548C194.548 46.5681 194.315 45.6504 193.781 45.0244C193.233 44.3809 192.45 44.14 191.573 44.14V45.14ZM193.548 47.745V49.05H194.548V47.745H193.548ZM194.048 49.55H198.728V48.55H194.048V49.55ZM199.228 49.05V48.06H198.228V49.05H199.228ZM199.228 48.06C199.228 45.465 198.591 43.3474 197.259 41.8747C195.92 40.3936 193.947 39.64 191.438 39.64V40.64C193.743 40.64 195.415 41.3264 196.517 42.5453C197.627 43.7726 198.228 45.615 198.228 48.06H199.228ZM191.438 39.64C188.928 39.64 186.955 40.3936 185.616 41.8747C184.284 43.3474 183.648 45.465 183.648 48.06H184.648C184.648 45.615 185.248 43.7726 186.358 42.5453C187.46 41.3264 189.132 40.64 191.438 40.64V39.64Z" fill="#E2E2E2"/>
</svg>
