<svg width="97" height="290" viewBox="0 0 97 290" fill="none" xmlns="http://www.w3.org/2000/svg">
<path d="M30.43 15.51L30.43 16.51L31.43 16.51L31.43 15.51L30.43 15.51ZM30.43 1.99L31.43 1.99L31.43 0.989998L30.43 0.989998L30.43 1.99ZM69.3 30.98L69.3 29.98L68.3 29.98L68.3 30.98L69.3 30.98ZM69.3 44.5L68.3 44.5L68.3 45.5L69.3 45.5L69.3 44.5ZM72.16 1.38C58.7133 1.38 51.081 8.65328 44.5811 15.6757C41.307 19.2131 38.3776 22.6181 35.0931 25.1736C31.8476 27.6987 28.3283 29.33 23.93 29.33L23.93 31.33C28.8916 31.33 32.8312 29.4675 36.3213 26.7521C39.7724 24.0669 42.8555 20.4844 46.0489 17.0343C52.484 10.0817 59.6067 3.38 72.16 3.38L72.16 1.38ZM23.93 29.33C20.8032 29.33 18.8858 28.6391 17.749 27.5948C16.6304 26.5672 16.09 25.032 16.09 22.92L14.09 22.92C14.09 25.358 14.7196 27.5278 16.396 29.0677C18.0542 30.5909 20.5568 31.33 23.93 31.33L23.93 29.33ZM16.09 22.92C16.09 20.808 16.6304 19.2727 17.749 18.2452C18.8858 17.2009 20.8032 16.51 23.93 16.51L23.93 14.51C20.5568 14.51 18.0542 15.2491 16.396 16.7723C14.7196 18.3122 14.09 20.482 14.09 22.92L16.09 22.92ZM23.93 16.51L30.43 16.51L30.43 14.51L23.93 14.51L23.93 16.51ZM31.43 15.51L31.43 1.99L29.43 1.99L29.43 15.51L31.43 15.51ZM30.43 0.989998L24.84 0.989997L24.84 2.99L30.43 2.99L30.43 0.989998ZM24.84 0.989997C17.4059 0.989997 11.409 2.84849 7.26427 6.64784C3.10516 10.4604 0.959998 16.0898 0.959998 23.31L2.96 23.31C2.96 16.4902 4.97484 11.4596 8.61572 8.12215C12.271 4.7715 17.7141 2.99 24.84 2.99L24.84 0.989997ZM0.959998 23.31C0.959998 30.5302 3.10516 36.1596 7.26427 39.9722C11.409 43.7715 17.4059 45.63 24.84 45.63L24.84 43.63C17.7141 43.63 12.271 41.8485 8.61572 38.4978C4.97484 35.1604 2.96 30.1298 2.96 23.31L0.959998 23.31ZM24.84 45.63C38.2867 45.63 45.919 38.3567 52.4189 31.3343C55.693 27.7969 58.6224 24.3919 61.9069 21.8364C65.1524 19.3113 68.6717 17.68 73.07 17.68L73.07 15.68C68.1084 15.68 64.1688 17.5425 60.6787 20.2579C57.2276 22.9431 54.1445 26.5256 50.9511 29.9757C44.516 36.9283 37.3933 43.63 24.84 43.63L24.84 45.63ZM73.07 17.68C76.2163 17.68 78.1758 18.3143 79.3439 19.3098C80.4768 20.2754 81.04 21.7341 81.04 23.83L83.04 23.83C83.04 21.3759 82.3682 19.2596 80.6412 17.7877C78.9492 16.3457 76.4237 15.68 73.07 15.68L73.07 17.68ZM81.04 23.83C81.04 25.9259 80.4768 27.3846 79.3439 28.3502C78.1758 29.3457 76.2163 29.98 73.07 29.98L73.07 31.98C76.4237 31.98 78.9492 31.3143 80.6412 29.8723C82.3682 28.4004 83.04 26.2841 83.04 23.83L81.04 23.83ZM73.07 29.98L69.3 29.98L69.3 31.98L73.07 31.98L73.07 29.98ZM68.3 30.98L68.3 44.5L70.3 44.5L70.3 30.98L68.3 30.98ZM69.3 45.5L72.16 45.5L72.16 43.5L69.3 43.5L69.3 45.5ZM72.16 45.5C79.5899 45.5 85.5853 43.6762 89.7307 39.928C93.8929 36.1647 96.04 30.5982 96.04 23.44L94.04 23.44C94.04 30.1918 92.0271 35.1553 88.3893 38.4445C84.7347 41.7489 79.2901 43.5 72.16 43.5L72.16 45.5ZM96.04 23.44C96.04 16.2818 93.8929 10.7153 89.7307 6.95199C85.5853 3.20385 79.5899 1.38 72.16 1.38L72.16 3.38C79.2901 3.38 84.7347 5.13115 88.3893 8.43551C92.0271 11.7247 94.04 16.6882 94.04 23.44L96.04 23.44ZM36.93 80.773L37.93 80.773L37.93 79.773L36.93 79.773L36.93 80.773ZM63.32 80.773L63.32 79.773L62.32 79.773L62.32 80.773L63.32 80.773ZM63.32 94.2931L62.32 94.2931L62.32 95.2931L63.32 95.2931L63.32 94.2931ZM36.93 94.2931L36.93 95.2931L37.93 95.2931L37.93 94.2931L36.93 94.2931ZM36.93 79.773L23.93 79.773L23.93 81.773L36.93 81.773L36.93 79.773ZM23.93 79.773C20.8032 79.773 18.8858 79.0822 17.749 78.0379C16.6304 77.0103 16.09 75.4751 16.09 73.363L14.09 73.363C14.09 75.801 14.7196 77.9708 16.396 79.5107C18.0542 81.0339 20.5568 81.773 23.93 81.773L23.93 79.773ZM16.09 73.363C16.09 71.251 16.6304 69.7158 17.749 68.6882C18.8858 67.6439 20.8032 66.953 23.93 66.953L23.93 64.953C20.5568 64.953 18.0542 65.6922 16.396 67.2154C14.7196 68.7553 14.09 70.9251 14.09 73.363L16.09 73.363ZM23.93 66.953L73.07 66.953L73.07 64.953L23.93 64.953L23.93 66.953ZM73.07 66.953C76.1958 66.953 78.1523 67.6436 79.3245 68.6959C80.475 69.7288 81.04 71.2652 81.04 73.3631L83.04 73.3631C83.04 70.9109 82.37 68.7423 80.6605 67.2077C78.9727 65.6925 76.4442 64.953 73.07 64.953L73.07 66.953ZM81.04 73.3631C81.04 75.4609 80.475 76.9973 79.3245 78.0302C78.1523 79.0825 76.1958 79.773 73.07 79.773L73.07 81.773C76.4442 81.773 78.9727 81.0336 80.6605 79.5184C82.37 77.9838 83.04 75.8152 83.04 73.3631L81.04 73.3631ZM73.07 79.773L63.32 79.773L63.32 81.773L73.07 81.773L73.07 79.773ZM62.32 80.773L62.32 94.2931L64.32 94.2931L64.32 80.773L62.32 80.773ZM63.32 95.2931L72.16 95.2931L72.16 93.2931L63.32 93.2931L63.32 95.2931ZM72.16 95.2931C79.5941 95.2931 85.591 93.4346 89.7357 89.6352C93.8948 85.8227 96.04 80.1932 96.04 72.973L94.04 72.973C94.04 79.7929 92.0252 84.8234 88.3843 88.1609C84.729 91.5115 79.2859 93.2931 72.16 93.2931L72.16 95.2931ZM96.04 72.973C96.04 65.7529 93.8948 60.1234 89.7357 56.3109C85.591 52.5115 79.5941 50.653 72.16 50.653L72.16 52.653C79.2859 52.653 84.729 54.4346 88.3843 57.7852C92.0252 61.1227 94.04 66.1532 94.04 72.973L96.04 72.973ZM72.16 50.653L24.84 50.653L24.84 52.653L72.16 52.653L72.16 50.653ZM24.84 50.653C17.4059 50.653 11.409 52.5115 7.26427 56.3109C3.10516 60.1234 0.959996 65.7529 0.959996 72.973L2.96 72.973C2.96 66.1532 4.97484 61.1227 8.61572 57.7852C12.271 54.4346 17.7141 52.653 24.84 52.653L24.84 50.653ZM0.959996 72.973C0.959996 80.1932 3.10516 85.8227 7.26427 89.6352C11.409 93.4346 17.4059 95.293 24.84 95.293L24.84 93.293C17.7141 93.293 12.271 91.5115 8.61572 88.1609C4.97483 84.8234 2.96 79.7929 2.96 72.973L0.959996 72.973ZM24.84 95.293L36.93 95.2931L36.93 93.2931L24.84 93.293L24.84 95.293ZM37.93 94.2931L37.93 80.773L35.93 80.773L35.93 94.2931L37.93 94.2931ZM2.99999 147.43L1.99999 147.43L1.99999 148.938L3.38963 148.351L2.99999 147.43ZM47.46 136.38L48.3652 135.955L47.4072 133.914L46.5374 135.994L47.46 136.38ZM94 102.97L95 102.97L95 101.97L94 101.97L94 102.97ZM3 102.97L3 101.97L2 101.97L2 102.97L3 102.97ZM2.99999 117.27L1.99999 117.27L1.99999 118.27L2.99999 118.27L2.99999 117.27ZM40.05 117.27L41.05 117.27L41.05 116.27L40.05 116.27L40.05 117.27ZM2.99999 132.87L2.68376 131.921L1.99999 132.149L1.99999 132.87L2.99999 132.87ZM53.05 117.27L53.05 116.27L52.05 116.27L52.05 117.27L53.05 117.27ZM81 117.27L82 117.27L82 116.27L81 116.27L81 117.27ZM3.38963 148.351C6.56412 147.007 9.62896 146.87 14.05 146.87L14.05 144.87C9.63103 144.87 6.19586 144.992 2.61035 146.509L3.38963 148.351ZM14.05 146.87L28.09 146.87L28.09 144.87L14.05 144.87L14.05 146.87ZM28.09 146.87C37.6892 146.87 45.1485 144.499 48.3826 136.765L46.5374 135.994C43.7915 142.56 37.4707 144.87 28.09 144.87L28.09 146.87ZM46.5548 136.804C49.7713 143.657 56.3428 146.74 65.92 146.74L65.92 144.74C56.7772 144.74 51.1286 141.842 48.3652 135.955L46.5548 136.804ZM65.92 146.74L73.07 146.74L73.07 144.74L65.92 144.74L65.92 146.74ZM73.07 146.74C80.2202 146.74 85.7618 145.119 89.5038 141.412C93.2474 137.704 95 132.095 95 124.55L93 124.55C93 131.824 91.3076 136.81 88.0962 139.992C84.8832 143.175 79.9598 144.74 73.07 144.74L73.07 146.74ZM95 124.55L95 102.97L93 102.97L93 124.55L95 124.55ZM94 101.97L3 101.97L3 103.97L94 103.97L94 101.97ZM2 102.97L1.99999 117.27L3.99999 117.27L4 102.97L2 102.97ZM2.99999 118.27L40.05 118.27L40.05 116.27L2.99999 116.27L2.99999 118.27ZM39.05 117.27L39.05 122.21L41.05 122.21L41.05 117.27L39.05 117.27ZM39.05 122.21C39.05 125.314 38.3068 127.3 36.7942 128.558C35.2331 129.857 32.6366 130.57 28.48 130.57L28.48 132.57C32.7734 132.57 35.9619 131.852 38.0733 130.096C40.2332 128.299 41.05 125.605 41.05 122.21L39.05 122.21ZM28.48 130.57L14.18 130.57L14.18 132.57L28.48 132.57L28.48 130.57ZM14.18 130.57C10.4602 130.57 8.19361 130.699 6.54589 130.937C4.87378 131.179 3.8578 131.53 2.68376 131.921L3.31622 133.818C4.48219 133.43 5.35121 133.13 6.83159 132.917C8.33638 132.7 10.4898 132.57 14.18 132.57L14.18 130.57ZM1.99999 132.87L1.99999 147.43L3.99999 147.43L3.99999 132.87L1.99999 132.87ZM80 124.16C80 126.502 79.3484 127.976 78.1441 128.911C76.881 129.892 74.8156 130.44 71.64 130.44L71.64 132.44C74.9644 132.44 77.579 131.882 79.3709 130.491C81.2216 129.053 82 126.887 82 124.16L80 124.16ZM71.64 130.44L62.67 130.44L62.67 132.44L71.64 132.44L71.64 130.44ZM62.67 130.44C59.154 130.44 57.061 129.652 55.8332 128.437C54.61 127.227 54.05 125.4 54.05 122.86L52.05 122.86C52.05 125.649 52.66 128.112 54.4268 129.859C56.189 131.602 58.906 132.44 62.67 132.44L62.67 130.44ZM54.05 122.86L54.05 117.27L52.05 117.27L52.05 122.86L54.05 122.86ZM53.05 118.27L81 118.27L81 116.27L53.05 116.27L53.05 118.27ZM80 117.27L80 124.16L82 124.16L82 117.27L80 117.27ZM73.07 169.404C76.1958 169.404 78.1523 170.095 79.3245 171.147C80.475 172.18 81.04 173.716 81.04 175.814L83.04 175.814C83.04 173.362 82.37 171.193 80.6605 169.659C78.9727 168.144 76.4442 167.404 73.07 167.404L73.07 169.404ZM81.04 175.814C81.04 177.912 80.475 179.448 79.3245 180.481C78.1523 181.534 76.1958 182.224 73.07 182.224L73.07 184.224C76.4442 184.224 78.9727 183.485 80.6605 181.97C82.37 180.435 83.04 178.266 83.04 175.814L81.04 175.814ZM73.07 182.224L23.93 182.224L23.93 184.224L73.07 184.224L73.07 182.224ZM23.93 182.224C20.8042 182.224 18.8477 181.534 17.6755 180.481C16.525 179.448 15.96 177.912 15.96 175.814L13.96 175.814C13.96 178.266 14.63 180.435 16.3395 181.97C18.0272 183.485 20.5558 184.224 23.93 184.224L23.93 182.224ZM15.96 175.814C15.96 173.716 16.525 172.18 17.6755 171.147C18.8477 170.095 20.8042 169.404 23.93 169.404L23.93 167.404C20.5558 167.404 18.0272 168.144 16.3395 169.659C14.63 171.193 13.96 173.362 13.96 175.814L15.96 175.814ZM23.93 169.404L73.07 169.404L73.07 167.404L23.93 167.404L23.93 169.404ZM24.84 153.104C17.3931 153.104 11.3954 155.067 7.25444 158.966C3.1042 162.874 0.959992 168.595 0.959991 175.814L2.95999 175.814C2.95999 168.993 4.97579 163.859 8.62555 160.422C12.2846 156.977 17.7269 155.104 24.84 155.104L24.84 153.104ZM0.959991 175.814C0.959991 183.033 3.10419 188.754 7.25444 192.662C11.3954 196.562 17.3931 198.524 24.84 198.524L24.84 196.524C17.7269 196.524 12.2846 194.652 8.62555 191.206C4.97579 187.769 2.95999 182.635 2.95999 175.814L0.959991 175.814ZM24.84 198.524L72.16 198.524L72.16 196.524L24.84 196.524L24.84 198.524ZM72.16 198.524C79.6069 198.524 85.6046 196.562 89.7455 192.662C93.8958 188.754 96.04 183.033 96.04 175.814L94.04 175.814C94.04 182.635 92.0242 187.769 88.3744 191.206C84.7154 194.652 79.2731 196.524 72.16 196.524L72.16 198.524ZM96.04 175.814C96.04 168.595 93.8958 162.874 89.7456 158.966C85.6046 155.067 79.6069 153.104 72.16 153.104L72.16 155.104C79.2731 155.104 84.7154 156.977 88.3744 160.422C92.0242 163.859 94.04 168.993 94.04 175.814L96.04 175.814ZM72.16 153.104L24.84 153.104L24.84 155.104L72.16 155.104L72.16 153.104ZM2.99999 206.817L2.99999 205.817L1.99999 205.817L1.99999 206.817L2.99999 206.817ZM2.99999 244.647L1.99999 244.647L1.99999 245.647L2.99999 245.647L2.99999 244.647ZM16 244.647L16 245.647L17 245.647L17 244.647L16 244.647ZM16 221.117L16 220.117L15 220.117L15 221.117L16 221.117ZM94 221.117L94 222.117L95 222.117L95 221.117L94 221.117ZM94 206.817L95 206.817L95 205.817L94 205.817L94 206.817ZM1.99999 206.817L1.99999 244.647L3.99999 244.647L3.99999 206.817L1.99999 206.817ZM2.99999 245.647L16 245.647L16 243.647L2.99999 243.647L2.99999 245.647ZM17 244.647L17 221.117L15 221.117L15 244.647L17 244.647ZM16 222.117L94 222.117L94 220.117L16 220.117L16 222.117ZM95 221.117L95 206.817L93 206.817L93 221.117L95 221.117ZM94 205.817L2.99999 205.817L2.99999 207.817L94 207.817L94 205.817ZM2.99999 250.87L2.99999 249.87L1.99999 249.87L1.99999 250.87L2.99999 250.87ZM2.99999 288.7L1.99999 288.7L1.99999 289.7L2.99999 289.7L2.99999 288.7ZM16 288.7L16 289.7L17 289.7L17 288.7L16 288.7ZM16 265.17L16 264.17L15 264.17L15 265.17L16 265.17ZM94 265.17L94 266.17L95 266.17L95 265.17L94 265.17ZM94 250.87L95 250.87L95 249.87L94 249.87L94 250.87ZM1.99999 250.87L1.99999 288.7L3.99999 288.7L3.99999 250.87L1.99999 250.87ZM2.99999 289.7L16 289.7L16 287.7L2.99999 287.7L2.99999 289.7ZM17 288.7L17 265.17L15 265.17L15 288.7L17 288.7ZM16 266.17L94 266.17L94 264.17L16 264.17L16 266.17ZM95 265.17L95 250.87L93 250.87L93 265.17L95 265.17ZM94 249.87L2.99999 249.87L2.99999 251.87L94 251.87L94 249.87Z" fill="#E2E2E2"/>
</svg>
