<svg width="50" height="50" viewBox="0 0 50 50" fill="none" xmlns="http://www.w3.org/2000/svg">
<path d="M0 0L0 50L50 50L50 0L0 0ZM15.3534 41.2483C15.3534 41.8851 14.8372 42.4013 14.2004 42.4013H9.29386C8.65708 42.4013 8.14088 41.8851 8.14088 41.2483L8.14088 20.3168C8.14088 19.68 8.65708 19.1638 9.29386 19.1638L14.2004 19.1638C14.8372 19.1638 15.3534 19.68 15.3534 20.3168L15.3534 41.2483ZM11.7392 15.9624C9.51109 16.0075 7.55303 14.1465 7.55347 11.7726C7.55347 9.47028 9.44954 7.59198 11.7674 7.59384C14.0574 7.59571 15.9461 9.48717 15.9412 11.7886C15.9357 14.1984 13.9359 16.0148 11.7392 15.9624ZM42.4465 41.9275C42.4465 42.1919 42.2322 42.4062 41.9677 42.406L35.6974 42.4045C35.4331 42.4044 35.2188 42.1901 35.2188 41.9258V29.0008C35.2188 27.8836 34.7661 26.8716 34.0337 26.1395C33.2916 25.397 32.2619 24.9419 31.1261 24.9547C28.9013 24.9799 27.1266 26.8273 27.1266 29.0523L27.1266 41.9243C27.1266 42.1887 26.9123 42.403 26.6478 42.4029L20.393 42.4013C20.1287 42.4012 19.9145 42.1869 19.9145 41.9228L19.9145 19.6425C19.9145 19.3782 20.1288 19.1638 20.3932 19.1638H26.5147C26.779 19.1638 26.9933 19.3781 26.9933 19.6425V22.2118C26.9939 22.2107 27.018 22.2138 27.0591 22.22C27.1773 22.0061 27.3061 21.7988 27.4452 21.5993C28.721 19.7684 30.842 18.5705 33.2427 18.5705H34.5012C38.8893 18.5705 42.4466 22.1277 42.4466 26.516V41.9275H42.4465Z" fill="#EB5757"/>
</svg>
