<svg width="50" height="50" viewBox="0 0 50 50" fill="none" xmlns="http://www.w3.org/2000/svg">
<path fill-rule="evenodd" clip-rule="evenodd" d="M50 0L0 0L0 50L50 50L50 0ZM7 23.46C7 14.3689 14.96 7 24.7778 7C34.5956 7 42.5556 14.3711 42.5556 23.4622C42.5556 32.5533 34.5956 39.9222 24.7778 39.9222C23.0044 39.9222 21.2933 39.68 19.6778 39.2333L13.6244 42.5556L13.6244 36.2778C9.58444 33.26 7 28.64 7 23.46ZM22.0178 24.3378L26.5444 29.1667L36.2622 18.8511L27.54 23.68L22.9022 18.8511L13.1844 29.1667L22.0178 24.3378Z" fill="#EB5757"/>
</svg>
