<svg width="50" height="50" viewBox="0 0 50 50" fill="none" xmlns="http://www.w3.org/2000/svg">
<g clip-path="url(#clip0)">
<path d="M0 0L0 50L50 50L50 0L0 0ZM33.6611 42.1627C31.9565 42.1627 30.3607 41.7005 28.9886 40.8975C27.9905 41.0917 26.9598 41.1946 25.9049 41.1946C17.0378 41.1946 9.84956 34.0064 9.84956 25.1393C9.84956 24.0844 9.95247 23.0536 10.1467 22.0556C9.34367 20.6834 8.88144 19.0876 8.88144 17.3831C8.88144 12.2649 13.0305 8.11586 18.1486 8.11586C19.8533 8.11586 21.4491 8.5782 22.8212 9.38108C23.8193 9.18689 24.8501 9.08398 25.905 9.08398C34.772 9.08398 41.9603 16.2722 41.9603 25.1393C41.9603 26.1942 41.8574 27.2249 41.6632 28.223C42.4662 29.5952 42.9284 31.191 42.9284 32.8955C42.9283 38.0137 38.7792 42.1627 33.6611 42.1627Z" fill="#EB5757"/>
<path d="M27.1423 22.6707C21.2178 21.5187 20.8338 19.7084 22.2601 18.4467C23.6863 17.185 27.9259 16.6184 29.1172 18.8307C30.2692 20.9702 31.092 21.8479 32.6829 21.4639C34.2005 21.0975 34.42 18.9953 33.78 17.7336C33.2636 16.7156 30.9274 14.113 26.3195 14.113C21.7115 14.113 16.8841 15.8136 16.8841 20.0376C16.8841 24.2616 21.2726 26.1267 25.4966 26.7301C29.7206 27.3336 30.708 29.1438 30.1595 30.4604C29.6109 31.777 27.8006 33.0387 25.0578 32.7644C22.3149 32.4901 21.0494 30.1935 20.6692 29.0341C20.3035 27.9187 19.0235 27.7724 18.4201 27.8273C17.8166 27.8821 15.8967 28.6501 16.7744 31.3381C17.6521 34.0261 20.5046 36.1655 26.2098 36.1655C31.9149 36.1655 35.2611 32.6547 35.2611 29.3084C35.2611 25.9621 33.0669 23.8227 27.1423 22.6707Z" fill="#EB5757"/>
</g>
<defs>
<clipPath id="clip0">
<rect width="50" height="50" fill="white"/>
</clipPath>
</defs>
</svg>
