<svg width="50" height="50" viewBox="0 0 50 50" fill="none" xmlns="http://www.w3.org/2000/svg">
<path d="M32.4837 11.5617C27.518 10.6171 22.4822 10.6171 17.5154 11.5617C15.3431 12.0456 12.6101 14.6645 12.0758 16.771C11.1871 20.8468 11.1871 24.9787 12.0758 29.0545C12.6101 31.161 15.3431 33.7799 17.5154 34.2637C17.516 34.2638 17.5165 34.264 17.5171 34.2641C17.6138 34.283 17.6844 34.3669 17.6844 34.4655V40.4363C17.6844 40.7348 18.0486 40.8818 18.256 40.6656L21.0921 37.7549C21.0921 37.7549 23.3521 35.4349 23.7585 35.0178C23.7982 34.977 23.853 34.9549 23.9099 34.9565C26.7733 35.0358 29.6398 34.8045 32.4837 34.2638C34.656 33.78 37.3901 31.1611 37.9233 29.0546C38.8131 24.9788 38.8131 20.8469 37.9233 16.7711C37.39 14.6645 34.6571 12.0456 32.4837 11.5617ZM32.5594 29.3585C32.1249 30.281 31.4927 31.0485 30.5808 31.5383C30.3235 31.6766 30.016 31.7212 29.7256 31.8106C29.3916 31.7093 29.0733 31.6411 28.7778 31.5185C25.715 30.2478 22.8962 28.6084 20.6634 26.0954C19.3937 24.6664 18.3998 23.0531 17.5599 21.3457C17.1615 20.536 16.8258 19.6946 16.4836 18.8587C16.1714 18.0964 16.6311 17.3089 17.1151 16.7345C17.5692 16.1955 18.1535 15.783 18.7863 15.479C19.2803 15.2417 19.7675 15.3785 20.1283 15.7971C20.9081 16.7023 21.6244 17.6537 22.2045 18.7029C22.5612 19.3482 22.4633 20.1371 21.8169 20.5763C21.6598 20.683 21.5166 20.8083 21.3702 20.9289C21.2419 21.0345 21.1211 21.1413 21.0331 21.2844C20.8722 21.546 20.8645 21.8549 20.9681 22.1395C21.7653 24.3302 23.109 26.0338 25.314 26.9513C25.6669 27.0981 26.0212 27.269 26.4277 27.2216C27.1085 27.1421 27.3289 26.3954 27.8059 26.0052C28.2722 25.624 28.8681 25.6189 29.3703 25.9368C29.8727 26.2547 30.3597 26.5961 30.8438 26.941C31.319 27.2796 31.792 27.6108 32.2303 27.9968C32.6515 28.3678 32.7967 28.8547 32.5594 29.3585ZM28.6049 22.2196C28.4147 22.223 28.4894 22.2192 28.5617 22.2172C28.2553 22.2064 28.0887 22.026 28.0557 21.7328C28.0317 21.5185 28.0127 21.3014 27.9616 21.0929C27.8609 20.6824 27.6427 20.3019 27.2974 20.0503C27.1344 19.9315 26.9496 19.8448 26.7561 19.7891C26.5102 19.7181 26.2549 19.7376 26.0096 19.6775C25.7432 19.6123 25.5958 19.3965 25.6376 19.1466C25.6757 18.9192 25.897 18.7416 26.1455 18.7596C27.6987 18.8718 28.8088 19.6748 28.9672 21.5034C28.9784 21.6324 28.9916 21.7686 28.963 21.8921C28.9164 22.0927 28.773 22.1972 28.6281 22.2162C28.64 22.2164 28.6377 22.2174 28.6049 22.2196ZM27.639 18.0374C27.1624 17.804 26.647 17.659 26.1246 17.5725C25.8962 17.5348 25.6655 17.5119 25.4361 17.4799C25.1581 17.4413 25.0098 17.2641 25.0228 16.9902C25.0351 16.7334 25.2227 16.5488 25.5025 16.5646C26.4219 16.6168 27.3099 16.8155 28.1273 17.2483C29.7894 18.1286 30.7389 19.518 31.016 21.3732C31.0287 21.4573 31.0487 21.5405 31.0551 21.6249C31.0709 21.8332 31.0807 22.0417 31.0967 22.3163C31.0901 22.3664 31.0866 22.484 31.0574 22.5948C30.9511 22.997 30.3413 23.0474 30.2009 22.6414C30.1593 22.521 30.153 22.3839 30.1528 22.2542C30.1514 21.4057 29.967 20.5581 29.5391 19.8198C29.0992 19.0612 28.4271 18.4234 27.639 18.0374ZM32.775 23.7711C32.4538 23.775 32.3093 23.5063 32.2885 23.2183C32.2472 22.6482 32.2187 22.0756 32.1401 21.5103C31.7253 18.5259 29.3456 16.0569 26.3753 15.5271C25.9283 15.4474 25.4707 15.4264 25.018 15.3789C24.7317 15.3489 24.3568 15.3315 24.2934 14.9757C24.2402 14.6774 24.492 14.4399 24.7761 14.4246C24.8533 14.4205 24.931 14.424 25.0085 14.4243C28.8557 14.5321 25.2433 14.4326 25.0189 14.4248C29.0203 14.5415 32.3057 17.1987 33.0103 21.1559C33.1304 21.8307 33.1732 22.5207 33.2267 23.2057C33.249 23.4937 33.0859 23.7674 32.775 23.7711Z" fill="#EB5757"/>
<path d="M0 0L0 50L50 50L50 0L0 0ZM40.8131 29.7084L40.8032 29.7479C40.0045 32.9768 36.4037 36.4416 33.0969 37.1624L33.0596 37.1701C30.3859 37.6802 27.6924 37.9348 25.0001 37.9348C24.2076 37.9348 23.4151 37.9101 22.6231 37.8658L18.9713 41.6617C18.0672 42.6031 16.4775 41.9624 16.4775 40.6579V37.0535C13.2941 36.1445 9.96147 32.839 9.19578 29.7478L9.187 29.7083C8.19957 25.1991 8.19957 20.6262 9.187 16.117L9.19578 16.0775C9.99559 12.8486 13.5964 9.38383 16.9021 8.663L16.9405 8.65532C22.2879 7.63499 27.7111 7.63499 33.0596 8.65532L33.0969 8.663C36.4037 9.38383 40.0045 12.8486 40.8032 16.0775L40.8131 16.117C41.8005 20.6263 41.8005 25.1992 40.8131 29.7084Z" fill="#EB5757"/>
</svg>
