<svg width="50" height="50" viewBox="0 0 50 50" fill="none" xmlns="http://www.w3.org/2000/svg">
<path d="M25.0225 10.4581C17.0269 10.4581 10.522 16.963 10.522 24.9586C10.522 27.7446 11.3138 30.45 12.8116 32.7824L13.1716 33.343L11.7612 38.3523L16.9439 37.0181L17.4784 37.3445C19.7444 38.7279 22.3532 39.4592 25.0225 39.4592C33.0181 39.4592 39.523 32.9542 39.523 24.9586C39.523 16.963 33.0181 10.4581 25.0225 10.4581ZM33.9144 29.4153L33.7335 30.2603C33.5294 31.2137 32.9632 32.0571 32.1417 32.5825C31.1046 33.246 29.7603 33.5717 28.0516 33.0885C22.7488 31.5891 19.7499 28.0782 18.1408 25.8839C16.5317 23.6897 15.91 21.4954 16.3122 19.7034C16.582 18.5016 17.4604 17.5795 18.0097 17.1023C18.2789 16.8686 18.628 16.7497 18.9838 16.7691L20.1169 16.8309C20.34 16.8431 20.5369 16.9809 20.6248 17.1864L22.2754 21.0484C22.3636 21.2548 22.3264 21.4933 22.1797 21.663L20.7429 23.3252C20.6264 23.4599 20.6061 23.6519 20.6882 23.81C22.5805 27.4552 26.0293 28.8995 27.0588 29.2614C27.2342 29.323 27.4287 29.2648 27.5423 29.1174L29.0457 27.1685C29.2129 26.9517 29.5077 26.8793 29.7563 26.9939L33.5859 28.7591C33.8355 28.8742 33.9719 29.1467 33.9144 29.4153Z" fill="#EB5757"/>
<path d="M0 0L0 50L50 50L50 0L0 0ZM25.0225 42.4214C22.0222 42.4214 19.0843 41.6534 16.4853 40.1951L7.51474 42.5042L9.96388 33.8057C8.38894 31.1301 7.55972 28.0859 7.55972 24.9586C7.55972 15.3295 15.3935 7.49576 25.0225 7.49576C34.6516 7.49576 42.4853 15.3295 42.4853 24.9586C42.4853 34.5876 34.6516 42.4214 25.0225 42.4214Z" fill="#EB5757"/>
</svg>
