<svg width="375" height="97" viewBox="0 0 375 97" fill="none" xmlns="http://www.w3.org/2000/svg">
<path d="M36.8848 2.99999L37.8723 2.842L37.7376 1.99999H36.8848V2.99999ZM15.9548 2.99999V1.99999H15.1021L14.9674 2.842L15.9548 2.99999ZM1.39484 94L0.407403 93.842L0.222125 95H1.39484V94ZM14.5248 94V95H15.3864L15.5138 94.148L14.5248 94ZM16.9948 77.49V76.49H16.1333L16.0059 77.342L16.9948 77.49ZM34.5448 77.49L35.5338 77.342L35.4064 76.49H34.5448V77.49ZM37.0148 94L36.0259 94.148L36.1533 95H37.0148V94ZM51.4448 94V95H52.6176L52.4323 93.842L51.4448 94ZM25.7048 19.12L26.6938 18.9719H24.7159L25.7048 19.12ZM32.5948 65.14V66.14H33.7557L33.5838 64.9919L32.5948 65.14ZM18.8148 65.14L17.8259 64.9919L17.654 66.14H18.8148V65.14ZM36.8848 1.99999H15.9548V3.99999H36.8848V1.99999ZM14.9674 2.842L0.407403 93.842L2.38228 94.158L16.9423 3.15798L14.9674 2.842ZM1.39484 95H14.5248V93H1.39484V95ZM15.5138 94.148L17.9838 77.638L16.0059 77.342L13.5359 93.852L15.5138 94.148ZM16.9948 78.49H34.5448V76.49H16.9948V78.49ZM33.5559 77.638L36.0259 94.148L38.0038 93.852L35.5338 77.342L33.5559 77.638ZM37.0148 95H51.4448V93H37.0148V95ZM52.4323 93.842L37.8723 2.842L35.8974 3.15798L50.4574 94.158L52.4323 93.842ZM24.7159 19.2681L31.6059 65.2881L33.5838 64.9919L26.6938 18.9719L24.7159 19.2681ZM32.5948 64.14H18.8148V66.14H32.5948V64.14ZM19.8038 65.2881L26.6938 19.2681L24.7159 18.9719L17.8259 64.9919L19.8038 65.2881ZM58.1043 2.99999V1.99999H57.1043V2.99999H58.1043ZM58.1043 94H57.1043V95H58.1043V94ZM91.6443 45.51L91.2194 44.6048L89.1095 45.5951L91.2811 46.4417L91.6443 45.51ZM72.4043 81H71.4043V82H72.4043V81ZM72.4043 53.05V52.05H71.4043V53.05H72.4043ZM72.4043 40.05H71.4043V41.05H72.4043V40.05ZM72.4043 16V15H71.4043V16H72.4043ZM79.6843 1.99999H58.1043V3.99999H79.6843V1.99999ZM57.1043 2.99999V94H59.1043V2.99999H57.1043ZM58.1043 95H80.5943V93H58.1043V95ZM80.5943 95C87.912 95 93.6321 93.0689 97.5189 89.1821C101.406 85.2954 103.304 79.6078 103.304 72.42H101.304C101.304 79.2722 99.498 84.3746 96.1047 87.7679C92.7115 91.1611 87.5766 93 80.5943 93V95ZM103.304 72.42V65.01H101.304V72.42H103.304ZM103.304 65.01C103.304 60.1083 102.544 55.8053 100.739 52.3143C98.9193 48.7966 96.066 46.1604 92.0075 44.5783L91.2811 46.4417C94.8926 47.8496 97.3693 50.1534 98.9623 53.2332C100.569 56.3397 101.304 60.2916 101.304 65.01H103.304ZM92.0692 46.4152C95.4525 44.8272 97.9288 42.4256 99.5434 39.179C101.147 35.9552 101.874 31.952 101.874 27.18H99.8743C99.8743 31.768 99.1718 35.4348 97.7527 38.2884C96.3448 41.1194 94.2061 43.2028 91.2194 44.6048L92.0692 46.4152ZM101.874 27.18V23.93H99.8743V27.18H101.874ZM101.874 23.93C101.874 16.7798 100.254 11.2382 96.5472 7.49622C92.8386 3.75264 87.2297 1.99999 79.6843 1.99999V3.99999C86.9589 3.99999 91.945 5.69235 95.1264 8.90377C98.3094 12.1168 99.8743 17.0402 99.8743 23.93H101.874ZM78.7743 54.05C81.9253 54.05 83.8661 54.6859 85.0747 56.0653C86.3186 57.4849 87.0043 59.9288 87.0043 64.1H89.0043C89.0043 59.8212 88.325 56.7401 86.5789 54.7472C84.7975 52.7141 82.1233 52.05 78.7743 52.05V54.05ZM87.0043 64.1V72.03H89.0043V64.1H87.0043ZM87.0043 72.03C87.0043 75.3185 86.365 77.2582 85.358 78.3829C84.3772 79.4784 82.8639 80 80.5943 80V82C83.1347 82 85.3264 81.4166 86.8481 79.717C88.3436 78.0468 89.0043 75.5015 89.0043 72.03H87.0043ZM80.5943 80H72.4043V82H80.5943V80ZM73.4043 81V53.05H71.4043V81H73.4043ZM72.4043 54.05H78.7743V52.05H72.4043V54.05ZM79.2943 17C81.6372 17 83.1106 17.6516 84.0457 18.8559C85.0267 20.119 85.5743 22.1844 85.5743 25.36H87.5743C87.5743 22.0356 87.0169 19.421 85.6254 17.6291C84.188 15.7784 82.0214 15 79.2943 15V17ZM85.5743 25.36V30.43H87.5743V25.36H85.5743ZM85.5743 30.43C85.5743 33.946 84.7865 36.039 83.5721 37.2668C82.3621 38.49 80.535 39.05 77.9943 39.05V41.05C80.7836 41.05 83.2465 40.44 84.994 38.6732C86.7371 36.911 87.5743 34.194 87.5743 30.43H85.5743ZM77.9943 39.05H72.4043V41.05H77.9943V39.05ZM73.4043 40.05V16H71.4043V40.05H73.4043ZM72.4043 17H79.2943V15H72.4043V17ZM125.047 23.93C125.047 20.8042 125.737 18.8477 126.79 17.6755C127.823 16.525 129.359 15.96 131.457 15.96V13.96C129.005 13.96 126.836 14.63 125.301 16.3395C123.786 18.0272 123.047 20.5558 123.047 23.93H125.047ZM131.457 15.96C133.555 15.96 135.091 16.525 136.124 17.6755C137.176 18.8477 137.867 20.8042 137.867 23.93H139.867C139.867 20.5558 139.127 18.0272 137.612 16.3395C136.078 14.63 133.909 13.96 131.457 13.96V15.96ZM137.867 23.93V73.07H139.867V23.93H137.867ZM137.867 73.07C137.867 76.1958 137.176 78.1523 136.124 79.3245C135.091 80.475 133.555 81.04 131.457 81.04V83.04C133.909 83.04 136.078 82.37 137.612 80.6605C139.127 78.9727 139.867 76.4442 139.867 73.07H137.867ZM131.457 81.04C129.359 81.04 127.823 80.475 126.79 79.3245C125.737 78.1523 125.047 76.1958 125.047 73.07H123.047C123.047 76.4442 123.786 78.9727 125.301 80.6605C126.836 82.37 129.005 83.04 131.457 83.04V81.04ZM125.047 73.07V23.93H123.047V73.07H125.047ZM108.747 72.16C108.747 79.6069 110.709 85.6046 114.609 89.7456C118.517 93.8958 124.238 96.04 131.457 96.04V94.04C124.636 94.04 119.502 92.0242 116.065 88.3744C112.619 84.7154 110.747 79.2731 110.747 72.16H108.747ZM131.457 96.04C138.676 96.04 144.397 93.8958 148.305 89.7456C152.204 85.6046 154.167 79.6069 154.167 72.16H152.167C152.167 79.2731 150.294 84.7154 146.849 88.3744C143.412 92.0242 138.278 94.04 131.457 94.04V96.04ZM154.167 72.16V24.84H152.167V72.16H154.167ZM154.167 24.84C154.167 17.3931 152.204 11.3954 148.305 7.25444C144.397 3.1042 138.676 0.96 131.457 0.96V2.96C138.278 2.96 143.412 4.9758 146.849 8.62555C150.294 12.2846 152.167 17.7269 152.167 24.84H154.167ZM131.457 0.96C124.238 0.96 118.517 3.1042 114.609 7.25444C110.709 11.3954 108.747 17.3931 108.747 24.84H110.747C110.747 17.7269 112.619 12.2846 116.065 8.62555C119.502 4.9758 124.636 2.96 131.457 2.96V0.96ZM108.747 24.84V72.16H110.747V24.84H108.747ZM161.81 2.99999V1.99999H160.81V2.99999H161.81ZM204.45 2.99999H205.45V1.99999H204.45V2.99999ZM190.93 2.99999V1.99999H189.93V2.99999H190.93ZM176.11 2.99999H177.11V1.99999H176.11V2.99999ZM160.81 2.99999V72.29H162.81V2.99999H160.81ZM160.81 72.29C160.81 79.7241 162.668 85.721 166.468 89.8657C170.28 94.0248 175.91 96.17 183.13 96.17V94.17C176.31 94.17 171.279 92.1552 167.942 88.5143C164.591 84.859 162.81 79.4159 162.81 72.29H160.81ZM183.13 96.17C190.35 96.17 195.979 94.0248 199.792 89.8657C203.591 85.721 205.45 79.7241 205.45 72.29H203.45C203.45 79.4159 201.668 84.859 198.318 88.5143C194.98 92.1552 189.95 94.17 183.13 94.17V96.17ZM205.45 72.29V2.99999H203.45V72.29H205.45ZM204.45 1.99999H190.93V3.99999H204.45V1.99999ZM189.93 2.99999V73.2H191.93V2.99999H189.93ZM189.93 73.2C189.93 76.3268 189.239 78.2442 188.195 79.381C187.167 80.4996 185.632 81.04 183.52 81.04V83.04C185.958 83.04 188.128 82.4104 189.667 80.734C191.191 79.0758 191.93 76.5732 191.93 73.2H189.93ZM183.52 81.04C181.408 81.04 179.873 80.4996 178.845 79.381C177.801 78.2442 177.11 76.3268 177.11 73.2H175.11C175.11 76.5732 175.849 79.0758 177.372 80.734C178.912 82.4104 181.082 83.04 183.52 83.04V81.04ZM177.11 73.2V2.99999H175.11V73.2H177.11ZM176.11 1.99999H161.81V3.99999H176.11V1.99999ZM210.097 16H209.097V17H210.097V16ZM225.047 16H226.047V15H225.047V16ZM225.047 94H224.047V95H225.047V94ZM239.347 94V95H240.347V94H239.347ZM239.347 16V15H238.347V16H239.347ZM254.297 16V17H255.297V16H254.297ZM254.297 2.99999H255.297V1.99999H254.297V2.99999ZM210.097 2.99999V1.99999H209.097V2.99999H210.097ZM210.097 17H225.047V15H210.097V17ZM224.047 16V94H226.047V16H224.047ZM225.047 95H239.347V93H225.047V95ZM240.347 94V16H238.347V94H240.347ZM239.347 17H254.297V15H239.347V17ZM255.297 16V2.99999H253.297V16H255.297ZM254.297 1.99999H210.097V3.99999H254.297V1.99999ZM209.097 2.99999V16H211.097V2.99999H209.097ZM280.13 2.99999V1.99999H279.13V2.99999H280.13ZM322.77 2.99999H323.77V1.99999H322.77V2.99999ZM309.25 2.99999V1.99999H308.25V2.99999H309.25ZM294.43 2.99999H295.43V1.99999H294.43V2.99999ZM279.13 2.99999V72.29H281.13V2.99999H279.13ZM279.13 72.29C279.13 79.7241 280.989 85.721 284.788 89.8657C288.6 94.0248 294.23 96.17 301.45 96.17V94.17C294.63 94.17 289.6 92.1552 286.262 88.5143C282.912 84.859 281.13 79.4159 281.13 72.29H279.13ZM301.45 96.17C308.67 96.17 314.3 94.0248 318.112 89.8657C321.912 85.721 323.77 79.7241 323.77 72.29H321.77C321.77 79.4159 319.989 84.859 316.638 88.5143C313.3 92.1552 308.27 94.17 301.45 94.17V96.17ZM323.77 72.29V2.99999H321.77V72.29H323.77ZM322.77 1.99999H309.25V3.99999H322.77V1.99999ZM308.25 2.99999V73.2H310.25V2.99999H308.25ZM308.25 73.2C308.25 76.3268 307.559 78.2442 306.515 79.381C305.487 80.4996 303.952 81.04 301.84 81.04V83.04C304.278 83.04 306.448 82.4104 307.988 80.734C309.511 79.0758 310.25 76.5732 310.25 73.2H308.25ZM301.84 81.04C299.728 81.04 298.193 80.4996 297.165 79.381C296.121 78.2442 295.43 76.3268 295.43 73.2H293.43C293.43 76.5732 294.169 79.0758 295.692 80.734C297.232 82.4104 299.402 83.04 301.84 83.04V81.04ZM295.43 73.2V2.99999H293.43V73.2H295.43ZM294.43 1.99999H280.13V3.99999H294.43V1.99999ZM343.887 66.57H344.887V65.57H343.887V66.57ZM330.367 66.57V65.57H329.367V66.57H330.367ZM359.357 27.7H358.357V28.7H359.357V27.7ZM372.877 27.7V28.7H373.877V27.7H372.877ZM329.757 24.84C329.757 38.2867 337.03 45.919 344.053 52.4189C347.59 55.693 350.995 58.6224 353.551 61.9069C356.076 65.1524 357.707 68.6716 357.707 73.07H359.707C359.707 68.1083 357.844 64.1688 355.129 60.6787C352.444 57.2276 348.861 54.1445 345.411 50.9511C338.459 44.516 331.757 37.3933 331.757 24.84H329.757ZM357.707 73.07C357.707 76.1968 357.016 78.1142 355.972 79.251C354.944 80.3696 353.409 80.91 351.297 80.91V82.91C353.735 82.91 355.905 82.2804 357.445 80.604C358.968 78.9458 359.707 76.4432 359.707 73.07H357.707ZM351.297 80.91C349.185 80.91 347.65 80.3696 346.622 79.251C345.578 78.1142 344.887 76.1968 344.887 73.07H342.887C342.887 76.4432 343.626 78.9458 345.149 80.604C346.689 82.2804 348.859 82.91 351.297 82.91V80.91ZM344.887 73.07V66.57H342.887V73.07H344.887ZM343.887 65.57H330.367V67.57H343.887V65.57ZM329.367 66.57V72.16H331.367V66.57H329.367ZM329.367 72.16C329.367 79.5941 331.225 85.591 335.025 89.7357C338.837 93.8948 344.467 96.04 351.687 96.04V94.04C344.867 94.04 339.837 92.0252 336.499 88.3843C333.148 84.729 331.367 79.2859 331.367 72.16H329.367ZM351.687 96.04C358.907 96.04 364.537 93.8948 368.349 89.7357C372.148 85.591 374.007 79.5941 374.007 72.16H372.007C372.007 79.2859 370.225 84.729 366.875 88.3843C363.537 92.0252 358.507 94.04 351.687 94.04V96.04ZM374.007 72.16C374.007 58.7133 366.734 51.081 359.711 44.5811C356.174 41.307 352.769 38.3776 350.213 35.0931C347.688 31.8476 346.057 28.3283 346.057 23.93H344.057C344.057 28.8916 345.919 32.8312 348.635 36.3213C351.32 39.7724 354.903 42.8555 358.353 46.0489C365.305 52.484 372.007 59.6067 372.007 72.16H374.007ZM346.057 23.93C346.057 20.7837 346.691 18.8242 347.687 17.6561C348.652 16.5232 350.111 15.96 352.207 15.96V13.96C349.753 13.96 347.637 14.6318 346.165 16.3588C344.723 18.0508 344.057 20.5763 344.057 23.93H346.057ZM352.207 15.96C354.303 15.96 355.762 16.5232 356.727 17.6561C357.723 18.8242 358.357 20.7837 358.357 23.93H360.357C360.357 20.5763 359.691 18.0508 358.249 16.3588C356.777 14.6318 354.661 13.96 352.207 13.96V15.96ZM358.357 23.93V27.7H360.357V23.93H358.357ZM359.357 28.7H372.877V26.7H359.357V28.7ZM373.877 27.7V24.84H371.877V27.7H373.877ZM373.877 24.84C373.877 17.4101 372.053 11.4147 368.305 7.26933C364.542 3.10712 358.975 0.96 351.817 0.96V2.96C358.569 2.96 363.532 4.97287 366.821 8.61067C370.126 12.2653 371.877 17.7099 371.877 24.84H373.877ZM351.817 0.96C344.659 0.96 339.092 3.10712 335.329 7.26933C331.581 11.4147 329.757 17.4101 329.757 24.84H331.757C331.757 17.7099 333.508 12.2653 336.812 8.61067C340.102 4.97287 345.065 2.96 351.817 2.96V0.96Z" fill="#E2E2E2"/>
</svg>
