<svg width="245" height="97" viewBox="0 0 245 97" fill="none" xmlns="http://www.w3.org/2000/svg">
<path d="M30.9566 60.07V59.07H29.9566V60.07H30.9566ZM30.9566 33.68H29.9566V34.68H30.9566V33.68ZM44.4766 33.68V34.68H45.4766V33.68H44.4766ZM44.4766 60.07H45.4766V59.07H44.4766V60.07ZM29.9566 60.07V73.07H31.9566V60.07H29.9566ZM29.9566 73.07C29.9566 76.1967 29.2658 78.1142 28.2215 79.251C27.1939 80.3696 25.6587 80.91 23.5466 80.91V82.91C25.9846 82.91 28.1544 82.2804 29.6943 80.604C31.2175 78.9458 31.9566 76.4432 31.9566 73.07H29.9566ZM23.5466 80.91C21.4346 80.91 19.8994 80.3696 18.8718 79.251C17.8275 78.1142 17.1366 76.1968 17.1366 73.07H15.1366C15.1366 76.4432 15.8757 78.9458 17.3989 80.604C18.9389 82.2804 21.1087 82.91 23.5466 82.91V80.91ZM17.1366 73.07V23.93H15.1366V73.07H17.1366ZM17.1366 23.93C17.1366 20.8042 17.8272 18.8477 18.8795 17.6755C19.9124 16.525 21.4488 15.96 23.5466 15.96V13.96C21.0944 13.96 18.9259 14.63 17.3913 16.3395C15.8761 18.0272 15.1366 20.5558 15.1366 23.93H17.1366ZM23.5466 15.96C25.6444 15.96 27.1809 16.525 28.2138 17.6755C29.2661 18.8477 29.9566 20.8042 29.9566 23.93H31.9566C31.9566 20.5558 31.2172 18.0272 29.702 16.3395C28.1674 14.63 25.9988 13.96 23.5466 13.96V15.96ZM29.9566 23.93V33.68H31.9566V23.93H29.9566ZM30.9566 34.68H44.4766V32.68H30.9566V34.68ZM45.4766 33.68V24.84H43.4766V33.68H45.4766ZM45.4766 24.84C45.4766 17.4059 43.6182 11.409 39.8188 7.26427C36.0063 3.10516 30.3768 0.96 23.1566 0.96V2.96C29.9765 2.96 35.007 4.97484 38.3445 8.61572C41.6951 12.271 43.4766 17.7141 43.4766 24.84H45.4766ZM23.1566 0.96C15.9365 0.96 10.307 3.10516 6.49449 7.26427C2.69513 11.409 0.836641 17.4059 0.836641 24.84H2.83664C2.83664 17.7141 4.61815 12.271 7.96879 8.61572C11.3063 4.97484 16.3368 2.96 23.1566 2.96V0.96ZM0.836641 24.84V72.16H2.83664V24.84H0.836641ZM0.836641 72.16C0.836641 79.5941 2.69513 85.591 6.49449 89.7357C10.307 93.8948 15.9365 96.04 23.1566 96.04V94.04C16.3368 94.04 11.3063 92.0252 7.96879 88.3843C4.61815 84.729 2.83664 79.2859 2.83664 72.16H0.836641ZM23.1566 96.04C30.3768 96.04 36.0063 93.8948 39.8188 89.7357C43.6182 85.591 45.4766 79.5941 45.4766 72.16H43.4766C43.4766 79.2859 41.6951 84.729 38.3445 88.3843C35.007 92.0252 29.9765 94.04 23.1566 94.04V96.04ZM45.4766 72.16V60.07H43.4766V72.16H45.4766ZM44.4766 59.07H30.9566V61.07H44.4766V59.07ZM84.8731 2.99999L85.8606 2.842L85.7258 1.99999H84.8731V2.99999ZM63.9431 2.99999V1.99999H63.0904L62.9557 2.842L63.9431 2.99999ZM49.3831 94L48.3957 93.842L48.2104 95H49.3831V94ZM62.5131 94V95H63.3746L63.5021 94.148L62.5131 94ZM64.9831 77.49V76.49H64.1216L63.9941 77.342L64.9831 77.49ZM82.5331 77.49L83.5221 77.342L83.3946 76.49H82.5331V77.49ZM85.0031 94L84.0141 94.148L84.1416 95H85.0031V94ZM99.4331 94V95H100.606L100.421 93.842L99.4331 94ZM73.6931 19.12L74.6821 18.9719H72.7041L73.6931 19.12ZM80.5831 65.14V66.14H81.744L81.5721 64.9919L80.5831 65.14ZM66.8031 65.14L65.8141 64.9919L65.6423 66.14H66.8031V65.14ZM84.8731 1.99999H63.9431V3.99999H84.8731V1.99999ZM62.9557 2.842L48.3957 93.842L50.3706 94.158L64.9306 3.15798L62.9557 2.842ZM49.3831 95H62.5131V93H49.3831V95ZM63.5021 94.148L65.9721 77.638L63.9941 77.342L61.5241 93.852L63.5021 94.148ZM64.9831 78.49H82.5331V76.49H64.9831V78.49ZM81.5441 77.638L84.0141 94.148L85.9921 93.852L83.5221 77.342L81.5441 77.638ZM85.0031 95H99.4331V93H85.0031V95ZM100.421 93.842L85.8606 2.842L83.8857 3.15798L98.4457 94.158L100.421 93.842ZM72.7041 19.2681L79.5941 65.2881L81.5721 64.9919L74.6821 18.9719L72.7041 19.2681ZM80.5831 64.14H66.8031V66.14H80.5831V64.14ZM67.7921 65.2881L74.6821 19.2681L72.7041 18.9719L65.8141 64.9919L67.7921 65.2881ZM117.403 66.57H118.403V65.57H117.403V66.57ZM103.883 66.57V65.57H102.883V66.57H103.883ZM132.873 27.7H131.873V28.7H132.873V27.7ZM146.393 27.7V28.7H147.393V27.7H146.393ZM103.273 24.84C103.273 38.2867 110.546 45.919 117.568 52.4189C121.106 55.693 124.511 58.6224 127.066 61.9069C129.591 65.1524 131.223 68.6716 131.223 73.07H133.223C133.223 68.1083 131.36 64.1688 128.645 60.6787C125.959 57.2276 122.377 54.1445 118.927 50.9511C111.974 44.516 105.273 37.3933 105.273 24.84H103.273ZM131.223 73.07C131.223 76.1968 130.532 78.1142 129.487 79.251C128.46 80.3696 126.925 80.91 124.813 80.91V82.91C127.251 82.91 129.42 82.2804 130.96 80.604C132.483 78.9458 133.223 76.4432 133.223 73.07H131.223ZM124.813 80.91C122.701 80.91 121.165 80.3696 120.138 79.251C119.093 78.1142 118.403 76.1968 118.403 73.07H116.403C116.403 76.4432 117.142 78.9458 118.665 80.604C120.205 82.2804 122.375 82.91 124.813 82.91V80.91ZM118.403 73.07V66.57H116.403V73.07H118.403ZM117.403 65.57H103.883V67.57H117.403V65.57ZM102.883 66.57V72.16H104.883V66.57H102.883ZM102.883 72.16C102.883 79.5941 104.741 85.591 108.54 89.7357C112.353 93.8948 117.982 96.04 125.203 96.04V94.04C118.383 94.04 113.352 92.0252 110.015 88.3843C106.664 84.729 104.883 79.2859 104.883 72.16H102.883ZM125.203 96.04C132.423 96.04 138.052 93.8948 141.865 89.7357C145.664 85.591 147.523 79.5941 147.523 72.16H145.523C145.523 79.2859 143.741 84.729 140.39 88.3843C137.053 92.0252 132.022 94.04 125.203 94.04V96.04ZM147.523 72.16C147.523 58.7133 140.249 51.081 133.227 44.5811C129.689 41.307 126.284 38.3776 123.729 35.0931C121.204 31.8476 119.573 28.3283 119.573 23.93H117.573C117.573 28.8916 119.435 32.8312 122.151 36.3213C124.836 39.7724 128.418 42.8555 131.868 46.0489C138.821 52.484 145.523 59.6067 145.523 72.16H147.523ZM119.573 23.93C119.573 20.7837 120.207 18.8242 121.202 17.6561C122.168 16.5232 123.627 15.96 125.723 15.96V13.96C123.268 13.96 121.152 14.6318 119.68 16.3588C118.238 18.0508 117.573 20.5763 117.573 23.93H119.573ZM125.723 15.96C127.818 15.96 129.277 16.5232 130.243 17.6561C131.238 18.8242 131.873 20.7837 131.873 23.93H133.873C133.873 20.5763 133.207 18.0508 131.765 16.3588C130.293 14.6318 128.177 13.96 125.723 13.96V15.96ZM131.873 23.93V27.7H133.873V23.93H131.873ZM132.873 28.7H146.393V26.7H132.873V28.7ZM147.393 27.7V24.84H145.393V27.7H147.393ZM147.393 24.84C147.393 17.4101 145.569 11.4147 141.821 7.26933C138.057 3.10712 132.491 0.96 125.333 0.96V2.96C132.084 2.96 137.048 4.97287 140.337 8.61067C143.641 12.2653 145.393 17.7099 145.393 24.84H147.393ZM125.333 0.96C118.174 0.96 112.608 3.10712 108.845 7.26933C105.096 11.4147 103.273 17.4101 103.273 24.84H105.273C105.273 17.7099 107.024 12.2653 110.328 8.61067C113.617 4.97287 118.581 2.96 125.333 2.96V0.96ZM169.016 16V15H168.016V16H169.016ZM193.716 16V17H194.716V16H193.716ZM193.716 2.99999H194.716V1.99999H193.716V2.99999ZM154.716 2.99999V1.99999H153.716V2.99999H154.716ZM154.716 94H153.716V95H154.716V94ZM193.716 94V95H194.716V94H193.716ZM193.716 81H194.716V80H193.716V81ZM169.016 81H168.016V82H169.016V81ZM169.016 54.35V53.35H168.016V54.35H169.016ZM188.646 54.35V55.35H189.646V54.35H188.646ZM188.646 41.35H189.646V40.35H188.646V41.35ZM169.016 41.35H168.016V42.35H169.016V41.35ZM169.016 17H193.716V15H169.016V17ZM194.716 16V2.99999H192.716V16H194.716ZM193.716 1.99999H154.716V3.99999H193.716V1.99999ZM153.716 2.99999V94H155.716V2.99999H153.716ZM154.716 95H193.716V93H154.716V95ZM194.716 94V81H192.716V94H194.716ZM193.716 80H169.016V82H193.716V80ZM170.016 81V54.35H168.016V81H170.016ZM169.016 55.35H188.646V53.35H169.016V55.35ZM189.646 54.35V41.35H187.646V54.35H189.646ZM188.646 40.35H169.016V42.35H188.646V40.35ZM170.016 41.35V16H168.016V41.35H170.016ZM213.887 66.57H214.887V65.57H213.887V66.57ZM200.367 66.57V65.57H199.367V66.57H200.367ZM229.357 27.7H228.357V28.7H229.357V27.7ZM242.877 27.7V28.7H243.877V27.7H242.877ZM199.757 24.84C199.757 38.2867 207.03 45.919 214.053 52.4189C217.59 55.693 220.995 58.6224 223.551 61.9069C226.076 65.1524 227.707 68.6716 227.707 73.07H229.707C229.707 68.1083 227.844 64.1688 225.129 60.6787C222.444 57.2276 218.861 54.1445 215.411 50.9511C208.459 44.516 201.757 37.3933 201.757 24.84H199.757ZM227.707 73.07C227.707 76.1968 227.016 78.1142 225.972 79.251C224.944 80.3696 223.409 80.91 221.297 80.91V82.91C223.735 82.91 225.905 82.2804 227.445 80.604C228.968 78.9458 229.707 76.4432 229.707 73.07H227.707ZM221.297 80.91C219.185 80.91 217.65 80.3696 216.622 79.251C215.578 78.1142 214.887 76.1968 214.887 73.07H212.887C212.887 76.4432 213.626 78.9458 215.149 80.604C216.689 82.2804 218.859 82.91 221.297 82.91V80.91ZM214.887 73.07V66.57H212.887V73.07H214.887ZM213.887 65.57H200.367V67.57H213.887V65.57ZM199.367 66.57V72.16H201.367V66.57H199.367ZM199.367 72.16C199.367 79.5941 201.225 85.591 205.025 89.7357C208.837 93.8948 214.467 96.04 221.687 96.04V94.04C214.867 94.04 209.837 92.0252 206.499 88.3843C203.148 84.729 201.367 79.2859 201.367 72.16H199.367ZM221.687 96.04C228.907 96.04 234.537 93.8948 238.349 89.7357C242.148 85.591 244.007 79.5941 244.007 72.16H242.007C242.007 79.2859 240.225 84.729 236.875 88.3843C233.537 92.0252 228.507 94.04 221.687 94.04V96.04ZM244.007 72.16C244.007 58.7133 236.734 51.081 229.711 44.5811C226.174 41.307 222.769 38.3776 220.213 35.0931C217.688 31.8476 216.057 28.3283 216.057 23.93H214.057C214.057 28.8916 215.919 32.8312 218.635 36.3213C221.32 39.7724 224.903 42.8555 228.353 46.0489C235.305 52.484 242.007 59.6067 242.007 72.16H244.007ZM216.057 23.93C216.057 20.7837 216.691 18.8242 217.687 17.6561C218.652 16.5232 220.111 15.96 222.207 15.96V13.96C219.753 13.96 217.637 14.6318 216.165 16.3588C214.723 18.0508 214.057 20.5763 214.057 23.93H216.057ZM222.207 15.96C224.303 15.96 225.762 16.5232 226.727 17.6561C227.723 18.8242 228.357 20.7837 228.357 23.93H230.357C230.357 20.5763 229.691 18.0508 228.249 16.3588C226.777 14.6318 224.661 13.96 222.207 13.96V15.96ZM228.357 23.93V27.7H230.357V23.93H228.357ZM229.357 28.7H242.877V26.7H229.357V28.7ZM243.877 27.7V24.84H241.877V27.7H243.877ZM243.877 24.84C243.877 17.4101 242.053 11.4147 238.305 7.26933C234.542 3.10712 228.975 0.96 221.817 0.96V2.96C228.569 2.96 233.532 4.97287 236.821 8.61067C240.126 12.2653 241.877 17.7099 241.877 24.84H243.877ZM221.817 0.96C214.659 0.96 209.092 3.10712 205.329 7.26933C201.581 11.4147 199.757 17.4101 199.757 24.84H201.757C201.757 17.7099 203.508 12.2653 206.812 8.61067C210.102 4.97287 215.065 2.96 221.817 2.96V0.96Z" fill="#E2E2E2"/>
</svg>
