<svg width="574" height="210" viewBox="0 0 574 210" fill="none" xmlns="http://www.w3.org/2000/svg">
<path d="M438.685 23.93C438.685 20.8042 439.376 18.8477 440.428 17.6755C441.461 16.525 442.998 15.96 445.095 15.96V13.96C442.643 13.96 440.475 14.63 438.94 16.3395C437.425 18.0272 436.685 20.5558 436.685 23.93H438.685ZM445.095 15.96C447.193 15.96 448.73 16.525 449.763 17.6755C450.815 18.8477 451.505 20.8042 451.505 23.93H453.505C453.505 20.5558 452.766 18.0272 451.251 16.3395C449.716 14.63 447.548 13.96 445.095 13.96V15.96ZM451.505 23.93V73.07H453.505V23.93H451.505ZM451.505 73.07C451.505 76.1958 450.815 78.1523 449.763 79.3245C448.73 80.475 447.193 81.04 445.095 81.04V83.04C447.548 83.04 449.716 82.37 451.251 80.6605C452.766 78.9727 453.505 76.4442 453.505 73.07H451.505ZM445.095 81.04C442.998 81.04 441.461 80.475 440.428 79.3245C439.376 78.1523 438.685 76.1958 438.685 73.07H436.685C436.685 76.4442 437.425 78.9727 438.94 80.6605C440.475 82.37 442.643 83.04 445.095 83.04V81.04ZM438.685 73.07V23.93H436.685V73.07H438.685ZM422.385 72.16C422.385 79.6069 424.348 85.6046 428.247 89.7456C432.156 93.8958 437.876 96.04 445.095 96.04V94.04C438.275 94.04 433.14 92.0242 429.703 88.3744C426.258 84.7154 424.385 79.2731 424.385 72.16H422.385ZM445.095 96.04C452.315 96.04 458.035 93.8958 461.943 89.7456C465.843 85.6046 467.805 79.6069 467.805 72.16H465.805C465.805 79.2731 463.933 84.7154 460.487 88.3744C457.051 92.0242 451.916 94.04 445.095 94.04V96.04ZM467.805 72.16V24.84H465.805V72.16H467.805ZM467.805 24.84C467.805 17.3931 465.843 11.3954 461.943 7.25444C458.035 3.1042 452.315 0.96 445.095 0.96V2.96C451.916 2.96 457.051 4.9758 460.487 8.62555C463.933 12.2846 465.805 17.7269 465.805 24.84H467.805ZM445.095 0.96C437.876 0.96 432.156 3.1042 428.247 7.25444C424.348 11.3954 422.385 17.3931 422.385 24.84H424.385C424.385 17.7269 426.258 12.2846 429.703 8.62555C433.14 4.9758 438.275 2.96 445.095 2.96V0.96ZM422.385 24.84V72.16H424.385V24.84H422.385ZM475.448 2.99999V1.99999H474.448V2.99999H475.448ZM518.088 2.99999H519.088V1.99999H518.088V2.99999ZM504.568 2.99999V1.99999H503.568V2.99999H504.568ZM489.748 2.99999H490.748V1.99999H489.748V2.99999ZM474.448 2.99999V72.29H476.448V2.99999H474.448ZM474.448 72.29C474.448 79.7241 476.307 85.721 480.106 89.8657C483.919 94.0248 489.548 96.17 496.768 96.17V94.17C489.949 94.17 484.918 92.1552 481.581 88.5143C478.23 84.859 476.448 79.4159 476.448 72.29H474.448ZM496.768 96.17C503.989 96.17 509.618 94.0248 513.431 89.8657C517.23 85.721 519.088 79.7241 519.088 72.29H517.088C517.088 79.4159 515.307 84.859 511.956 88.5143C508.619 92.1552 503.588 94.17 496.768 94.17V96.17ZM519.088 72.29V2.99999H517.088V72.29H519.088ZM518.088 1.99999H504.568V3.99999H518.088V1.99999ZM503.568 2.99999V73.2H505.568V2.99999H503.568ZM503.568 73.2C503.568 76.3268 502.878 78.2442 501.833 79.381C500.806 80.4996 499.27 81.04 497.158 81.04V83.04C499.596 83.04 501.766 82.4104 503.306 80.734C504.829 79.0758 505.568 76.5732 505.568 73.2H503.568ZM497.158 81.04C495.046 81.04 493.511 80.4996 492.484 79.381C491.439 78.2442 490.748 76.3268 490.748 73.2H488.748C488.748 76.5732 489.488 79.0758 491.011 80.734C492.551 82.4104 494.72 83.04 497.158 83.04V81.04ZM490.748 73.2V2.99999H488.748V73.2H490.748ZM489.748 1.99999H475.448V3.99999H489.748V1.99999ZM572.355 94V95H573.864L573.276 93.6104L572.355 94ZM561.305 49.54L560.88 48.6348L558.839 49.5928L560.919 50.4626L561.305 49.54ZM527.895 2.99999V1.99999H526.895V2.99999H527.895ZM527.895 94H526.895V95H527.895V94ZM542.195 94V95H543.195V94H542.195ZM542.195 56.95V55.95H541.195V56.95H542.195ZM557.795 94L556.847 94.3162L557.075 95H557.795V94ZM542.195 43.95H541.195V44.95H542.195V43.95ZM542.195 16V15H541.195V16H542.195ZM573.276 93.6104C571.933 90.4359 571.795 87.371 571.795 82.95H569.795C569.795 87.369 569.917 90.8041 571.434 94.3896L573.276 93.6104ZM571.795 82.95V68.91H569.795V82.95H571.795ZM571.795 68.91C571.795 59.3107 569.425 51.8515 561.691 48.6174L560.919 50.4626C567.486 53.2085 569.795 59.5293 569.795 68.91H571.795ZM561.73 50.4452C568.583 47.2286 571.665 40.6572 571.665 31.08H569.665C569.665 40.2228 566.768 45.8714 560.88 48.6348L561.73 50.4452ZM571.665 31.08V23.93H569.665V31.08H571.665ZM571.665 23.93C571.665 16.7798 570.045 11.2382 566.338 7.49622C562.63 3.75264 557.021 1.99999 549.475 1.99999V3.99999C556.75 3.99999 561.736 5.69235 564.917 8.90377C568.1 12.1168 569.665 17.0402 569.665 23.93H571.665ZM549.475 1.99999H527.895V3.99999H549.475V1.99999ZM526.895 2.99999V94H528.895V2.99999H526.895ZM527.895 95H542.195V93H527.895V95ZM543.195 94V56.95H541.195V94H543.195ZM542.195 57.95H547.135V55.95H542.195V57.95ZM547.135 57.95C550.24 57.95 552.226 58.6932 553.484 60.2058C554.783 61.7669 555.495 64.3634 555.495 68.52H557.495C557.495 64.2266 556.778 61.0381 555.022 58.9267C553.225 56.7668 550.531 55.95 547.135 55.95V57.95ZM555.495 68.52V82.82H557.495V68.52H555.495ZM555.495 82.82C555.495 86.5398 555.625 88.8064 555.863 90.4541C556.104 92.1262 556.455 93.1422 556.847 94.3162L558.744 93.6838C558.355 92.5178 558.056 91.6488 557.843 90.1684C557.625 88.6636 557.495 86.5102 557.495 82.82H555.495ZM557.795 95H572.355V93H557.795V95ZM549.085 17C551.428 17 552.902 17.6516 553.837 18.8559C554.818 20.119 555.365 22.1844 555.365 25.36H557.365C557.365 22.0356 556.808 19.421 555.416 17.6291C553.979 15.7784 551.812 15 549.085 15V17ZM555.365 25.36V34.33H557.365V25.36H555.365ZM555.365 34.33C555.365 37.846 554.578 39.939 553.363 41.1668C552.153 42.39 550.326 42.95 547.785 42.95V44.95C550.575 44.95 553.037 44.34 554.785 42.5732C556.528 40.811 557.365 38.094 557.365 34.33H555.365ZM547.785 42.95H542.195V44.95H547.785V42.95ZM543.195 43.95V16H541.195V43.95H543.195ZM542.195 17H549.085V15H542.195V17ZM1.70406 129H0.704062V130H1.70406V129ZM16.6541 129H17.6541V128H16.6541V129ZM16.6541 207H15.6541V208H16.6541V207ZM30.9541 207V208H31.9541V207H30.9541ZM30.9541 129V128H29.9541V129H30.9541ZM45.9041 129V130H46.9041V129H45.9041ZM45.9041 116H46.9041V115H45.9041V116ZM1.70406 116V115H0.704062V116H1.70406ZM1.70406 130H16.6541V128H1.70406V130ZM15.6541 129V207H17.6541V129H15.6541ZM16.6541 208H30.9541V206H16.6541V208ZM31.9541 207V129H29.9541V207H31.9541ZM30.9541 130H45.9041V128H30.9541V130ZM46.9041 129V116H44.9041V129H46.9041ZM45.9041 115H1.70406V117H45.9041V115ZM0.704062 116V129H2.70406V116H0.704062ZM66.502 129V128H65.502V129H66.502ZM91.202 129V130H92.202V129H91.202ZM91.202 116H92.202V115H91.202V116ZM52.202 116V115H51.202V116H52.202ZM52.202 207H51.202V208H52.202V207ZM91.202 207V208H92.202V207H91.202ZM91.202 194H92.202V193H91.202V194ZM66.502 194H65.502V195H66.502V194ZM66.502 167.35V166.35H65.502V167.35H66.502ZM86.132 167.35V168.35H87.132V167.35H86.132ZM86.132 154.35H87.132V153.35H86.132V154.35ZM66.502 154.35H65.502V155.35H66.502V154.35ZM66.502 130H91.202V128H66.502V130ZM92.202 129V116H90.202V129H92.202ZM91.202 115H52.202V117H91.202V115ZM51.202 116V207H53.202V116H51.202ZM52.202 208H91.202V206H52.202V208ZM92.202 207V194H90.202V207H92.202ZM91.202 193H66.502V195H91.202V193ZM67.502 194V167.35H65.502V194H67.502ZM66.502 168.35H86.132V166.35H66.502V168.35ZM87.132 167.35V154.35H85.132V167.35H87.132ZM86.132 153.35H66.502V155.35H86.132V153.35ZM67.502 154.35V129H65.502V154.35H67.502ZM128.013 173.07V172.07H127.013V173.07H128.013ZM128.013 146.68H127.013V147.68H128.013V146.68ZM141.533 146.68V147.68H142.533V146.68H141.533ZM141.533 173.07H142.533V172.07H141.533V173.07ZM127.013 173.07V186.07H129.013V173.07H127.013ZM127.013 186.07C127.013 189.197 126.322 191.114 125.278 192.251C124.251 193.37 122.715 193.91 120.603 193.91V195.91C123.041 195.91 125.211 195.28 126.751 193.604C128.274 191.946 129.013 189.443 129.013 186.07H127.013ZM120.603 193.91C118.491 193.91 116.956 193.37 115.928 192.251C114.884 191.114 114.193 189.197 114.193 186.07H112.193C112.193 189.443 112.932 191.946 114.456 193.604C115.996 195.28 118.165 195.91 120.603 195.91V193.91ZM114.193 186.07V136.93H112.193V186.07H114.193ZM114.193 136.93C114.193 133.804 114.884 131.848 115.936 130.676C116.969 129.525 118.505 128.96 120.603 128.96V126.96C118.151 126.96 115.983 127.63 114.448 129.339C112.933 131.027 112.193 133.556 112.193 136.93H114.193ZM120.603 128.96C122.701 128.96 124.238 129.525 125.27 130.676C126.323 131.848 127.013 133.804 127.013 136.93H129.013C129.013 133.556 128.274 131.027 126.759 129.339C125.224 127.63 123.055 126.96 120.603 126.96V128.96ZM127.013 136.93V146.68H129.013V136.93H127.013ZM128.013 147.68H141.533V145.68H128.013V147.68ZM142.533 146.68V137.84H140.533V146.68H142.533ZM142.533 137.84C142.533 130.406 140.675 124.409 136.875 120.264C133.063 116.105 127.433 113.96 120.213 113.96V115.96C127.033 115.96 132.064 117.975 135.401 121.616C138.752 125.271 140.533 130.714 140.533 137.84H142.533ZM120.213 113.96C112.993 113.96 107.364 116.105 103.551 120.264C99.7518 124.409 97.8933 130.406 97.8933 137.84H99.8933C99.8933 130.714 101.675 125.271 105.025 121.616C108.363 117.975 113.393 115.96 120.213 115.96V113.96ZM97.8933 137.84V185.16H99.8933V137.84H97.8933ZM97.8933 185.16C97.8933 192.594 99.7518 198.591 103.551 202.736C107.364 206.895 112.993 209.04 120.213 209.04V207.04C113.393 207.04 108.363 205.025 105.025 201.384C101.675 197.729 99.8933 192.286 99.8933 185.16H97.8933ZM120.213 209.04C127.433 209.04 133.063 206.895 136.875 202.736C140.675 198.591 142.533 192.594 142.533 185.16H140.533C140.533 192.286 138.752 197.729 135.401 201.384C132.064 205.025 127.033 207.04 120.213 207.04V209.04ZM142.533 185.16V173.07H140.533V185.16H142.533ZM141.533 172.07H128.013V174.07H141.533V172.07ZM164.51 168V167H163.51V168H164.51ZM180.76 168H181.76V167H180.76V168ZM180.76 207H179.76V208H180.76V207ZM195.32 207V208H196.32V207H195.32ZM195.32 116H196.32V115H195.32V116ZM180.76 116V115H179.76V116H180.76ZM180.76 155V156H181.76V155H180.76ZM164.51 155H163.51V156H164.51V155ZM164.51 116H165.51V115H164.51V116ZM150.21 116V115H149.21V116H150.21ZM150.21 207H149.21V208H150.21V207ZM164.51 207V208H165.51V207H164.51ZM164.51 169H180.76V167H164.51V169ZM179.76 168V207H181.76V168H179.76ZM180.76 208H195.32V206H180.76V208ZM196.32 207V116H194.32V207H196.32ZM195.32 115H180.76V117H195.32V115ZM179.76 116V155H181.76V116H179.76ZM180.76 154H164.51V156H180.76V154ZM165.51 155V116H163.51V155H165.51ZM164.51 115H150.21V117H164.51V115ZM149.21 116V207H151.21V116H149.21ZM150.21 208H164.51V206H150.21V208ZM165.51 207V168H163.51V207H165.51ZM236.238 207L235.273 207.261L235.473 208H236.238V207ZM250.928 207V208H251.928V207H250.928ZM250.928 116H251.928V115H250.928V116ZM238.188 116V115H237.188V116H238.188ZM238.188 170.47L237.223 170.73L239.188 170.47H238.188ZM223.498 116L224.464 115.74L224.264 115H223.498V116ZM205.558 116V115H204.558V116H205.558ZM205.558 207H204.558V208H205.558V207ZM218.428 207V208H219.428V207H218.428ZM218.428 141.09L219.394 140.829L217.428 141.09H218.428ZM236.238 208H250.928V206H236.238V208ZM251.928 207V116H249.928V207H251.928ZM250.928 115H238.188V117H250.928V115ZM237.188 116V170.47H239.188V116H237.188ZM239.154 170.21L224.464 115.74L222.533 116.26L237.223 170.73L239.154 170.21ZM223.498 115H205.558V117H223.498V115ZM204.558 116V207H206.558V116H204.558ZM205.558 208H218.428V206H205.558V208ZM219.428 207V141.09H217.428V207H219.428ZM217.463 141.351L235.273 207.261L237.204 206.739L219.394 140.829L217.463 141.351ZM275.297 136.93C275.297 133.804 275.987 131.848 277.04 130.676C278.073 129.525 279.609 128.96 281.707 128.96V126.96C279.255 126.96 277.086 127.63 275.551 129.339C274.036 131.027 273.297 133.556 273.297 136.93H275.297ZM281.707 128.96C283.805 128.96 285.341 129.525 286.374 130.676C287.426 131.848 288.117 133.804 288.117 136.93H290.117C290.117 133.556 289.377 131.027 287.862 129.339C286.328 127.63 284.159 126.96 281.707 126.96V128.96ZM288.117 136.93V186.07H290.117V136.93H288.117ZM288.117 186.07C288.117 189.196 287.426 191.152 286.374 192.324C285.341 193.475 283.805 194.04 281.707 194.04V196.04C284.159 196.04 286.328 195.37 287.862 193.661C289.377 191.973 290.117 189.444 290.117 186.07H288.117ZM281.707 194.04C279.609 194.04 278.073 193.475 277.04 192.324C275.987 191.152 275.297 189.196 275.297 186.07H273.297C273.297 189.444 274.036 191.973 275.551 193.661C277.086 195.37 279.255 196.04 281.707 196.04V194.04ZM275.297 186.07V136.93H273.297V186.07H275.297ZM258.997 185.16C258.997 192.607 260.959 198.605 264.859 202.746C268.767 206.896 274.488 209.04 281.707 209.04V207.04C274.886 207.04 269.752 205.024 266.315 201.374C262.869 197.715 260.997 192.273 260.997 185.16H258.997ZM281.707 209.04C288.926 209.04 294.647 206.896 298.555 202.746C302.454 198.605 304.417 192.607 304.417 185.16H302.417C302.417 192.273 300.544 197.715 297.099 201.374C293.662 205.024 288.528 207.04 281.707 207.04V209.04ZM304.417 185.16V137.84H302.417V185.16H304.417ZM304.417 137.84C304.417 130.393 302.454 124.395 298.555 120.254C294.647 116.104 288.926 113.96 281.707 113.96V115.96C288.528 115.96 293.662 117.976 297.099 121.626C300.544 125.285 302.417 130.727 302.417 137.84H304.417ZM281.707 113.96C274.488 113.96 268.767 116.104 264.859 120.254C260.959 124.395 258.997 130.393 258.997 137.84H260.997C260.997 130.727 262.869 125.285 266.315 121.626C269.752 117.976 274.886 115.96 281.707 115.96V113.96ZM258.997 137.84V185.16H260.997V137.84H258.997ZM312.71 207H311.71V208H312.71V207ZM350.54 207V208H351.54V207H350.54ZM350.54 194H351.54V193H350.54V194ZM327.01 194H326.01V195H327.01V194ZM327.01 116H328.01V115H327.01V116ZM312.71 116V115H311.71V116H312.71ZM312.71 208H350.54V206H312.71V208ZM351.54 207V194H349.54V207H351.54ZM350.54 193H327.01V195H350.54V193ZM328.01 194V116H326.01V194H328.01ZM327.01 115H312.71V117H327.01V115ZM311.71 116V207H313.71V116H311.71ZM370.892 136.93C370.892 133.804 371.583 131.848 372.635 130.676C373.668 129.525 375.205 128.96 377.302 128.96V126.96C374.85 126.96 372.682 127.63 371.147 129.339C369.632 131.027 368.892 133.556 368.892 136.93H370.892ZM377.302 128.96C379.4 128.96 380.937 129.525 381.97 130.676C383.022 131.848 383.712 133.804 383.712 136.93H385.712C385.712 133.556 384.973 131.027 383.458 129.339C381.923 127.63 379.755 126.96 377.302 126.96V128.96ZM383.712 136.93V186.07H385.712V136.93H383.712ZM383.712 186.07C383.712 189.196 383.022 191.152 381.97 192.324C380.937 193.475 379.4 194.04 377.302 194.04V196.04C379.755 196.04 381.923 195.37 383.458 193.661C384.973 191.973 385.712 189.444 385.712 186.07H383.712ZM377.302 194.04C375.205 194.04 373.668 193.475 372.635 192.324C371.583 191.152 370.892 189.196 370.892 186.07H368.892C368.892 189.444 369.632 191.973 371.147 193.661C372.682 195.37 374.85 196.04 377.302 196.04V194.04ZM370.892 186.07V136.93H368.892V186.07H370.892ZM354.592 185.16C354.592 192.607 356.555 198.605 360.454 202.746C364.363 206.896 370.083 209.04 377.302 209.04V207.04C370.482 207.04 365.347 205.024 361.911 201.374C358.465 197.715 356.592 192.273 356.592 185.16H354.592ZM377.302 209.04C384.522 209.04 390.242 206.896 394.151 202.746C398.05 198.605 400.013 192.607 400.013 185.16H398.013C398.013 192.273 396.14 197.715 392.694 201.374C389.258 205.024 384.123 207.04 377.302 207.04V209.04ZM400.013 185.16V137.84H398.013V185.16H400.013ZM400.013 137.84C400.013 130.393 398.05 124.395 394.151 120.254C390.242 116.104 384.522 113.96 377.302 113.96V115.96C384.123 115.96 389.258 117.976 392.694 121.626C396.14 125.285 398.013 130.727 398.013 137.84H400.013ZM377.302 113.96C370.083 113.96 364.363 116.104 360.454 120.254C356.555 124.395 354.592 130.393 354.592 137.84H356.592C356.592 130.727 358.465 125.285 361.911 121.626C365.347 117.976 370.482 115.96 377.302 115.96V113.96ZM354.592 137.84V185.16H356.592V137.84H354.592ZM429.755 169.3H428.755V170.3H429.755V169.3ZM436.255 169.3H437.255V168.3H436.255V169.3ZM436.255 146.68H435.255V147.68H436.255V146.68ZM449.775 146.68V147.68H450.775V146.68H449.775ZM449.775 156.3H450.775V155.3H449.775V156.3ZM429.755 156.3V155.3H428.755V156.3H429.755ZM429.755 170.3H436.255V168.3H429.755V170.3ZM435.255 169.3V186.07H437.255V169.3H435.255ZM435.255 186.07C435.255 189.197 434.565 191.114 433.52 192.251C432.493 193.37 430.958 193.91 428.845 193.91V195.91C431.283 195.91 433.453 195.28 434.993 193.604C436.516 191.946 437.255 189.443 437.255 186.07H435.255ZM428.845 193.91C426.733 193.91 425.198 193.37 424.171 192.251C423.126 191.114 422.435 189.197 422.435 186.07H420.435C420.435 189.443 421.175 191.946 422.698 193.604C424.238 195.28 426.408 195.91 428.845 195.91V193.91ZM422.435 186.07V136.93H420.435V186.07H422.435ZM422.435 136.93C422.435 133.804 423.126 131.848 424.178 130.676C425.211 129.525 426.748 128.96 428.845 128.96V126.96C426.393 126.96 424.225 127.63 422.69 129.339C421.175 131.027 420.435 133.556 420.435 136.93H422.435ZM428.845 128.96C430.943 128.96 432.48 129.525 433.513 130.676C434.565 131.848 435.255 133.804 435.255 136.93H437.255C437.255 133.556 436.516 131.027 435.001 129.339C433.466 127.63 431.298 126.96 428.845 126.96V128.96ZM435.255 136.93V146.68H437.255V136.93H435.255ZM436.255 147.68H449.775V145.68H436.255V147.68ZM450.775 146.68V137.84H448.775V146.68H450.775ZM450.775 137.84C450.775 130.406 448.917 124.409 445.118 120.264C441.305 116.105 435.676 113.96 428.455 113.96V115.96C435.275 115.96 440.306 117.975 443.643 121.616C446.994 125.271 448.775 130.714 448.775 137.84H450.775ZM428.455 113.96C421.235 113.96 415.606 116.105 411.793 120.264C407.994 124.409 406.135 130.406 406.135 137.84H408.135C408.135 130.714 409.917 125.271 413.268 121.616C416.605 117.975 421.636 115.96 428.455 115.96V113.96ZM406.135 137.84V185.16H408.135V137.84H406.135ZM406.135 185.16C406.135 192.594 407.994 198.591 411.793 202.736C415.606 206.895 421.235 209.04 428.455 209.04V207.04C421.636 207.04 416.605 205.025 413.268 201.384C409.917 197.729 408.135 192.286 408.135 185.16H406.135ZM428.455 209.04C435.676 209.04 441.305 206.895 445.118 202.736C448.917 198.591 450.775 192.594 450.775 185.16H448.775C448.775 192.286 446.994 197.729 443.643 201.384C440.306 205.025 435.275 207.04 428.455 207.04V209.04ZM450.775 185.16V156.3H448.775V185.16H450.775ZM449.775 155.3H429.755V157.3H449.775V155.3ZM428.755 156.3V169.3H430.755V156.3H428.755ZM458.96 207H457.96V208H458.96V207ZM473.26 207V208H474.26V207H473.26ZM473.26 116H474.26V115H473.26V116ZM458.96 116V115H457.96V116H458.96ZM458.96 208H473.26V206H458.96V208ZM474.26 207V116H472.26V207H474.26ZM473.26 115H458.96V117H473.26V115ZM457.96 116V207H459.96V116H457.96ZM498.016 129V128H497.016V129H498.016ZM522.716 129V130H523.716V129H522.716ZM522.716 116H523.716V115H522.716V116ZM483.716 116V115H482.716V116H483.716ZM483.716 207H482.716V208H483.716V207ZM522.716 207V208H523.716V207H522.716ZM522.716 194H523.716V193H522.716V194ZM498.016 194H497.016V195H498.016V194ZM498.016 167.35V166.35H497.016V167.35H498.016ZM517.646 167.35V168.35H518.646V167.35H517.646ZM517.646 154.35H518.646V153.35H517.646V154.35ZM498.016 154.35H497.016V155.35H498.016V154.35ZM498.016 130H522.716V128H498.016V130ZM523.716 129V116H521.716V129H523.716ZM522.716 115H483.716V117H522.716V115ZM482.716 116V207H484.716V116H482.716ZM483.716 208H522.716V206H483.716V208ZM523.716 207V194H521.716V207H523.716ZM522.716 193H498.016V195H522.716V193ZM499.016 194V167.35H497.016V194H499.016ZM498.016 168.35H517.646V166.35H498.016V168.35ZM518.646 167.35V154.35H516.646V167.35H518.646ZM517.646 153.35H498.016V155.35H517.646V153.35ZM499.016 154.35V129H497.016V154.35H499.016ZM542.887 179.57H543.887V178.57H542.887V179.57ZM529.367 179.57V178.57H528.367V179.57H529.367ZM558.357 140.7H557.357V141.7H558.357V140.7ZM571.877 140.7V141.7H572.877V140.7H571.877ZM528.757 137.84C528.757 151.287 536.03 158.919 543.053 165.419C546.59 168.693 549.995 171.622 552.551 174.907C555.076 178.152 556.707 181.672 556.707 186.07H558.707C558.707 181.108 556.844 177.169 554.129 173.679C551.444 170.228 547.861 167.144 544.411 163.951C537.459 157.516 530.757 150.393 530.757 137.84H528.757ZM556.707 186.07C556.707 189.197 556.016 191.114 554.972 192.251C553.944 193.37 552.409 193.91 550.297 193.91V195.91C552.735 195.91 554.905 195.28 556.445 193.604C557.968 191.946 558.707 189.443 558.707 186.07H556.707ZM550.297 193.91C548.185 193.91 546.65 193.37 545.622 192.251C544.578 191.114 543.887 189.197 543.887 186.07H541.887C541.887 189.443 542.626 191.946 544.149 193.604C545.689 195.28 547.859 195.91 550.297 195.91V193.91ZM543.887 186.07V179.57H541.887V186.07H543.887ZM542.887 178.57H529.367V180.57H542.887V178.57ZM528.367 179.57V185.16H530.367V179.57H528.367ZM528.367 185.16C528.367 192.594 530.225 198.591 534.025 202.736C537.837 206.895 543.467 209.04 550.687 209.04V207.04C543.867 207.04 538.837 205.025 535.499 201.384C532.148 197.729 530.367 192.286 530.367 185.16H528.367ZM550.687 209.04C557.907 209.04 563.537 206.895 567.349 202.736C571.148 198.591 573.007 192.594 573.007 185.16H571.007C571.007 192.286 569.225 197.729 565.875 201.384C562.537 205.025 557.507 207.04 550.687 207.04V209.04ZM573.007 185.16C573.007 171.713 565.734 164.081 558.711 157.581C555.174 154.307 551.769 151.378 549.213 148.093C546.688 144.848 545.057 141.328 545.057 136.93H543.057C543.057 141.892 544.919 145.831 547.635 149.321C550.32 152.772 553.903 155.856 557.353 159.049C564.305 165.484 571.007 172.607 571.007 185.16H573.007ZM545.057 136.93C545.057 133.784 545.691 131.824 546.687 130.656C547.652 129.523 549.111 128.96 551.207 128.96V126.96C548.753 126.96 546.637 127.632 545.165 129.359C543.723 131.051 543.057 133.576 543.057 136.93H545.057ZM551.207 128.96C553.303 128.96 554.762 129.523 555.727 130.656C556.723 131.824 557.357 133.784 557.357 136.93H559.357C559.357 133.576 558.691 131.051 557.249 129.359C555.777 127.632 553.661 126.96 551.207 126.96V128.96ZM557.357 136.93V140.7H559.357V136.93H557.357ZM558.357 141.7H571.877V139.7H558.357V141.7ZM572.877 140.7V137.84H570.877V140.7H572.877ZM572.877 137.84C572.877 130.41 571.053 124.415 567.305 120.269C563.542 116.107 557.975 113.96 550.817 113.96V115.96C557.569 115.96 562.532 117.973 565.821 121.611C569.126 125.265 570.877 130.71 570.877 137.84H572.877ZM550.817 113.96C543.659 113.96 538.092 116.107 534.329 120.269C530.581 124.415 528.757 130.41 528.757 137.84H530.757C530.757 130.71 532.508 125.265 535.812 121.611C539.102 117.973 544.065 115.96 550.817 115.96V113.96Z" fill="#E2E2E2"/>
</svg>
