<svg width="1100" height="181" viewBox="0 0 1100 181" fill="none" xmlns="http://www.w3.org/2000/svg">
<path d="M1.50781 28H0.507813V29H1.50781V28ZM30.2578 28H31.2578V27H30.2578V28ZM30.2578 178H29.2578V179H30.2578V178ZM57.7578 178V179H58.7578V178H57.7578ZM57.7578 28V27H56.7578V28H57.7578ZM86.5078 28V29H87.5078V28H86.5078ZM86.5078 2.99999H87.5078V1.99999H86.5078V2.99999ZM1.50781 2.99999V1.99999H0.507813V2.99999H1.50781ZM1.50781 29H30.2578V27H1.50781V29ZM29.2578 28V178H31.2578V28H29.2578ZM30.2578 179H57.7578V177H30.2578V179ZM58.7578 178V28H56.7578V178H58.7578ZM57.7578 29H86.5078V27H57.7578V29ZM87.5078 28V2.99999H85.5078V28H87.5078ZM86.5078 1.99999H1.50781V3.99999H86.5078V1.99999ZM0.507813 2.99999V28H2.50781V2.99999H0.507813ZM126.119 28V27H125.119V28H126.119ZM173.619 28V29H174.619V28H173.619ZM173.619 2.99999H174.619V1.99999H173.619V2.99999ZM98.6191 2.99999V1.99999H97.6191V2.99999H98.6191ZM98.6191 178H97.6191V179H98.6191V178ZM173.619 178V179H174.619V178H173.619ZM173.619 153H174.619V152H173.619V153ZM126.119 153H125.119V154H126.119V153ZM126.119 101.75V100.75H125.119V101.75H126.119ZM163.869 101.75V102.75H164.869V101.75H163.869ZM163.869 76.75H164.869V75.75H163.869V76.75ZM126.119 76.75H125.119V77.75H126.119V76.75ZM126.119 29H173.619V27H126.119V29ZM174.619 28V2.99999H172.619V28H174.619ZM173.619 1.99999H98.6191V3.99999H173.619V1.99999ZM97.6191 2.99999V178H99.6191V2.99999H97.6191ZM98.6191 179H173.619V177H98.6191V179ZM174.619 178V153H172.619V178H174.619ZM173.619 152H126.119V154H173.619V152ZM127.119 153V101.75H125.119V153H127.119ZM126.119 102.75H163.869V100.75H126.119V102.75ZM164.869 101.75V76.75H162.869V101.75H164.869ZM163.869 75.75H126.119V77.75H163.869V75.75ZM127.119 76.75V28H125.119V76.75H127.119ZM244.41 112.75V111.75H243.41V112.75H244.41ZM244.41 62H243.41V63H244.41V62ZM270.41 62V63H271.41V62H270.41ZM270.41 112.75H271.41V111.75H270.41V112.75ZM243.41 112.75V137.75H245.41V112.75H243.41ZM243.41 137.75C243.41 143.877 242.059 147.834 239.83 150.261C237.617 152.67 234.372 153.75 230.16 153.75V155.75C234.698 155.75 238.578 154.58 241.303 151.614C244.011 148.666 245.41 144.123 245.41 137.75H243.41ZM230.16 153.75C225.948 153.75 222.703 152.67 220.49 150.261C218.261 147.834 216.91 143.877 216.91 137.75H214.91C214.91 144.123 216.309 148.666 219.017 151.614C221.742 154.58 225.622 155.75 230.16 155.75V153.75ZM216.91 137.75V43.25H214.91V137.75H216.91ZM216.91 43.25C216.91 37.1242 218.261 33.0977 220.498 30.6055C222.716 28.135 225.962 27 230.16 27V25C225.608 25 221.729 26.24 219.01 29.2695C216.31 32.2772 214.91 36.8758 214.91 43.25H216.91ZM230.16 27C234.358 27 237.604 28.135 239.822 30.6055C242.06 33.0977 243.41 37.1242 243.41 43.25H245.41C245.41 36.8758 244.011 32.2772 241.311 29.2695C238.591 26.24 234.712 25 230.16 25V27ZM243.41 43.25V62H245.41V43.25H243.41ZM244.41 63H270.41V61H244.41V63ZM271.41 62V45H269.41V62H271.41ZM271.41 45C271.41 30.8459 267.872 19.569 260.772 11.8243C253.66 4.06516 243.11 -9.53674e-07 229.41 -9.53674e-07V2C242.71 2 252.661 5.93484 259.298 13.1757C265.949 20.431 269.41 31.1541 269.41 45H271.41ZM229.41 -9.53674e-07C215.71 -9.53674e-07 205.161 4.06516 198.048 11.8243C190.949 19.569 187.41 30.8459 187.41 45H189.41C189.41 31.1541 192.872 20.431 199.522 13.1757C206.16 5.93484 216.11 2 229.41 2V-9.53674e-07ZM187.41 45V136H189.41V45H187.41ZM187.41 136C187.41 150.154 190.949 161.431 198.048 169.176C205.161 176.935 215.71 181 229.41 181V179C216.11 179 206.16 175.065 199.522 167.824C192.872 160.569 189.41 149.846 189.41 136H187.41ZM229.41 181C243.11 181 253.66 176.935 260.772 169.176C267.872 161.431 271.41 150.154 271.41 136H269.41C269.41 149.846 265.949 160.569 259.298 167.824C252.661 175.065 242.71 179 229.41 179V181ZM271.41 136V112.75H269.41V136H271.41ZM270.41 111.75H244.41V113.75H270.41V111.75ZM314.596 103V102H313.596V103H314.596ZM345.846 103H346.846V102H345.846V103ZM345.846 178H344.846V179H345.846V178ZM373.846 178V179H374.846V178H373.846ZM373.846 2.99999H374.846V1.99999H373.846V2.99999ZM345.846 2.99999V1.99999H344.846V2.99999H345.846ZM345.846 78V79H346.846V78H345.846ZM314.596 78H313.596V79H314.596V78ZM314.596 2.99999H315.596V1.99999H314.596V2.99999ZM287.096 2.99999V1.99999H286.096V2.99999H287.096ZM287.096 178H286.096V179H287.096V178ZM314.596 178V179H315.596V178H314.596ZM314.596 104H345.846V102H314.596V104ZM344.846 103V178H346.846V103H344.846ZM345.846 179H373.846V177H345.846V179ZM374.846 178V2.99999H372.846V178H374.846ZM373.846 1.99999H345.846V3.99999H373.846V1.99999ZM344.846 2.99999V78H346.846V2.99999H344.846ZM345.846 77H314.596V79H345.846V77ZM315.596 78V2.99999H313.596V78H315.596ZM314.596 1.99999H287.096V3.99999H314.596V1.99999ZM286.096 2.99999V178H288.096V2.99999H286.096ZM287.096 179H314.596V177H287.096V179ZM315.596 178V103H313.596V178H315.596ZM452.535 178L451.57 178.261L451.77 179H452.535V178ZM480.785 178V179H481.785V178H480.785ZM480.785 2.99999H481.785V1.99999H480.785V2.99999ZM456.285 2.99999V1.99999H455.285V2.99999H456.285ZM456.285 107.75L455.32 108.01L457.285 107.75H456.285ZM428.035 2.99999L429.001 2.7396L428.801 1.99999H428.035V2.99999ZM393.535 2.99999V1.99999H392.535V2.99999H393.535ZM393.535 178H392.535V179H393.535V178ZM418.285 178V179H419.285V178H418.285ZM418.285 51.25L419.251 50.9891L417.285 51.25H418.285ZM452.535 179H480.785V177H452.535V179ZM481.785 178V2.99999H479.785V178H481.785ZM480.785 1.99999H456.285V3.99999H480.785V1.99999ZM455.285 2.99999V107.75H457.285V2.99999H455.285ZM457.251 107.49L429.001 2.7396L427.07 3.26037L455.32 108.01L457.251 107.49ZM428.035 1.99999H393.535V3.99999H428.035V1.99999ZM392.535 2.99999V178H394.535V2.99999H392.535ZM393.535 179H418.285V177H393.535V179ZM419.285 178V51.25H417.285V178H419.285ZM417.32 51.5109L451.57 178.261L453.501 177.739L419.251 50.9891L417.32 51.5109ZM526.725 43.25C526.725 37.1242 528.075 33.0977 530.312 30.6055C532.53 28.135 535.777 27 539.975 27V25C535.422 25 531.544 26.24 528.824 29.2695C526.124 32.2772 524.725 36.8758 524.725 43.25H526.725ZM539.975 27C544.172 27 547.419 28.135 549.637 30.6055C551.874 33.0977 553.225 37.1242 553.225 43.25H555.225C555.225 36.8758 553.825 32.2772 551.125 29.2695C548.405 26.24 544.527 25 539.975 25V27ZM553.225 43.25V137.75H555.225V43.25H553.225ZM553.225 137.75C553.225 143.876 551.874 147.902 549.637 150.394C547.419 152.865 544.172 154 539.975 154V156C544.527 156 548.405 154.76 551.125 151.731C553.825 148.723 555.225 144.124 555.225 137.75H553.225ZM539.975 154C535.777 154 532.53 152.865 530.312 150.394C528.075 147.902 526.725 143.876 526.725 137.75H524.725C524.725 144.124 526.124 148.723 528.824 151.731C531.544 154.76 535.422 156 539.975 156V154ZM526.725 137.75V43.25H524.725V137.75H526.725ZM497.225 136C497.225 150.167 500.957 161.445 508.247 169.186C515.545 176.936 526.275 181 539.975 181V179C526.674 179 516.529 175.064 509.703 167.814C502.867 160.555 499.225 149.833 499.225 136H497.225ZM539.975 181C553.674 181 564.404 176.936 571.703 169.186C578.992 161.445 582.725 150.167 582.725 136H580.725C580.725 149.833 577.082 160.555 570.247 167.814C563.42 175.064 553.275 179 539.975 179V181ZM582.725 136V45H580.725V136H582.725ZM582.725 45C582.725 30.8331 578.992 19.5554 571.703 11.8144C564.404 4.0642 553.674 -9.53674e-07 539.975 -9.53674e-07V2C553.275 2 563.42 5.9358 570.247 13.1855C577.082 20.4446 580.725 31.1669 580.725 45H582.725ZM539.975 -9.53674e-07C526.275 -9.53674e-07 515.545 4.0642 508.247 11.8144C500.957 19.5554 497.225 30.8331 497.225 45H499.225C499.225 31.1669 502.867 20.4446 509.703 13.1855C516.529 5.9358 526.674 2 539.975 2V-9.53674e-07ZM497.225 45V136H499.225V45H497.225ZM599.596 178H598.596V179H599.596V178ZM672.346 178V179H673.346V178H672.346ZM672.346 153H673.346V152H672.346V153ZM627.096 153H626.096V154H627.096V153ZM627.096 2.99999H628.096V1.99999H627.096V2.99999ZM599.596 2.99999V1.99999H598.596V2.99999H599.596ZM599.596 179H672.346V177H599.596V179ZM673.346 178V153H671.346V178H673.346ZM672.346 152H627.096V154H672.346V152ZM628.096 153V2.99999H626.096V153H628.096ZM627.096 1.99999H599.596V3.99999H627.096V1.99999ZM598.596 2.99999V178H600.596V2.99999H598.596ZM710.562 43.25C710.562 37.1242 711.913 33.0977 714.15 30.6055C716.368 28.135 719.615 27 723.812 27V25C719.26 25 715.382 26.24 712.662 29.2695C709.962 32.2772 708.562 36.8758 708.562 43.25H710.562ZM723.812 27C728.01 27 731.257 28.135 733.475 30.6055C735.712 33.0977 737.062 37.1242 737.062 43.25H739.062C739.062 36.8758 737.663 32.2772 734.963 29.2695C732.243 26.24 728.365 25 723.812 25V27ZM737.062 43.25V137.75H739.062V43.25H737.062ZM737.062 137.75C737.062 143.876 735.712 147.902 733.475 150.394C731.257 152.865 728.01 154 723.812 154V156C728.365 156 732.243 154.76 734.963 151.731C737.663 148.723 739.062 144.124 739.062 137.75H737.062ZM723.812 154C719.615 154 716.368 152.865 714.15 150.394C711.913 147.902 710.562 143.876 710.562 137.75H708.562C708.562 144.124 709.962 148.723 712.662 151.731C715.382 154.76 719.26 156 723.812 156V154ZM710.562 137.75V43.25H708.562V137.75H710.562ZM681.062 136C681.062 150.167 684.795 161.445 692.084 169.186C699.383 176.936 710.113 181 723.812 181V179C710.512 179 700.367 175.064 693.541 167.814C686.705 160.555 683.062 149.833 683.062 136H681.062ZM723.812 181C737.512 181 748.242 176.936 755.541 169.186C762.83 161.445 766.562 150.167 766.562 136H764.562C764.562 149.833 760.92 160.555 754.084 167.814C747.258 175.064 737.113 179 723.812 179V181ZM766.562 136V45H764.562V136H766.562ZM766.562 45C766.562 30.8331 762.83 19.5554 755.541 11.8144C748.242 4.0642 737.512 -9.53674e-07 723.812 -9.53674e-07V2C737.113 2 747.258 5.9358 754.084 13.1855C760.92 20.4446 764.562 31.1669 764.562 45H766.562ZM723.812 -9.53674e-07C710.113 -9.53674e-07 699.383 4.0642 692.084 11.8144C684.795 19.5554 681.062 30.8331 681.062 45H683.062C683.062 31.1669 686.705 20.4446 693.541 13.1855C700.367 5.9358 710.512 2 723.812 2V-9.53674e-07ZM681.062 45V136H683.062V45H681.062ZM824.684 105.5H823.684V106.5H824.684V105.5ZM837.184 105.5H838.184V104.5H837.184V105.5ZM837.184 62H836.184V63H837.184V62ZM863.184 62V63H864.184V62H863.184ZM863.184 80.5H864.184V79.5H863.184V80.5ZM824.684 80.5V79.5H823.684V80.5H824.684ZM824.684 106.5H837.184V104.5H824.684V106.5ZM836.184 105.5V137.75H838.184V105.5H836.184ZM836.184 137.75C836.184 143.877 834.833 147.834 832.603 150.261C830.391 152.67 827.146 153.75 822.934 153.75V155.75C827.472 155.75 831.351 154.58 834.076 151.614C836.784 148.666 838.184 144.123 838.184 137.75H836.184ZM822.934 153.75C818.722 153.75 815.476 152.67 813.264 150.261C811.034 147.834 809.684 143.877 809.684 137.75H807.684C807.684 144.123 809.083 148.666 811.791 151.614C814.516 154.58 818.396 155.75 822.934 155.75V153.75ZM809.684 137.75V43.25H807.684V137.75H809.684ZM809.684 43.25C809.684 37.1242 811.034 33.0977 813.271 30.6055C815.489 28.135 818.736 27 822.934 27V25C818.381 25 814.503 26.24 811.783 29.2695C809.083 32.2772 807.684 36.8758 807.684 43.25H809.684ZM822.934 27C827.131 27 830.378 28.135 832.596 30.6055C834.833 33.0977 836.184 37.1242 836.184 43.25H838.184C838.184 36.8758 836.784 32.2772 834.084 29.2695C831.364 26.24 827.486 25 822.934 25V27ZM836.184 43.25V62H838.184V43.25H836.184ZM837.184 63H863.184V61H837.184V63ZM864.184 62V45H862.184V62H864.184ZM864.184 45C864.184 30.8459 860.645 19.569 853.546 11.8243C846.433 4.06516 835.884 -9.53674e-07 822.184 -9.53674e-07V2C835.483 2 845.434 5.93484 852.071 13.1757C858.722 20.431 862.184 31.1541 862.184 45H864.184ZM822.184 -9.53674e-07C808.483 -9.53674e-07 797.934 4.06516 790.821 11.8243C783.722 19.569 780.184 30.8459 780.184 45H782.184C782.184 31.1541 785.645 20.431 792.296 13.1757C798.933 5.93484 808.884 2 822.184 2V-9.53674e-07ZM780.184 45V136H782.184V45H780.184ZM780.184 136C780.184 150.154 783.722 161.431 790.821 169.176C797.934 176.935 808.483 181 822.184 181V179C808.884 179 798.933 175.065 792.296 167.824C785.645 160.569 782.184 149.846 782.184 136H780.184ZM822.184 181C835.884 181 846.433 176.935 853.546 169.176C860.645 161.431 864.184 150.154 864.184 136H862.184C862.184 149.846 858.722 160.569 852.071 167.824C845.434 175.065 835.483 179 822.184 179V181ZM864.184 136V80.5H862.184V136H864.184ZM863.184 79.5H824.684V81.5H863.184V79.5ZM823.684 80.5V105.5H825.684V80.5H823.684ZM880.846 178H879.846V179H880.846V178ZM908.346 178V179H909.346V178H908.346ZM908.346 2.99999H909.346V1.99999H908.346V2.99999ZM880.846 2.99999V1.99999H879.846V2.99999H880.846ZM880.846 179H908.346V177H880.846V179ZM909.346 178V2.99999H907.346V178H909.346ZM908.346 1.99999H880.846V3.99999H908.346V1.99999ZM879.846 2.99999V178H881.846V2.99999H879.846ZM955.953 28V27H954.953V28H955.953ZM1003.45 28V29H1004.45V28H1003.45ZM1003.45 2.99999H1004.45V1.99999H1003.45V2.99999ZM928.453 2.99999V1.99999H927.453V2.99999H928.453ZM928.453 178H927.453V179H928.453V178ZM1003.45 178V179H1004.45V178H1003.45ZM1003.45 153H1004.45V152H1003.45V153ZM955.953 153H954.953V154H955.953V153ZM955.953 101.75V100.75H954.953V101.75H955.953ZM993.703 101.75V102.75H994.703V101.75H993.703ZM993.703 76.75H994.703V75.75H993.703V76.75ZM955.953 76.75H954.953V77.75H955.953V76.75ZM955.953 29H1003.45V27H955.953V29ZM1004.45 28V2.99999H1002.45V28H1004.45ZM1003.45 1.99999H928.453V3.99999H1003.45V1.99999ZM927.453 2.99999V178H929.453V2.99999H927.453ZM928.453 179H1003.45V177H928.453V179ZM1004.45 178V153H1002.45V178H1004.45ZM1003.45 152H955.953V154H1003.45V152ZM956.953 153V101.75H954.953V153H956.953ZM955.953 102.75H993.703V100.75H955.953V102.75ZM994.703 101.75V76.75H992.703V101.75H994.703ZM993.703 75.75H955.953V77.75H993.703V75.75ZM956.953 76.75V28H954.953V76.75H956.953ZM1042.24 125.25H1043.24V124.25H1042.24V125.25ZM1016.24 125.25V124.25H1015.24V125.25H1016.24ZM1071.99 50.5H1070.99V51.5H1071.99V50.5ZM1097.99 50.5V51.5H1098.99V50.5H1097.99ZM1015.99 45C1015.99 70.4467 1029.72 84.889 1043.19 97.3589C1049.95 103.618 1056.58 109.322 1061.56 115.716C1066.5 122.07 1069.74 129.032 1069.74 137.75H1071.74C1071.74 128.468 1068.27 121.086 1063.14 114.487C1058.03 107.928 1051.22 102.069 1044.55 95.8911C1031.15 83.486 1017.99 69.5533 1017.99 45H1015.99ZM1069.74 137.75C1069.74 143.877 1068.39 147.834 1066.16 150.261C1063.95 152.67 1060.71 153.75 1056.49 153.75V155.75C1061.03 155.75 1064.91 154.58 1067.64 151.614C1070.35 148.666 1071.74 144.123 1071.74 137.75H1069.74ZM1056.49 153.75C1052.28 153.75 1049.04 152.67 1046.82 150.261C1044.6 147.834 1043.24 143.877 1043.24 137.75H1041.24C1041.24 144.123 1042.64 148.666 1045.35 151.614C1048.08 154.58 1051.96 155.75 1056.49 155.75V153.75ZM1043.24 137.75V125.25H1041.24V137.75H1043.24ZM1042.24 124.25H1016.24V126.25H1042.24V124.25ZM1015.24 125.25V136H1017.24V125.25H1015.24ZM1015.24 136C1015.24 150.154 1018.78 161.431 1025.88 169.176C1032.99 176.935 1043.54 181 1057.24 181V179C1043.94 179 1033.99 175.065 1027.36 167.824C1020.71 160.569 1017.24 149.846 1017.24 136H1015.24ZM1057.24 181C1070.94 181 1081.49 176.935 1088.61 169.176C1095.71 161.431 1099.24 150.154 1099.24 136H1097.24C1097.24 149.846 1093.78 160.569 1087.13 167.824C1080.49 175.065 1070.54 179 1057.24 179V181ZM1099.24 136C1099.24 110.553 1085.52 96.111 1072.05 83.6411C1065.29 77.382 1058.66 71.6776 1053.68 65.2844C1048.74 58.9301 1045.49 51.9683 1045.49 43.25H1043.49C1043.49 52.5316 1046.97 59.9137 1052.1 66.5125C1057.21 73.0724 1064.01 78.9305 1070.69 85.1089C1084.09 97.514 1097.24 111.447 1097.24 136H1099.24ZM1045.49 43.25C1045.49 37.1037 1046.73 33.0742 1048.85 30.5861C1050.94 28.1332 1054.05 27 1058.24 27V25C1053.69 25 1049.92 26.2418 1047.33 29.2888C1044.76 32.3007 1043.49 36.8963 1043.49 43.25H1045.49ZM1058.24 27C1062.44 27 1065.55 28.1332 1067.64 30.5861C1069.76 33.0742 1070.99 37.1037 1070.99 43.25H1072.99C1072.99 36.8963 1071.73 32.3007 1069.16 29.2888C1066.56 26.2418 1062.8 25 1058.24 25V27ZM1070.99 43.25V50.5H1072.99V43.25H1070.99ZM1071.99 51.5H1097.99V49.5H1071.99V51.5ZM1098.99 50.5V45H1096.99V50.5H1098.99ZM1098.99 45C1098.99 30.8501 1095.52 19.5747 1088.52 11.8293C1081.5 4.06712 1071.07 -9.53674e-07 1057.49 -9.53674e-07V2C1070.67 2 1080.49 5.93287 1087.03 13.1707C1093.59 20.4252 1096.99 31.1499 1096.99 45H1098.99ZM1057.49 -9.53674e-07C1043.92 -9.53674e-07 1033.49 4.06712 1026.47 11.8293C1019.47 19.5747 1015.99 30.8501 1015.99 45H1017.99C1017.99 31.1499 1021.4 20.4252 1027.95 13.1707C1034.5 5.93287 1044.32 2 1057.49 2V-9.53674e-07Z" fill="#E2E2E2"/>
</svg>
