<svg width="561" height="97" viewBox="0 0 561 97" fill="none" xmlns="http://www.w3.org/2000/svg">
<path d="M1.39938 16H0.399375V17H1.39938V16ZM16.3494 16H17.3494V15H16.3494V16ZM16.3494 94H15.3494V95H16.3494V94ZM30.6494 94V95H31.6494V94H30.6494ZM30.6494 16V15H29.6494V16H30.6494ZM45.5994 16V17H46.5994V16H45.5994ZM45.5994 2.99999H46.5994V1.99999H45.5994V2.99999ZM1.39938 2.99999V1.99999H0.399375V2.99999H1.39938ZM1.39938 17H16.3494V15H1.39938V17ZM15.3494 16V94H17.3494V16H15.3494ZM16.3494 95H30.6494V93H16.3494V95ZM31.6494 94V16H29.6494V94H31.6494ZM30.6494 17H45.5994V15H30.6494V17ZM46.5994 16V2.99999H44.5994V16H46.5994ZM45.5994 1.99999H1.39938V3.99999H45.5994V1.99999ZM0.399375 2.99999V16H2.39937V2.99999H0.399375ZM66.1973 16V15H65.1973V16H66.1973ZM90.8973 16V17H91.8973V16H90.8973ZM90.8973 2.99999H91.8973V1.99999H90.8973V2.99999ZM51.8973 2.99999V1.99999H50.8973V2.99999H51.8973ZM51.8973 94H50.8973V95H51.8973V94ZM90.8973 94V95H91.8973V94H90.8973ZM90.8973 81H91.8973V80H90.8973V81ZM66.1973 81H65.1973V82H66.1973V81ZM66.1973 54.35V53.35H65.1973V54.35H66.1973ZM85.8273 54.35V55.35H86.8273V54.35H85.8273ZM85.8273 41.35H86.8273V40.35H85.8273V41.35ZM66.1973 41.35H65.1973V42.35H66.1973V41.35ZM66.1973 17H90.8973V15H66.1973V17ZM91.8973 16V2.99999H89.8973V16H91.8973ZM90.8973 1.99999H51.8973V3.99999H90.8973V1.99999ZM50.8973 2.99999V94H52.8973V2.99999H50.8973ZM51.8973 95H90.8973V93H51.8973V95ZM91.8973 94V81H89.8973V94H91.8973ZM90.8973 80H66.1973V82H90.8973V80ZM67.1973 81V54.35H65.1973V81H67.1973ZM66.1973 55.35H85.8273V53.35H66.1973V55.35ZM86.8273 54.35V41.35H84.8273V54.35H86.8273ZM85.8273 40.35H66.1973V42.35H85.8273V40.35ZM67.1973 41.35V16H65.1973V41.35H67.1973ZM111.069 66.57H112.069V65.57H111.069V66.57ZM97.5486 66.57V65.57H96.5486V66.57H97.5486ZM126.539 27.7H125.539V28.7H126.539V27.7ZM140.059 27.7V28.7H141.059V27.7H140.059ZM96.9386 24.84C96.9386 38.2867 104.212 45.919 111.234 52.4189C114.772 55.693 118.177 58.6224 120.732 61.9069C123.257 65.1524 124.889 68.6716 124.889 73.07H126.889C126.889 68.1083 125.026 64.1688 122.311 60.6787C119.625 57.2276 116.043 54.1445 112.593 50.9511C105.64 44.516 98.9386 37.3933 98.9386 24.84H96.9386ZM124.889 73.07C124.889 76.1968 124.198 78.1142 123.153 79.251C122.126 80.3696 120.591 80.91 118.479 80.91V82.91C120.917 82.91 123.086 82.2804 124.626 80.604C126.149 78.9458 126.889 76.4432 126.889 73.07H124.889ZM118.479 80.91C116.367 80.91 114.831 80.3696 113.804 79.251C112.759 78.1142 112.069 76.1968 112.069 73.07H110.069C110.069 76.4432 110.808 78.9458 112.331 80.604C113.871 82.2804 116.041 82.91 118.479 82.91V80.91ZM112.069 73.07V66.57H110.069V73.07H112.069ZM111.069 65.57H97.5486V67.57H111.069V65.57ZM96.5486 66.57V72.16H98.5486V66.57H96.5486ZM96.5486 72.16C96.5486 79.5941 98.4071 85.591 102.206 89.7357C106.019 93.8948 111.648 96.04 118.869 96.04V94.04C112.049 94.04 107.018 92.0252 103.681 88.3843C100.33 84.729 98.5486 79.2859 98.5486 72.16H96.5486ZM118.869 96.04C126.089 96.04 131.718 93.8948 135.531 89.7357C139.33 85.591 141.189 79.5941 141.189 72.16H139.189C139.189 79.2859 137.407 84.729 134.056 88.3843C130.719 92.0252 125.688 94.04 118.869 94.04V96.04ZM141.189 72.16C141.189 58.7133 133.915 51.081 126.893 44.5811C123.355 41.307 119.951 38.3776 117.395 35.0931C114.87 31.8476 113.239 28.3283 113.239 23.93H111.239C111.239 28.8916 113.101 32.8312 115.817 36.3213C118.502 39.7724 122.084 42.8555 125.534 46.0489C132.487 52.484 139.189 59.6067 139.189 72.16H141.189ZM113.239 23.93C113.239 20.7837 113.873 18.8242 114.868 17.6561C115.834 16.5232 117.293 15.96 119.389 15.96V13.96C116.935 13.96 114.818 14.6318 113.346 16.3588C111.904 18.0508 111.239 20.5763 111.239 23.93H113.239ZM119.389 15.96C121.485 15.96 122.943 16.5232 123.909 17.6561C124.904 18.8242 125.539 20.7837 125.539 23.93H127.539C127.539 20.5763 126.873 18.0508 125.431 16.3588C123.959 14.6318 121.843 13.96 119.389 13.96V15.96ZM125.539 23.93V27.7H127.539V23.93H125.539ZM126.539 28.7H140.059V26.7H126.539V28.7ZM141.059 27.7V24.84H139.059V27.7H141.059ZM141.059 24.84C141.059 17.4101 139.235 11.4147 135.487 7.26933C131.723 3.10712 126.157 0.96 118.999 0.96V2.96C125.75 2.96 130.714 4.97287 134.003 8.61067C137.307 12.2653 139.059 17.7099 139.059 24.84H141.059ZM118.999 0.96C111.84 0.96 106.274 3.10712 102.511 7.26933C98.7624 11.4147 96.9386 17.4101 96.9386 24.84H98.9386C98.9386 17.7099 100.69 12.2653 103.994 8.61067C107.283 4.97287 112.247 2.96 118.999 2.96V0.96ZM144.222 16H143.222V17H144.222V16ZM159.172 16H160.172V15H159.172V16ZM159.172 94H158.172V95H159.172V94ZM173.472 94V95H174.472V94H173.472ZM173.472 16V15H172.472V16H173.472ZM188.422 16V17H189.422V16H188.422ZM188.422 2.99999H189.422V1.99999H188.422V2.99999ZM144.222 2.99999V1.99999H143.222V2.99999H144.222ZM144.222 17H159.172V15H144.222V17ZM158.172 16V94H160.172V16H158.172ZM159.172 95H173.472V93H159.172V95ZM174.472 94V16H172.472V94H174.472ZM173.472 17H188.422V15H173.472V17ZM189.422 16V2.99999H187.422V16H189.422ZM188.422 1.99999H144.222V3.99999H188.422V1.99999ZM143.222 2.99999V16H145.222V2.99999H143.222ZM194.72 94H193.72V95H194.72V94ZM209.02 94V95H210.02V94H209.02ZM209.02 2.99999H210.02V1.99999H209.02V2.99999ZM194.72 2.99999V1.99999H193.72V2.99999H194.72ZM194.72 95H209.02V93H194.72V95ZM210.02 94V2.99999H208.02V94H210.02ZM209.02 1.99999H194.72V3.99999H209.02V1.99999ZM193.72 2.99999V94H195.72V2.99999H193.72ZM239.235 2.99999L240.222 2.83914L240.086 1.99999H239.235V2.99999ZM219.345 2.99999V1.99999H218.345V2.99999H219.345ZM219.345 94H218.345V95H219.345V94ZM231.825 94V95H232.825V94H231.825ZM231.825 29.65L232.812 29.4866L230.825 29.65H231.825ZM242.485 94L241.499 94.1634L241.637 95H242.485V94ZM256.005 94V95H256.865L256.994 94.1497L256.005 94ZM265.885 28.74H266.885L264.897 28.5903L265.885 28.74ZM265.885 94H264.885V95H265.885V94ZM279.405 94V95H280.405V94H279.405ZM279.405 2.99999H280.405V1.99999H279.405V2.99999ZM259.515 2.99999V1.99999H258.655L258.527 2.85078L259.515 2.99999ZM249.765 67.61L248.778 67.7709L250.754 67.7592L249.765 67.61ZM239.235 1.99999H219.345V3.99999H239.235V1.99999ZM218.345 2.99999V94H220.345V2.99999H218.345ZM219.345 95H231.825V93H219.345V95ZM232.825 94V29.65H230.825V94H232.825ZM230.839 29.8134L241.499 94.1634L243.472 93.8366L232.812 29.4866L230.839 29.8134ZM242.485 95H256.005V93H242.485V95ZM256.994 94.1497L266.874 28.8897L264.897 28.5903L255.017 93.8503L256.994 94.1497ZM264.885 28.74V94H266.885V28.74H264.885ZM265.885 95H279.405V93H265.885V95ZM280.405 94V2.99999H278.405V94H280.405ZM279.405 1.99999H259.515V3.99999H279.405V1.99999ZM258.527 2.85078L248.777 67.4608L250.754 67.7592L260.504 3.14921L258.527 2.85078ZM250.752 67.4491L240.222 2.83914L238.248 3.16085L248.778 67.7709L250.752 67.4491ZM303.937 23.93C303.937 20.8042 304.628 18.8477 305.68 17.6755C306.713 16.525 308.25 15.96 310.347 15.96V13.96C307.895 13.96 305.727 14.63 304.192 16.3395C302.677 18.0272 301.937 20.5558 301.937 23.93H303.937ZM310.347 15.96C312.445 15.96 313.982 16.525 315.015 17.6755C316.067 18.8477 316.757 20.8042 316.757 23.93H318.757C318.757 20.5558 318.018 18.0272 316.503 16.3395C314.968 14.63 312.8 13.96 310.347 13.96V15.96ZM316.757 23.93V73.07H318.757V23.93H316.757ZM316.757 73.07C316.757 76.1958 316.067 78.1523 315.015 79.3245C313.982 80.475 312.445 81.04 310.347 81.04V83.04C312.8 83.04 314.968 82.37 316.503 80.6605C318.018 78.9727 318.757 76.4442 318.757 73.07H316.757ZM310.347 81.04C308.25 81.04 306.713 80.475 305.68 79.3245C304.628 78.1523 303.937 76.1958 303.937 73.07H301.937C301.937 76.4442 302.677 78.9727 304.192 80.6605C305.727 82.37 307.895 83.04 310.347 83.04V81.04ZM303.937 73.07V23.93H301.937V73.07H303.937ZM287.637 72.16C287.637 79.6069 289.6 85.6046 293.499 89.7456C297.408 93.8958 303.128 96.04 310.347 96.04V94.04C303.527 94.04 298.392 92.0242 294.955 88.3744C291.51 84.7154 289.637 79.2731 289.637 72.16H287.637ZM310.347 96.04C317.567 96.04 323.287 93.8958 327.195 89.7456C331.095 85.6046 333.057 79.6069 333.057 72.16H331.057C331.057 79.2731 329.185 84.7154 325.739 88.3744C322.303 92.0242 317.168 94.04 310.347 94.04V96.04ZM333.057 72.16V24.84H331.057V72.16H333.057ZM333.057 24.84C333.057 17.3931 331.095 11.3954 327.195 7.25444C323.287 3.1042 317.567 0.96 310.347 0.96V2.96C317.168 2.96 322.303 4.9758 325.739 8.62555C329.185 12.2846 331.057 17.7269 331.057 24.84H333.057ZM310.347 0.96C303.128 0.96 297.408 3.1042 293.499 7.25444C289.6 11.3954 287.637 17.3931 287.637 24.84H289.637C289.637 17.7269 291.51 12.2846 294.955 8.62555C298.392 4.9758 303.527 2.96 310.347 2.96V0.96ZM287.637 24.84V72.16H289.637V24.84H287.637ZM371.9 94L370.935 94.2609L371.135 95H371.9V94ZM386.59 94V95H387.59V94H386.59ZM386.59 2.99999H387.59V1.99999H386.59V2.99999ZM373.85 2.99999V1.99999H372.85V2.99999H373.85ZM373.85 57.47L372.885 57.7304L374.85 57.47H373.85ZM359.16 2.99999L360.126 2.73961L359.926 1.99999H359.16V2.99999ZM341.22 2.99999V1.99999H340.22V2.99999H341.22ZM341.22 94H340.22V95H341.22V94ZM354.09 94V95H355.09V94H354.09ZM354.09 28.09L355.056 27.8291L353.09 28.09H354.09ZM371.9 95H386.59V93H371.9V95ZM387.59 94V2.99999H385.59V94H387.59ZM386.59 1.99999H373.85V3.99999H386.59V1.99999ZM372.85 2.99999V57.47H374.85V2.99999H372.85ZM374.816 57.2096L360.126 2.73961L358.195 3.26038L372.885 57.7304L374.816 57.2096ZM359.16 1.99999H341.22V3.99999H359.16V1.99999ZM340.22 2.99999V94H342.22V2.99999H340.22ZM341.22 95H354.09V93H341.22V95ZM355.09 94V28.09H353.09V94H355.09ZM353.125 28.3509L370.935 94.2609L372.866 93.7391L355.056 27.8291L353.125 28.3509ZM396.829 94H395.829V95H396.829V94ZM411.129 94V95H412.129V94H411.129ZM411.129 2.99999H412.129V1.99999H411.129V2.99999ZM396.829 2.99999V1.99999H395.829V2.99999H396.829ZM396.829 95H411.129V93H396.829V95ZM412.129 94V2.99999H410.129V94H412.129ZM411.129 1.99999H396.829V3.99999H411.129V1.99999ZM395.829 2.99999V94H397.829V2.99999H395.829ZM453.305 2.99999L454.292 2.842L454.157 1.99999H453.305V2.99999ZM432.375 2.99999V1.99999H431.522L431.387 2.842L432.375 2.99999ZM417.815 94L416.827 93.842L416.642 95H417.815V94ZM430.945 94V95H431.806L431.934 94.148L430.945 94ZM433.415 77.49V76.49H432.553L432.426 77.342L433.415 77.49ZM450.965 77.49L451.954 77.342L451.826 76.49H450.965V77.49ZM453.435 94L452.446 94.148L452.573 95H453.435V94ZM467.865 94V95H469.037L468.852 93.842L467.865 94ZM442.125 19.12L443.114 18.9719H441.136L442.125 19.12ZM449.015 65.14V66.14H450.176L450.004 64.9919L449.015 65.14ZM435.235 65.14L434.246 64.9919L434.074 66.14H435.235V65.14ZM453.305 1.99999H432.375V3.99999H453.305V1.99999ZM431.387 2.842L416.827 93.842L418.802 94.158L433.362 3.15798L431.387 2.842ZM417.815 95H430.945V93H417.815V95ZM431.934 94.148L434.404 77.638L432.426 77.342L429.956 93.852L431.934 94.148ZM433.415 78.49H450.965V76.49H433.415V78.49ZM449.976 77.638L452.446 94.148L454.424 93.852L451.954 77.342L449.976 77.638ZM453.435 95H467.865V93H453.435V95ZM468.852 93.842L454.292 2.842L452.317 3.15798L466.877 94.158L468.852 93.842ZM441.136 19.2681L448.026 65.2881L450.004 64.9919L443.114 18.9719L441.136 19.2681ZM449.015 64.14H435.235V66.14H449.015V64.14ZM436.224 65.2881L443.114 19.2681L441.136 18.9719L434.246 64.9919L436.224 65.2881ZM474.524 94H473.524V95H474.524V94ZM512.354 94V95H513.354V94H512.354ZM512.354 81H513.354V80H512.354V81ZM488.824 81H487.824V82H488.824V81ZM488.824 2.99999H489.824V1.99999H488.824V2.99999ZM474.524 2.99999V1.99999H473.524V2.99999H474.524ZM474.524 95H512.354V93H474.524V95ZM513.354 94V81H511.354V94H513.354ZM512.354 80H488.824V82H512.354V80ZM489.824 81V2.99999H487.824V81H489.824ZM488.824 1.99999H474.524V3.99999H488.824V1.99999ZM473.524 2.99999V94H475.524V2.99999H473.524ZM529.887 66.57H530.887V65.57H529.887V66.57ZM516.367 66.57V65.57H515.367V66.57H516.367ZM545.357 27.7H544.357V28.7H545.357V27.7ZM558.877 27.7V28.7H559.877V27.7H558.877ZM515.757 24.84C515.757 38.2867 523.03 45.919 530.053 52.4189C533.59 55.693 536.995 58.6224 539.551 61.9069C542.076 65.1524 543.707 68.6716 543.707 73.07H545.707C545.707 68.1083 543.844 64.1688 541.129 60.6787C538.444 57.2276 534.861 54.1445 531.411 50.9511C524.459 44.516 517.757 37.3933 517.757 24.84H515.757ZM543.707 73.07C543.707 76.1968 543.016 78.1142 541.972 79.251C540.944 80.3696 539.409 80.91 537.297 80.91V82.91C539.735 82.91 541.905 82.2804 543.445 80.604C544.968 78.9458 545.707 76.4432 545.707 73.07H543.707ZM537.297 80.91C535.185 80.91 533.65 80.3696 532.622 79.251C531.578 78.1142 530.887 76.1968 530.887 73.07H528.887C528.887 76.4432 529.626 78.9458 531.149 80.604C532.689 82.2804 534.859 82.91 537.297 82.91V80.91ZM530.887 73.07V66.57H528.887V73.07H530.887ZM529.887 65.57H516.367V67.57H529.887V65.57ZM515.367 66.57V72.16H517.367V66.57H515.367ZM515.367 72.16C515.367 79.5941 517.225 85.591 521.025 89.7357C524.837 93.8948 530.467 96.04 537.687 96.04V94.04C530.867 94.04 525.837 92.0252 522.499 88.3843C519.148 84.729 517.367 79.2859 517.367 72.16H515.367ZM537.687 96.04C544.907 96.04 550.537 93.8948 554.349 89.7357C558.148 85.591 560.007 79.5941 560.007 72.16H558.007C558.007 79.2859 556.225 84.729 552.875 88.3843C549.537 92.0252 544.507 94.04 537.687 94.04V96.04ZM560.007 72.16C560.007 58.7133 552.734 51.081 545.711 44.5811C542.174 41.307 538.769 38.3776 536.213 35.0931C533.688 31.8476 532.057 28.3283 532.057 23.93H530.057C530.057 28.8916 531.919 32.8312 534.635 36.3213C537.32 39.7724 540.903 42.8555 544.353 46.0489C551.305 52.484 558.007 59.6067 558.007 72.16H560.007ZM532.057 23.93C532.057 20.7837 532.691 18.8242 533.687 17.6561C534.652 16.5232 536.111 15.96 538.207 15.96V13.96C535.753 13.96 533.637 14.6318 532.165 16.3588C530.723 18.0508 530.057 20.5763 530.057 23.93H532.057ZM538.207 15.96C540.303 15.96 541.762 16.5232 542.727 17.6561C543.723 18.8242 544.357 20.7837 544.357 23.93H546.357C546.357 20.5763 545.691 18.0508 544.249 16.3588C542.777 14.6318 540.661 13.96 538.207 13.96V15.96ZM544.357 23.93V27.7H546.357V23.93H544.357ZM545.357 28.7H558.877V26.7H545.357V28.7ZM559.877 27.7V24.84H557.877V27.7H559.877ZM559.877 24.84C559.877 17.4101 558.053 11.4147 554.305 7.26933C550.542 3.10712 544.975 0.96 537.817 0.96V2.96C544.569 2.96 549.532 4.97287 552.821 8.61067C556.126 12.2653 557.877 17.7099 557.877 24.84H559.877ZM537.817 0.96C530.659 0.96 525.092 3.10712 521.329 7.26933C517.581 11.4147 515.757 17.4101 515.757 24.84H517.757C517.757 17.7099 519.508 12.2653 522.812 8.61067C526.102 4.97287 531.065 2.96 537.817 2.96V0.96Z" fill="#E2E2E2"/>
</svg>
